<svg width="60" height="61" viewBox="0 0 60 61" fill="none" xmlns="http://www.w3.org/2000/svg">
<path d="M47.7616 18.6109C49.1836 18.6109 50.1288 17.8219 49.3397 16.4821C48.789 15.6109 47.5233 14.8219 45.4685 14.8219C43.4137 14.8219 42.1479 15.6109 41.5973 16.4821C40.8082 17.8219 41.7534 18.6109 43.1753 18.6109H47.7616ZM45.4685 4.31774C50.6794 4.31774 54.9452 8.5835 54.9452 13.7945C54.9452 19.0876 50.6794 23.2712 45.4685 23.2712C40.1753 23.2712 35.9096 19.0054 35.9096 13.7945C35.9096 8.50131 40.1753 4.31774 45.4685 4.31774ZM45.4685 5.65747C40.9644 5.65747 37.3315 9.29035 37.3315 13.7945C37.3315 18.2986 40.9644 21.9314 45.4685 21.9314C49.9726 21.9314 53.6055 18.2986 53.6055 13.7945C53.6055 9.29035 49.9726 5.65747 45.4685 5.65747ZM45.4685 2.65747C39.3041 2.65747 34.3315 7.63007 34.3315 13.7945C34.3315 19.9588 39.3041 24.9314 45.4685 24.9314C51.6329 24.9314 56.5233 19.9588 56.5233 13.7945C56.5233 7.63007 51.6329 2.65747 45.4685 2.65747ZM47.7616 20.0328H43.1836C40.5781 20.0328 39 17.978 40.4219 15.7671C41.1288 14.5835 42.789 13.4739 45.2383 13.4739C43.4219 13.3177 42 11.8136 42 9.9972C42 8.09857 43.5781 6.60268 45.4767 6.60268C47.3753 6.60268 48.8712 8.10679 48.8712 9.9972C48.8712 11.8136 47.5315 13.3177 45.7151 13.4739C48.1644 13.4739 49.7425 14.5835 50.5315 15.7671C51.8712 17.978 50.2931 20.0328 47.7616 20.0328ZM37.4959 27.3808L31.8082 21.6931V24.6191C31.8082 26.1232 33.074 27.3808 34.5699 27.3808H37.4959ZM25.726 48.315L27.0657 48.5534L26.8274 49.9753L25.4877 49.7369L25.726 48.315ZM28.4055 48.7095L29.7452 48.7917V50.1314H28.4055V48.7095ZM31.1753 48.7095L32.5151 48.5534L32.6712 49.9753L31.3315 50.0575L31.1753 48.7095ZM33.863 48.315L35.2027 47.9205L35.5151 49.2602L34.2493 49.6547L33.863 48.315ZM36.4685 47.526L37.7342 46.9753L38.2849 48.241L37.0192 48.7917L36.4685 47.526ZM38.9178 46.3424L40.1014 45.6356L40.8904 46.8191L39.7068 47.526L38.9178 46.3424ZM41.2027 44.8383L42.3123 43.9671L43.1836 45.0766L42.1562 45.9479L41.2027 44.8383ZM43.2575 43.0219L44.2027 41.9945L45.2301 42.9397L44.3589 43.9671L43.2575 43.0219ZM45.074 40.9671L45.863 39.7835L46.9726 40.6547L46.2657 41.7643L45.074 40.9671ZM46.4959 38.6739L47.1288 37.4082L48.3945 38.041L47.7616 39.2246L46.4959 38.6739ZM47.6055 36.1506L48.0822 34.8109L49.4219 35.2876L48.9452 36.5534L47.6055 36.1506ZM48.3945 33.5451L48.6329 32.2054L49.9726 32.4438L49.7342 33.7835L48.3945 33.5451ZM48.7068 30.7753L48.789 29.4356L50.2109 29.5177L50.1288 30.8575L48.7068 30.7753ZM48.7068 28.0958L48.5507 26.7561L49.9726 26.5177L50.1288 27.9397L48.7068 28.0958ZM26.5151 10.7123L25.1753 10.9506L24.863 9.6109L26.2027 9.29857L26.5151 10.7123ZM23.8274 11.3451L22.5616 11.8219L22.0849 10.4821L23.3507 10.0054L23.8274 11.3451ZM21.3041 12.3725L20.1205 13.0054L19.4137 11.7397L20.6794 11.1068L21.3041 12.3725ZM18.9288 13.7205L17.8192 14.5095L16.9479 13.3999L18.0575 12.5287L18.9288 13.7205ZM16.8 15.3725L15.7726 16.3177L14.8274 15.2903L15.7726 14.3451L16.8 15.3725ZM14.9014 17.3534L14.0301 18.463L12.9205 17.5917L13.7918 16.4821L14.9014 17.3534ZM13.3233 19.5643L12.6164 20.7479L11.4246 20.115L12.0575 18.8493L13.3233 19.5643ZM12.0575 22.0136L11.5068 23.2712L10.2411 22.7945L10.7178 21.4547L12.0575 22.0136ZM11.1123 24.6191L10.8 25.8849L9.46026 25.5725L9.77259 24.3068L11.1123 24.6191ZM10.6356 27.2986L10.4794 28.6383L9.05752 28.4821L9.21369 27.1424L10.6356 27.2986ZM31.9644 10.5561L30.6246 10.4739L30.7068 9.05199L32.1288 9.20816L31.9644 10.5561ZM29.2027 10.4739L27.863 10.5561L27.7808 9.13418L29.1205 9.05199L29.2027 10.4739ZM13.3233 46.0219C14.4329 45.7095 15.3781 45.1506 16.1671 44.2876C18.2219 41.9945 18.1397 38.4438 15.9288 36.2328C14.1123 34.4164 11.3507 34.0219 9.13972 35.2054C10.8 36.389 12.0657 38.0493 12.8548 39.9479C13.6356 41.9123 13.8 44.0493 13.3233 46.0219ZM7.7178 34.4082C10.5616 32.4356 14.5068 32.8301 16.9562 35.2794C19.6438 37.9671 19.7178 42.389 17.1945 45.2328C16.0849 46.4164 14.589 47.2876 12.9288 47.526C12.6164 48.2328 12.2959 48.9479 11.9014 49.5808C14.0301 49.4986 16.0849 48.7095 17.7452 47.3698L19.4055 49.104C19.6438 48.6273 20.0383 48.315 20.4329 48.0766L18.7726 46.3424C19.3233 45.6356 19.8 44.9205 20.1945 44.0493C22.2493 39.389 20.1123 34.0136 15.452 31.9671C13.3233 31.0958 10.7918 30.9397 8.42465 31.8849C7.39725 32.2794 6.45204 32.8301 5.663 33.6191C6.36985 33.7835 7.08492 34.0958 7.7178 34.4082ZM20.7452 34.8027C21.3781 35.8301 21.8548 36.9314 22.0849 38.041C22.5616 38.3534 23.0301 38.5177 23.589 38.5177H35.6712C37.2493 38.5177 38.5151 37.252 38.5151 35.6739V28.8027H34.5616C32.2685 28.8027 30.3781 26.904 30.3781 24.6191V20.6657H23.589C22.011 20.6657 20.7452 21.9314 20.7452 23.5095V34.8027ZM14.9014 30.3068C15.2959 30.389 15.6082 30.5451 16.0109 30.7013C17.3507 31.252 18.4603 32.041 19.4055 33.0684V23.5095C19.4055 21.2164 21.2219 19.326 23.589 19.326H31.0931C31.2493 19.326 31.4877 19.4082 31.5699 19.4821V19.5643L39.7068 27.6191C39.863 27.7753 39.863 27.9314 39.863 28.1698V35.6739C39.863 37.9671 37.9644 39.8575 35.6794 39.8575H23.589C23.1123 39.8575 22.7178 39.8575 22.3233 39.7013C22.4055 40.5725 22.3233 41.4356 22.1671 42.3068C24.4603 43.6465 26.9836 44.3616 29.589 44.3616C37.8 44.3616 44.3589 37.7287 44.3589 29.5917C44.3589 28.4082 44.2767 27.2986 43.9644 26.1972C38.2849 25.5643 33.6986 20.9862 33.0657 15.2164C31.8822 14.978 30.7726 14.8219 29.589 14.8219C21.1397 14.8219 14.5068 21.8493 14.9014 30.3068ZM27.1479 54.3972L22.6438 49.6547C22.0931 49.0219 21.3041 49.0219 20.7452 49.5725C20.1945 50.1232 20.1123 50.8383 20.663 51.4712L25.1671 56.2136C26.2767 57.4794 28.3315 55.663 27.1479 54.3972ZM4.55341 34.8027C2.58081 37.3342 2.1041 40.7287 3.28766 43.7287C4.47122 46.7287 7.0767 48.8657 10.3151 49.4164C12.2877 46.8849 12.7644 43.4903 11.5808 40.4903C10.3972 37.4903 7.7178 35.3616 4.55341 34.8027ZM45.4685 7.95062C44.2849 7.95062 43.4137 8.89583 43.4137 10.0054C43.4137 11.189 44.2849 12.0602 45.4685 12.0602C46.5781 12.0602 47.5233 11.189 47.5233 10.0054C47.5233 8.89583 46.5781 7.95062 45.4685 7.95062Z" fill="#A6FB00"/>
</svg>
