<svg width="1200" height="351" viewBox="0 0 1200 351" fill="none" xmlns="http://www.w3.org/2000/svg">
<rect x="0.5" y="0.560547" width="1199" height="349" rx="9.5" fill="url(#paint0_linear_115_3069)" stroke="#36363D"/>
<mask id="mask0_115_3069" style="mask-type:alpha" maskUnits="userSpaceOnUse" x="977" y="3" width="223" height="344">
<path d="M1199.5 7.10018C1178.23 7.10018 1083.15 -1.04157 1063.5 7.0997C1043.85 15.241 1029.99 44.5053 1014.95 59.5484C999.906 74.5915 997.973 92.4504 989.832 112.105C981.69 131.76 977.5 152.826 977.5 174.1C977.5 195.374 975.859 223.945 984 243.6C992.141 263.255 999.906 273.608 1014.95 288.651C1029.99 303.694 1038.85 332.458 1058.5 340.6C1181.5 346.481 1194.5 352.982 1199.5 336.1L1199.5 174.1L1199.5 7.10018Z" fill="#1F1F21"/>
</mask>
<g mask="url(#mask0_115_3069)">
<path d="M1199.5 12.1001C1178.23 12.1001 1157.16 16.2903 1137.51 24.4316C1117.85 32.5729 1099.99 44.5057 1084.95 59.5488C1069.91 74.5919 1057.97 92.4506 1049.83 112.105C1041.69 131.76 1037.5 152.826 1037.5 174.1C1037.5 195.374 1041.69 216.44 1049.83 236.095C1057.97 255.75 1069.91 273.608 1084.95 288.651C1099.99 303.694 1117.85 315.627 1137.51 323.769C1157.16 331.91 1178.23 336.1 1199.5 336.1L1199.5 174.1L1199.5 12.1001Z" fill="#1F1F21"/>
<g filter="url(#filter0_f_115_3069)">
<ellipse cx="1142.5" cy="103.6" rx="57.5" ry="57.5" transform="rotate(-90 1142.5 103.6)" fill="url(#paint1_linear_115_3069)"/>
</g>
<g filter="url(#filter1_f_115_3069)">
<ellipse cx="1160.5" cy="241.6" rx="58.5" ry="59.5" transform="rotate(-90 1160.5 241.6)" fill="url(#paint2_linear_115_3069)"/>
</g>
<path d="M1200.18 28.471C1181.06 28.471 1162.12 32.2378 1144.45 39.5564C1126.78 46.875 1110.73 57.602 1097.21 71.1249C1083.68 84.6479 1072.96 100.702 1065.64 118.371C1058.32 136.039 1054.55 154.976 1054.55 174.101C1054.55 193.225 1058.32 212.162 1065.64 229.831C1072.96 247.499 1083.68 263.553 1097.21 277.076C1110.73 290.599 1126.78 301.326 1144.45 308.645C1162.12 315.963 1181.06 319.73 1200.18 319.73L1200.18 174.101L1200.18 28.471Z" fill="#121213"/>
<g clip-path="url(#clip0_115_3069)">
<path d="M1154.13 193.326C1157.61 193.326 1160.43 190.516 1160.43 187.05C1160.43 183.584 1157.61 180.774 1154.13 180.774C1150.65 180.774 1147.82 183.584 1147.82 187.05C1147.82 190.516 1150.65 193.326 1154.13 193.326Z" fill="#36363D"/>
<path d="M1127.61 193.326C1131.1 193.326 1133.92 190.516 1133.92 187.05C1133.92 183.584 1131.1 180.774 1127.61 180.774C1124.13 180.774 1121.31 183.584 1121.31 187.05C1121.31 190.516 1124.13 193.326 1127.61 193.326Z" fill="#36363D"/>
<path d="M1126.06 167.189C1129.54 167.189 1132.36 164.379 1132.36 160.913C1132.36 157.447 1129.54 154.637 1126.06 154.637C1122.58 154.637 1119.76 157.447 1119.76 160.913C1119.76 164.379 1122.58 167.189 1126.06 167.189Z" fill="#36363D"/>
<path d="M1154.13 167.189C1157.61 167.189 1160.43 164.379 1160.43 160.913C1160.43 157.447 1157.61 154.637 1154.13 154.637C1150.65 154.637 1147.82 157.447 1147.82 160.913C1147.82 164.379 1150.65 167.189 1154.13 167.189Z" fill="#36363D"/>
<path d="M1167.34 167.791C1166.97 167.791 1166.61 167.824 1166.26 167.884C1166.25 167.884 1166.24 167.887 1166.23 167.889C1165.93 167.942 1165.63 168.018 1165.35 168.113C1163.99 168.515 1162.55 169.201 1161.04 170.089C1156.87 173.019 1152.79 173.507 1147.82 170.669C1143.7 167.875 1141.65 163.618 1142.64 158.375C1143.27 155.344 1145.32 153.667 1146.53 150.337H1146.53C1146.89 149.55 1147.09 148.677 1147.09 147.756C1147.09 144.29 1144.27 141.48 1140.78 141.48C1137.3 141.48 1134.48 144.29 1134.48 147.756C1134.48 148.893 1134.79 149.96 1135.32 150.88H1135.32C1136.87 153.962 1138.35 155.709 1138.85 157.783C1140 163.213 1138.35 167.106 1134.99 170.06C1128.24 175.173 1122.59 171.38 1117.94 168.76C1116.97 168.148 1115.81 167.791 1114.57 167.791C1111.09 167.791 1108.27 170.6 1108.27 174.067C1108.27 177.533 1111.09 180.343 1114.57 180.343C1115.71 180.343 1116.77 180.044 1117.69 179.522C1122.43 177.084 1123.76 175.314 1128.27 175.538C1134.13 176.103 1137.87 179.359 1139.15 185.416C1140.13 190.134 1137.27 192.719 1135.12 197.46C1135.05 197.581 1135 197.706 1134.95 197.832C1134.95 197.836 1134.95 197.839 1134.94 197.844C1134.65 198.573 1134.48 199.369 1134.48 200.204C1134.48 203.67 1137.3 206.48 1140.79 206.48C1144.27 206.48 1147.09 203.67 1147.09 200.204C1147.09 199.668 1147.02 199.148 1146.9 198.651C1146.9 198.651 1146.9 198.649 1146.9 198.648C1146.74 198.046 1146.5 197.479 1146.19 196.96C1144.38 193.276 1141.47 190.371 1142.47 184.92C1143.9 179.246 1148.8 175.635 1153.78 175.528C1158.77 175.4 1161 178.716 1165.43 180.047C1165.46 180.054 1165.48 180.064 1165.51 180.071C1165.52 180.074 1165.53 180.077 1165.54 180.08C1166.11 180.249 1166.72 180.341 1167.34 180.341C1170.83 180.341 1173.65 177.532 1173.65 174.065C1173.65 170.599 1170.83 167.789 1167.34 167.789L1167.34 167.791Z" fill="#36363D"/>
</g>
</g>
<mask id="mask1_115_3069" style="mask-type:alpha" maskUnits="userSpaceOnUse" x="1" y="3" width="223" height="344">
<path d="M0.999924 342.863C22.2741 342.863 117.345 351.004 137 342.863C156.655 334.722 170.508 305.458 185.551 290.414C200.594 275.371 202.527 257.513 210.668 237.858C218.81 218.203 223 197.137 223 175.863C223 154.589 224.641 126.018 216.5 106.363C208.359 86.7084 200.594 76.3549 185.551 61.3118C170.508 46.2687 161.655 17.5045 142 9.36325C19 3.48143 6 -3.01878 0.999954 13.8631L0.999977 175.863L0.999924 342.863Z" fill="#1F1F21"/>
</mask>
<g mask="url(#mask1_115_3069)">
<path d="M0.999986 337.863C22.2741 337.863 43.34 333.673 62.9947 325.531C82.6494 317.39 100.508 305.457 115.551 290.414C130.594 275.371 142.527 257.512 150.668 237.857C158.81 218.203 163 197.137 163 175.863C163 154.589 158.81 133.523 150.668 113.868C142.527 94.2133 130.594 76.3546 115.551 61.3115C100.508 46.2684 82.6495 34.3356 62.9947 26.1943C43.34 18.053 22.2741 13.8628 0.999985 13.8628L0.999993 175.863L0.999986 337.863Z" fill="#1F1F21"/>
<g filter="url(#filter2_f_115_3069)">
<ellipse cx="58" cy="246.363" rx="57.5" ry="57.5" transform="rotate(90 58 246.363)" fill="url(#paint3_linear_115_3069)"/>
</g>
<g filter="url(#filter3_f_115_3069)">
<ellipse cx="40" cy="108.363" rx="58.5" ry="59.5" transform="rotate(90 40 108.363)" fill="url(#paint4_linear_115_3069)"/>
</g>
<path d="M0.317782 321.492C19.4421 321.492 38.3792 317.725 56.0478 310.406C73.7164 303.088 89.7704 292.361 103.293 278.838C116.816 265.315 127.543 249.261 134.862 231.592C142.18 213.924 145.947 194.987 145.947 175.862C145.947 156.738 142.18 137.801 134.862 120.132C127.543 102.464 116.816 86.4097 103.293 72.8868C89.7704 59.3638 73.7164 48.6369 56.0478 41.3183C38.3792 33.9997 19.4421 30.2329 0.31778 30.2329L0.317788 175.862L0.317782 321.492Z" fill="#1F1F21"/>
</g>
<g clip-path="url(#clip1_115_3069)">
<path d="M71.1274 189.905C74.6091 189.905 77.4315 187.095 77.4315 183.629C77.4315 180.163 74.6091 177.353 71.1274 177.353C67.6457 177.353 64.8232 180.163 64.8232 183.629C64.8232 187.095 67.6457 189.905 71.1274 189.905Z" fill="#36363D"/>
<path d="M44.6147 189.905C48.0964 189.905 50.9188 187.095 50.9188 183.629C50.9188 180.163 48.0964 177.353 44.6147 177.353C41.133 177.353 38.3105 180.163 38.3105 183.629C38.3105 187.095 41.133 189.905 44.6147 189.905Z" fill="#36363D"/>
<path d="M43.0593 163.768C46.541 163.768 49.3634 160.958 49.3634 157.492C49.3634 154.026 46.541 151.216 43.0593 151.216C39.5776 151.216 36.7551 154.026 36.7551 157.492C36.7551 160.958 39.5776 163.768 43.0593 163.768Z" fill="#36363D"/>
<path d="M71.1274 163.768C74.6091 163.768 77.4315 160.958 77.4315 157.492C77.4315 154.026 74.6091 151.216 71.1274 151.216C67.6457 151.216 64.8232 154.026 64.8232 157.492C64.8232 160.958 67.6457 163.768 71.1274 163.768Z" fill="#36363D"/>
<path d="M84.3417 164.37C83.9733 164.37 83.6142 164.403 83.2628 164.463C83.2535 164.463 83.2427 164.466 83.2335 164.468C82.9298 164.522 82.6323 164.597 82.3456 164.692C80.9893 165.094 79.545 165.78 78.0376 166.668C73.8651 169.598 69.7898 170.086 64.8235 167.248C60.7004 164.454 58.6488 160.197 59.6415 154.954C60.2673 151.923 62.3188 150.246 63.5319 146.916H63.5303C63.8879 146.129 64.0883 145.256 64.0883 144.335C64.0883 140.869 61.2661 138.059 57.7841 138.059C54.3022 138.059 51.48 140.869 51.48 144.335C51.48 145.472 51.7852 146.539 52.3169 147.459H52.3154C53.8691 150.541 55.3519 152.289 55.8544 154.362C57.0042 159.792 55.3534 163.685 51.9886 166.639C45.2437 171.752 39.59 167.959 34.9412 165.339C33.9671 164.727 32.8126 164.37 31.5749 164.37C28.093 164.37 25.2708 167.179 25.2708 170.646C25.2708 174.112 28.093 176.922 31.5749 176.922C32.7093 176.922 33.7713 176.623 34.6915 176.101C39.4312 173.663 40.7583 171.893 45.2729 172.117C51.1347 172.682 54.8679 175.938 56.1457 181.995C57.1275 186.714 54.2714 189.298 52.115 194.039C52.0549 194.16 52.001 194.285 51.9501 194.411C51.9486 194.415 51.947 194.418 51.9439 194.423C51.6464 195.152 51.4815 195.948 51.4815 196.783C51.4815 200.249 54.3037 203.059 57.7857 203.059C61.2676 203.059 64.0898 200.249 64.0898 196.783C64.0898 196.247 64.022 195.727 63.8956 195.23C63.8956 195.23 63.8956 195.229 63.8956 195.227C63.7415 194.625 63.4995 194.058 63.185 193.539C61.3786 189.855 58.4731 186.95 59.4704 181.499C60.8961 175.825 65.7961 172.214 70.7839 172.107C75.7733 171.979 78.0036 175.295 82.4304 176.626C82.4566 176.633 82.4828 176.643 82.509 176.65C82.5198 176.653 82.5291 176.656 82.5399 176.659C83.1117 176.828 83.7159 176.92 84.3433 176.92C87.8252 176.92 90.6474 174.111 90.6474 170.644C90.6474 167.178 87.8252 164.368 84.3433 164.368L84.3417 164.37Z" fill="#36363D"/>
</g>
<line x1="314.646" y1="346.128" x2="657.646" y2="3.12789" stroke="#1F1F21"/>
<line x1="389.646" y1="346.128" x2="732.646" y2="3.12789" stroke="#1F1F21"/>
<line x1="339.646" y1="347.128" x2="682.646" y2="4.12789" stroke="#1F1F21"/>
<line x1="414.646" y1="347.128" x2="757.646" y2="4.12789" stroke="#1F1F21"/>
<line x1="364.646" y1="347.128" x2="707.646" y2="4.12789" stroke="#1F1F21"/>
<line x1="439.646" y1="347.128" x2="782.646" y2="4.12789" stroke="#1F1F21"/>
<line x1="464.646" y1="347.128" x2="807.646" y2="4.12789" stroke="#1F1F21"/>
<line x1="489.646" y1="347.128" x2="832.646" y2="4.12789" stroke="#1F1F21"/>
<line x1="514.646" y1="347.128" x2="857.646" y2="4.12789" stroke="#1F1F21"/>
<line x1="539.646" y1="347.128" x2="882.646" y2="4.12789" stroke="#1F1F21"/>
<line x1="564.646" y1="347.128" x2="907.646" y2="4.12789" stroke="#1F1F21"/>
<defs>
<filter id="filter0_f_115_3069" x="1027.7" y="-11.1967" width="229.594" height="229.594" filterUnits="userSpaceOnUse" color-interpolation-filters="sRGB">
<feFlood flood-opacity="0" result="BackgroundImageFix"/>
<feBlend mode="normal" in="SourceGraphic" in2="BackgroundImageFix" result="shape"/>
<feGaussianBlur stdDeviation="28.6484" result="effect1_foregroundBlur_115_3069"/>
</filter>
<filter id="filter1_f_115_3069" x="1043.7" y="125.803" width="233.594" height="231.594" filterUnits="userSpaceOnUse" color-interpolation-filters="sRGB">
<feFlood flood-opacity="0" result="BackgroundImageFix"/>
<feBlend mode="normal" in="SourceGraphic" in2="BackgroundImageFix" result="shape"/>
<feGaussianBlur stdDeviation="28.6484" result="effect1_foregroundBlur_115_3069"/>
</filter>
<filter id="filter2_f_115_3069" x="-56.7968" y="131.566" width="229.594" height="229.594" filterUnits="userSpaceOnUse" color-interpolation-filters="sRGB">
<feFlood flood-opacity="0" result="BackgroundImageFix"/>
<feBlend mode="normal" in="SourceGraphic" in2="BackgroundImageFix" result="shape"/>
<feGaussianBlur stdDeviation="28.6484" result="effect1_foregroundBlur_115_3069"/>
</filter>
<filter id="filter3_f_115_3069" x="-76.7968" y="-7.43356" width="233.594" height="231.594" filterUnits="userSpaceOnUse" color-interpolation-filters="sRGB">
<feFlood flood-opacity="0" result="BackgroundImageFix"/>
<feBlend mode="normal" in="SourceGraphic" in2="BackgroundImageFix" result="shape"/>
<feGaussianBlur stdDeviation="28.6484" result="effect1_foregroundBlur_115_3069"/>
</filter>
<linearGradient id="paint0_linear_115_3069" x1="600" y1="350.061" x2="600" y2="5.89387" gradientUnits="userSpaceOnUse">
<stop stop-color="#1F1F21"/>
<stop offset="1" stop-color="#1F1F21" stop-opacity="0"/>
</linearGradient>
<linearGradient id="paint1_linear_115_3069" x1="1084.5" y1="51.3274" x2="1212.79" y2="69.1763" gradientUnits="userSpaceOnUse">
<stop stop-color="#FFD800"/>
<stop offset="1" stop-color="#A6FB00"/>
</linearGradient>
<linearGradient id="paint2_linear_115_3069" x1="1101.49" y1="187.509" x2="1232.09" y2="205.374" gradientUnits="userSpaceOnUse">
<stop stop-color="#FFD800"/>
<stop offset="1" stop-color="#A6FB00"/>
</linearGradient>
<linearGradient id="paint3_linear_115_3069" x1="-2.47342e-06" y1="194.09" x2="128.289" y2="211.939" gradientUnits="userSpaceOnUse">
<stop stop-color="#FFD800"/>
<stop offset="1" stop-color="#A6FB00"/>
</linearGradient>
<linearGradient id="paint4_linear_115_3069" x1="-19.0087" y1="54.2724" x2="111.594" y2="72.1378" gradientUnits="userSpaceOnUse">
<stop stop-color="#FFD800"/>
<stop offset="1" stop-color="#A6FB00"/>
</linearGradient>
<clipPath id="clip0_115_3069">
<rect width="69" height="65" fill="white" transform="translate(1106 141.481)"/>
</clipPath>
<clipPath id="clip1_115_3069">
<rect width="69" height="65" fill="white" transform="translate(23 138.061)"/>
</clipPath>
</defs>
</svg>
