<svg width="118" height="36" viewBox="0 0 118 36" fill="none" xmlns="http://www.w3.org/2000/svg">
<path d="M44.1637 8.76019H47.7114V27.863H44.1637V8.76019Z" fill="#C3C3CA"/>
<path d="M59.4552 13.1266C61.2927 13.1266 62.7665 13.6633 63.8762 14.7367C64.9859 15.8101 65.5407 17.402 65.5407 19.5124V27.863H62.1296V19.9492C62.1296 18.6755 61.8294 17.7204 61.2289 17.0836C60.6287 16.4287 59.7736 16.1012 58.6639 16.1012C57.4084 16.1012 56.4167 16.4833 55.6893 17.2474C54.9615 17.9933 54.5974 19.0759 54.5974 20.4948V27.863H51.1863V13.2903H54.4337V15.1733C54.9978 14.5002 55.7075 13.9908 56.5626 13.6451C57.4177 13.2994 58.3819 13.1266 59.4552 13.1266Z" fill="#C3C3CA"/>
<path d="M81.8824 13.2903L75.6328 27.8629H72.1126L65.863 13.2903H69.4107L73.9408 24.097L78.6075 13.2903H81.8824Z" fill="#C3C3CA"/>
<path d="M95.9495 20.6585C95.9495 20.8952 95.9313 21.2315 95.8949 21.6683H84.4602C84.6606 22.7417 85.1791 23.5968 86.016 24.2336C86.8711 24.8523 87.9262 25.1615 89.1814 25.1615C90.7825 25.1615 92.1015 24.6337 93.1385 23.5786L94.9671 25.68C94.312 26.4623 93.484 27.0535 92.4834 27.4536C91.4828 27.8541 90.3549 28.0541 89.0998 28.0541C87.4987 28.0541 86.0887 27.7357 84.8696 27.0992C83.6507 26.4623 82.7047 25.5798 82.0315 24.4519C81.3764 23.3058 81.0491 22.0139 81.0491 20.5768C81.0491 19.1576 81.3675 17.8841 82.0044 16.7562C82.6591 15.61 83.5598 14.7185 84.7059 14.0817C85.852 13.445 87.1439 13.1266 88.5809 13.1266C90.0001 13.1266 91.2646 13.445 92.3743 14.0817C93.5022 14.7003 94.3755 15.5827 94.9942 16.7288C95.631 17.8568 95.9495 19.1669 95.9495 20.6585ZM88.5809 15.8556C87.4894 15.8556 86.5616 16.183 85.7974 16.838C85.0514 17.4748 84.5968 18.33 84.4331 19.4033H92.702C92.5562 18.3481 92.1104 17.493 91.3648 16.838C90.6188 16.183 89.691 15.8556 88.5809 15.8556Z" fill="#C3C3CA"/>
<path d="M101.109 15.4189C102.092 13.8907 103.82 13.3994 106.294 13.3994V16.1284C106.003 16.0738 105.739 16.0466 105.503 16.0466C104.175 16.0466 103.137 16.6833 102.392 17.4656C101.646 18.2297 101.273 19.3394 101.273 20.795V27.8629H97.8613V13.2903H101.109V15.4189Z" fill="#C3C3CA"/>
<path d="M117.803 27.0717C117.402 27.3991 116.911 27.6448 116.329 27.8084C115.765 27.9725 115.165 28.0541 114.528 28.0541C112.927 28.0541 111.69 27.6358 110.817 26.7989C109.943 25.962 109.507 24.7429 109.507 23.1421V16.1285H107.105V13.3995H109.507V10.0701H112.918V13.3995H116.82V16.1285H112.918V23.0601C112.918 23.7697 113.091 24.3153 113.436 24.6976C113.782 25.0613 114.282 25.2435 114.937 25.2435C115.701 25.2435 116.338 25.0431 116.848 24.643L117.803 27.0717Z" fill="#C3C3CA"/>
<path fill-rule="evenodd" clip-rule="evenodd" d="M35.2419 18.368C35.2419 28.0332 27.4071 35.868 17.7419 35.868C8.07697 35.868 0.241943 28.0332 0.241943 18.368C0.241943 8.70307 8.07697 0.868042 17.7419 0.868042C27.4071 0.868042 35.2419 8.70307 35.2419 18.368ZM29.7421 18.368C29.7421 24.9954 24.3696 30.3679 17.7423 30.3679C17.2828 30.3679 16.8292 30.3422 16.3832 30.2921C22.4141 29.6583 27.1144 24.5572 27.1144 18.3581C27.1144 12.1903 22.4608 7.10923 16.4734 6.43435C16.8903 6.39053 17.3137 6.36805 17.7423 6.36805C24.3696 6.36805 29.7421 11.7407 29.7421 18.368ZM13.8669 26.8205C17.8219 26.1219 20.8302 22.6034 20.8302 18.368C20.8302 14.1326 17.8219 10.614 13.8669 9.91561C14.3455 9.83278 14.8377 9.78961 15.3399 9.78961C20.0777 9.78961 23.9184 13.6303 23.9184 18.368C23.9184 23.1057 20.0777 26.9465 15.3399 26.9465C14.8377 26.9465 14.3455 26.9032 13.8669 26.8205Z" fill="#C3C3CA"/>
</svg>
