<svg width="146" height="34" viewBox="0 0 146 34" fill="none" xmlns="http://www.w3.org/2000/svg">
<g clip-path="url(#clip0_137_60)">
<path d="M24.3697 26.3693C26.1327 26.3693 27.5619 24.9401 27.5619 23.1771C27.5619 21.4141 26.1327 19.985 24.3697 19.985C22.6067 19.985 21.1776 21.4141 21.1776 23.1771C21.1776 24.9401 22.6067 26.3693 24.3697 26.3693Z" fill="url(#paint0_linear_137_60)"/>
<path d="M10.9447 26.3693C12.7077 26.3693 14.1369 24.9401 14.1369 23.1771C14.1369 21.4141 12.7077 19.985 10.9447 19.985C9.18174 19.985 7.75256 21.4141 7.75256 23.1771C7.75256 24.9401 9.18174 26.3693 10.9447 26.3693Z" fill="url(#paint1_linear_137_60)"/>
<path d="M10.1573 13.0754C11.9202 13.0754 13.3494 11.6462 13.3494 9.8832C13.3494 8.12022 11.9202 6.69104 10.1573 6.69104C8.39427 6.69104 6.96509 8.12022 6.96509 9.8832C6.96509 11.6462 8.39427 13.0754 10.1573 13.0754Z" fill="url(#paint2_linear_137_60)"/>
<path d="M24.3697 13.0754C26.1327 13.0754 27.5619 11.6462 27.5619 9.8832C27.5619 8.12022 26.1327 6.69104 24.3697 6.69104C22.6067 6.69104 21.1776 8.12022 21.1776 9.8832C21.1776 11.6462 22.6067 13.0754 24.3697 13.0754Z" fill="url(#paint3_linear_137_60)"/>
<path d="M31.0609 13.3813C30.8744 13.3813 30.6925 13.3984 30.5146 13.4289C30.5099 13.4289 30.5044 13.4304 30.4997 13.4312C30.346 13.4585 30.1953 13.4968 30.0502 13.5452C29.3634 13.7496 28.632 14.0985 27.8687 14.5504C25.756 16.0404 23.6924 16.2885 21.1777 14.8454C19.0899 13.4242 18.0511 11.2591 18.5537 8.59223C18.8706 7.05078 19.9094 6.19772 20.5236 4.50408H20.5229C20.7039 4.10369 20.8054 3.6596 20.8054 3.19131C20.8054 1.4282 19.3763 -0.000854492 17.6132 -0.000854492C15.8501 -0.000854492 14.4211 1.4282 14.4211 3.19131C14.4211 3.76964 14.5756 4.31208 14.8449 4.78037H14.8441C15.6308 6.34757 16.3816 7.23654 16.6361 8.29097C17.2183 11.0531 16.3824 13.0332 14.6786 14.5356C11.2632 17.1361 8.40044 15.2068 6.04651 13.8745C5.55325 13.5631 4.96867 13.3813 4.34194 13.3813C2.57884 13.3813 1.14978 14.8103 1.14978 16.5734C1.14978 18.3365 2.57884 19.7656 4.34194 19.7656C4.91638 19.7656 5.45413 19.6134 5.92007 19.348C8.32005 18.1078 8.99204 17.208 11.2781 17.3219C14.2462 17.6091 16.1366 19.2653 16.7836 22.3459C17.2807 24.7458 15.8345 26.0602 14.7426 28.4718C14.7122 28.5335 14.6849 28.5967 14.6591 28.6607C14.6583 28.6631 14.6575 28.6646 14.656 28.667C14.5054 29.0377 14.4218 29.4428 14.4218 29.8673C14.4218 31.6304 15.8509 33.0595 17.614 33.0595C19.3771 33.0595 20.8062 31.6304 20.8062 29.8673C20.8062 29.595 20.7718 29.3304 20.7078 29.0775C20.7078 29.0775 20.7078 29.0767 20.7078 29.0759C20.6298 28.77 20.5072 28.4812 20.348 28.2174C19.4333 26.3435 17.9621 24.866 18.4671 22.0938C19.189 19.2075 21.6702 17.3711 24.1958 17.3164C26.7222 17.2517 27.8516 18.9383 30.0931 19.615C30.1064 19.6189 30.1196 19.6235 30.1329 19.6274C30.1384 19.629 30.1431 19.6306 30.1485 19.6321C30.4381 19.718 30.744 19.7648 31.0617 19.7648C32.8248 19.7648 34.2538 18.3357 34.2538 16.5726C34.2538 14.8095 32.8248 13.3805 31.0617 13.3805L31.0609 13.3813Z" fill="#EAEAED"/>
</g>
<path d="M55.4046 8.98578V24.6007H52.8885L45.5309 13.9646H45.4013V24.6007H42.5726V8.98578H45.104L52.4539 19.6295H52.5912V8.98578H55.4046Z" fill="#EAEAED"/>
<path d="M63.12 24.8294C61.9459 24.8294 60.9318 24.5854 60.0779 24.0975C59.229 23.6044 58.5759 22.9081 58.1184 22.0084C57.6609 21.1036 57.4322 20.0387 57.4322 18.8137C57.4322 17.6091 57.6609 16.5518 58.1184 15.6419C58.5809 14.727 59.2265 14.0154 60.055 13.5071C60.8835 12.9937 61.8569 12.737 62.9752 12.737C63.697 12.737 64.3781 12.8539 65.0185 13.0877C65.6641 13.3165 66.2334 13.6723 66.7264 14.1552C67.2245 14.6381 67.6159 15.2531 67.9006 16.0003C68.1852 16.7424 68.3275 17.6268 68.3275 18.6536V19.4999H58.7283V17.6395H65.6819C65.6768 17.1109 65.5624 16.6407 65.3388 16.229C65.1151 15.8122 64.8025 15.4844 64.4009 15.2455C64.0045 15.0066 63.5419 14.8871 63.0133 14.8871C62.4491 14.8871 61.9535 15.0244 61.5265 15.2988C61.0996 15.5682 60.7666 15.924 60.5277 16.3663C60.2939 16.8034 60.1745 17.2837 60.1694 17.8073V19.4313C60.1694 20.1124 60.2939 20.697 60.543 21.1849C60.792 21.6678 61.1402 22.0389 61.5875 22.2981C62.0348 22.5522 62.5584 22.6793 63.1582 22.6793C63.5597 22.6793 63.9231 22.6234 64.2485 22.5116C64.5738 22.3947 64.8559 22.2244 65.0948 22.0007C65.3337 21.7771 65.5141 21.5001 65.6361 21.1697L68.2132 21.4594C68.0505 22.1405 67.7405 22.7352 67.283 23.2435C66.8306 23.7467 66.2512 24.1381 65.5446 24.4177C64.8381 24.6922 64.0299 24.8294 63.12 24.8294Z" fill="#EAEAED"/>
<path d="M76.0811 12.8895V15.0244H69.3487V12.8895H76.0811ZM71.0108 10.0837H73.7709V21.0782C73.7709 21.4492 73.8268 21.7339 73.9386 21.9321C74.0555 22.1253 74.208 22.2574 74.3961 22.3286C74.5842 22.3998 74.7926 22.4353 75.0213 22.4353C75.1941 22.4353 75.3517 22.4226 75.494 22.3972C75.6414 22.3718 75.7532 22.3489 75.8295 22.3286L76.2946 24.4863C76.1472 24.5372 75.9362 24.5931 75.6618 24.6541C75.3924 24.7151 75.062 24.7506 74.6706 24.7608C73.9793 24.7811 73.3566 24.6769 72.8026 24.4482C72.2485 24.2144 71.8089 23.8535 71.4835 23.3655C71.1633 22.8776 71.0057 22.2676 71.0108 21.5357V10.0837Z" fill="#EAEAED"/>
<path d="M88.5428 13.9722C88.4157 13.5605 88.2403 13.1919 88.0167 12.8666C87.7981 12.5362 87.5338 12.2541 87.2237 12.0203C86.9187 11.7865 86.568 11.6111 86.1715 11.4942C85.7751 11.3722 85.343 11.3112 84.8754 11.3112C84.0367 11.3112 83.2895 11.5222 82.6338 11.9441C81.9781 12.366 81.4622 12.9861 81.086 13.8044C80.715 14.6177 80.5294 15.6089 80.5294 16.778C80.5294 17.9572 80.715 18.956 81.086 19.7744C81.4571 20.5928 81.973 21.2154 82.6338 21.6424C83.2946 22.0643 84.0621 22.2752 84.9364 22.2752C85.7293 22.2752 86.4155 22.1227 86.995 21.8178C87.5795 21.5128 88.0294 21.0807 88.3445 20.5216C88.6597 19.9574 88.8172 19.2966 88.8172 18.5392L89.4577 18.6384H85.2185V16.4273H91.5544V18.3029C91.5544 19.6397 91.2698 20.7961 90.7005 21.772C90.1312 22.7479 89.3484 23.5002 88.3521 24.0289C87.3559 24.5524 86.2122 24.8142 84.9211 24.8142C83.4827 24.8142 82.2195 24.4914 81.1318 23.8459C80.0491 23.1952 79.2028 22.2727 78.5928 21.0782C77.9879 19.8786 77.6855 18.4554 77.6855 16.8085C77.6855 15.5479 77.8634 14.422 78.2192 13.4308C78.5801 12.4397 79.0833 11.5984 79.7289 10.9071C80.3744 10.2108 81.1318 9.68215 82.001 9.32126C82.8701 8.95528 83.8156 8.77229 84.8373 8.77229C85.7014 8.77229 86.507 8.89937 87.2542 9.15352C88.0014 9.40258 88.6647 9.75839 89.2442 10.2209C89.8287 10.6835 90.3091 11.2325 90.6852 11.8678C91.0614 12.5032 91.3079 13.2047 91.4248 13.9722H88.5428Z" fill="#EAEAED"/>
<path d="M98.9229 24.8294C97.7488 24.8294 96.7347 24.5854 95.8808 24.0975C95.0319 23.6044 94.3787 22.9081 93.9213 22.0084C93.4638 21.1036 93.2351 20.0387 93.2351 18.8137C93.2351 17.6091 93.4638 16.5518 93.9213 15.6419C94.3838 14.727 95.0294 14.0154 95.8579 13.5071C96.6864 12.9937 97.6598 12.737 98.7781 12.737C99.4998 12.737 100.181 12.8539 100.821 13.0877C101.467 13.3165 102.036 13.6723 102.529 14.1552C103.027 14.6381 103.419 15.2531 103.703 16.0003C103.988 16.7424 104.13 17.6268 104.13 18.6536V19.4999H94.5312V17.6395H101.485C101.48 17.1109 101.365 16.6407 101.142 16.229C100.918 15.8122 100.605 15.4844 100.204 15.2455C99.8074 15.0066 99.3448 14.8871 98.8162 14.8871C98.252 14.8871 97.7564 15.0244 97.3294 15.2988C96.9024 15.5682 96.5695 15.924 96.3306 16.3663C96.0968 16.8034 95.9773 17.2837 95.9723 17.8073V19.4313C95.9723 20.1124 96.0968 20.697 96.3459 21.1849C96.5949 21.6678 96.9431 22.0389 97.3904 22.2981C97.8377 22.5522 98.3613 22.6793 98.9611 22.6793C99.3626 22.6793 99.726 22.6234 100.051 22.5116C100.377 22.3947 100.659 22.2244 100.898 22.0007C101.137 21.7771 101.317 21.5001 101.439 21.1697L104.016 21.4594C103.853 22.1405 103.543 22.7352 103.086 23.2435C102.634 23.7467 102.054 24.1381 101.348 24.4177C100.641 24.6922 99.8328 24.8294 98.9229 24.8294Z" fill="#EAEAED"/>
<path d="M108.796 17.7387V24.6007H106.036V12.8895H108.674V14.8795H108.811C109.081 14.2238 109.51 13.7028 110.1 13.3165C110.695 12.9302 111.429 12.737 112.303 12.737C113.112 12.737 113.816 12.9098 114.415 13.2555C115.02 13.6011 115.488 14.1018 115.818 14.7575C116.154 15.4132 116.319 16.2087 116.314 17.144V24.6007H113.554V17.5709C113.554 16.7882 113.35 16.1757 112.944 15.7334C112.542 15.2912 111.986 15.0701 111.274 15.0701C110.791 15.0701 110.362 15.1768 109.986 15.3903C109.614 15.5987 109.322 15.9012 109.109 16.2976C108.9 16.6941 108.796 17.1745 108.796 17.7387Z" fill="#EAEAED"/>
<path d="M118.69 24.6007V12.8895H121.45V24.6007H118.69ZM120.078 11.2274C119.641 11.2274 119.265 11.0825 118.949 10.7928C118.634 10.498 118.477 10.1447 118.477 9.73298C118.477 9.31617 118.634 8.96291 118.949 8.67318C119.265 8.37836 119.641 8.23096 120.078 8.23096C120.52 8.23096 120.896 8.37836 121.206 8.67318C121.521 8.96291 121.679 9.31617 121.679 9.73298C121.679 10.1447 121.521 10.498 121.206 10.7928C120.896 11.0825 120.52 11.2274 120.078 11.2274Z" fill="#EAEAED"/>
<path d="M131.323 19.6753V12.8895H134.083V24.6007H131.407V22.5192H131.285C131.021 23.1749 130.586 23.7112 129.982 24.128C129.382 24.5448 128.642 24.7532 127.763 24.7532C126.995 24.7532 126.317 24.5829 125.727 24.2423C125.143 23.8967 124.685 23.396 124.355 22.7403C124.024 22.0795 123.859 21.2815 123.859 20.3462V12.8895H126.619V19.9193C126.619 20.6614 126.822 21.251 127.229 21.6881C127.636 22.1253 128.169 22.3438 128.83 22.3438C129.237 22.3438 129.631 22.2447 130.012 22.0465C130.393 21.8483 130.706 21.5534 130.95 21.1621C131.199 20.7656 131.323 20.27 131.323 19.6753Z" fill="#EAEAED"/>
<path d="M145.748 15.985L143.232 16.2595C143.161 16.0054 143.037 15.7665 142.859 15.5428C142.686 15.3192 142.452 15.1387 142.157 15.0015C141.862 14.8642 141.502 14.7956 141.075 14.7956C140.5 14.7956 140.017 14.9202 139.626 15.1692C139.24 15.4183 139.049 15.7411 139.054 16.1375C139.049 16.4781 139.174 16.7551 139.428 16.9686C139.687 17.1821 140.114 17.3574 140.709 17.4947L142.706 17.9217C143.814 18.1606 144.638 18.5392 145.177 19.0577C145.72 19.5762 145.995 20.2547 146 21.0934C145.995 21.8305 145.779 22.4811 145.352 23.0453C144.93 23.6044 144.343 24.0416 143.591 24.3567C142.838 24.6719 141.974 24.8294 140.998 24.8294C139.565 24.8294 138.411 24.5295 137.537 23.9297C136.663 23.3249 136.142 22.4836 135.974 21.406L138.665 21.1468C138.787 21.6754 139.046 22.0744 139.443 22.3438C139.839 22.6132 140.355 22.7479 140.991 22.7479C141.646 22.7479 142.172 22.6132 142.569 22.3438C142.971 22.0744 143.171 21.7415 143.171 21.345C143.171 21.0096 143.042 20.7325 142.782 20.514C142.528 20.2954 142.132 20.1277 141.593 20.0108L139.595 19.5914C138.472 19.3576 137.641 18.9637 137.102 18.4096C136.563 17.8505 136.297 17.144 136.302 16.29C136.297 15.5682 136.492 14.943 136.889 14.4144C137.29 13.8807 137.847 13.469 138.558 13.1792C139.275 12.8844 140.101 12.737 141.036 12.737C142.409 12.737 143.489 13.0293 144.277 13.6138C145.07 14.1984 145.56 14.9888 145.748 15.985Z" fill="#EAEAED"/>
<defs>
<linearGradient id="paint0_linear_137_60" x1="21.1498" y1="20.2752" x2="28.2719" y2="21.2661" gradientUnits="userSpaceOnUse">
<stop stop-color="#FFD800"/>
<stop offset="1" stop-color="#A6FB00"/>
</linearGradient>
<linearGradient id="paint1_linear_137_60" x1="7.72481" y1="20.2752" x2="14.8469" y2="21.2661" gradientUnits="userSpaceOnUse">
<stop stop-color="#FFD800"/>
<stop offset="1" stop-color="#A6FB00"/>
</linearGradient>
<linearGradient id="paint2_linear_137_60" x1="6.93733" y1="6.98124" x2="14.0594" y2="7.97214" gradientUnits="userSpaceOnUse">
<stop stop-color="#FFD800"/>
<stop offset="1" stop-color="#A6FB00"/>
</linearGradient>
<linearGradient id="paint3_linear_137_60" x1="21.1498" y1="6.98124" x2="28.2719" y2="7.97214" gradientUnits="userSpaceOnUse">
<stop stop-color="#FFD800"/>
<stop offset="1" stop-color="#A6FB00"/>
</linearGradient>
<clipPath id="clip0_137_60">
<rect width="34.9388" height="33.0604" fill="white"/>
</clipPath>
</defs>
</svg>
