<svg width="50" height="51" viewBox="0 0 50 51" fill="none" xmlns="http://www.w3.org/2000/svg">
<rect y="0.0603638" width="50" height="50" rx="25" fill="url(#paint0_linear_115_5336)"/>
<path fill-rule="evenodd" clip-rule="evenodd" d="M12.5 15.5366C12.5 14.5262 12.9014 13.5572 13.6158 12.8428C14.3302 12.1284 15.2992 11.727 16.3095 11.727H18.0517C19.1438 11.727 20.0962 12.4712 20.3616 13.5302L21.7648 19.1467C21.8785 19.6013 21.8555 20.0794 21.6987 20.521C21.542 20.9626 21.2584 21.3481 20.8835 21.6293L19.2416 22.861C19.0702 22.9893 19.0333 23.1772 19.0816 23.308C19.7983 25.257 20.93 27.027 22.3983 28.4954C23.8667 29.9637 25.6367 31.0954 27.5857 31.8121C27.7165 31.8604 27.9032 31.8235 28.0327 31.6521L29.2644 30.0102C29.5456 29.6353 29.9311 29.3517 30.3727 29.195C30.8143 29.0382 31.2924 29.0152 31.747 29.1289L37.3635 30.5321C38.4225 30.7975 39.1667 31.7499 39.1667 32.8432V34.5842C39.1667 35.5945 38.7653 36.5635 38.0509 37.2779C37.3365 37.9923 36.3675 38.3937 35.3571 38.3937H32.5C21.4549 38.3937 12.5 29.4388 12.5 18.3937V15.5366Z" fill="#121213"/>
<defs>
<linearGradient id="paint0_linear_115_5336" x1="-0.217391" y1="2.33309" x2="55.5606" y2="10.0935" gradientUnits="userSpaceOnUse">
<stop stop-color="#FFD800"/>
<stop offset="1" stop-color="#A6FB00"/>
</linearGradient>
</defs>
</svg>
