<svg width="17" height="17" viewBox="0 0 17 17" fill="none" xmlns="http://www.w3.org/2000/svg">
<g clip-path="url(#clip0_22_729)">
<path d="M1.55325 14.0743L4.26313 6.53686C4.32295 6.38132 4.41579 6.26168 4.54165 6.17793C4.66752 6.09418 4.80199 6.05231 4.94509 6.05231C5.0408 6.05231 5.13053 6.07025 5.21428 6.10615C5.29803 6.14204 5.37579 6.19588 5.44758 6.26766L10.293 11.1131C10.3648 11.1849 10.4187 11.2627 10.4546 11.3464C10.4905 11.4302 10.5084 11.5199 10.5084 11.6156C10.5084 11.7592 10.4665 11.8939 10.3828 12.0198C10.299 12.1456 10.1794 12.2382 10.0239 12.2976L2.48646 15.0075C2.34289 15.0673 2.2053 15.0764 2.07369 15.0347C1.94209 14.9931 1.82843 14.9242 1.73272 14.828C1.637 14.7323 1.56809 14.6186 1.52598 14.487C1.48386 14.3554 1.49296 14.2178 1.55325 14.0743ZM16.1435 4.76018C16.0358 4.86786 15.9102 4.9217 15.7666 4.9217C15.6231 4.9217 15.4974 4.86786 15.3898 4.76018L15.3359 4.70634C15.1684 4.53885 14.9591 4.4551 14.7078 4.4551C14.4566 4.4551 14.2472 4.53885 14.0797 4.70634L10.4366 8.34942C10.3289 8.4571 10.2033 8.51094 10.0597 8.51094C9.91618 8.51094 9.79056 8.4571 9.68288 8.34942C9.5752 8.24174 9.52136 8.11612 9.52136 7.97255C9.52136 7.82898 9.5752 7.70336 9.68288 7.59568L13.326 3.95261C13.7088 3.56975 14.1694 3.37833 14.7078 3.37833C15.2462 3.37833 15.7068 3.56975 16.0897 3.95261L16.1435 4.00644C16.2512 4.11412 16.305 4.23974 16.305 4.38331C16.305 4.52688 16.2512 4.65251 16.1435 4.76018ZM6.7756 2.60664C6.88327 2.49896 7.0089 2.44513 7.15247 2.44513C7.29604 2.44513 7.42166 2.49896 7.52934 2.60664L7.61907 2.69637C8.00192 3.07922 8.19335 3.53386 8.19335 4.06028C8.19335 4.5867 8.00192 5.04134 7.61907 5.42419L7.56523 5.47803C7.45755 5.58571 7.33193 5.63955 7.18836 5.63955C7.04479 5.63955 6.91917 5.58571 6.81149 5.47803C6.70381 5.37035 6.64997 5.24473 6.64997 5.10116C6.64997 4.95759 6.70381 4.83197 6.81149 4.72429L6.86533 4.67045C7.03283 4.50296 7.11657 4.29956 7.11657 4.06028C7.11657 3.821 7.03283 3.61761 6.86533 3.45011L6.7756 3.36038C6.66792 3.2527 6.61408 3.12708 6.61408 2.98351C6.61408 2.83994 6.66792 2.71432 6.7756 2.60664ZM9.68288 1.17095C9.79056 1.06327 9.91618 1.00943 10.0597 1.00943C10.2033 1.00943 10.3289 1.06327 10.4366 1.17095L11.2083 1.94263C11.5912 2.32548 11.7826 2.7861 11.7826 3.32449C11.7826 3.86287 11.5912 4.32349 11.2083 4.70634L9.00092 6.91373C8.89325 7.0214 8.76762 7.07524 8.62405 7.07524C8.48048 7.07524 8.35486 7.0214 8.24718 6.91373C8.13951 6.80605 8.08567 6.68043 8.08567 6.53686C8.08567 6.39329 8.13951 6.26766 8.24718 6.15999L10.4546 3.95261C10.6221 3.78511 10.7058 3.57574 10.7058 3.32449C10.7058 3.07324 10.6221 2.86387 10.4546 2.69637L9.68288 1.92469C9.5752 1.81701 9.52136 1.69139 9.52136 1.54782C9.52136 1.40425 9.5752 1.27862 9.68288 1.17095ZM15.4257 9.78512C15.318 9.89279 15.1924 9.94663 15.0488 9.94663C14.9052 9.94663 14.7796 9.89279 14.6719 9.78512L13.9002 9.01343C13.7327 8.84593 13.5234 8.76218 13.2721 8.76218C13.0209 8.76218 12.8115 8.84593 12.644 9.01343L11.8723 9.78512C11.7646 9.89279 11.639 9.94663 11.4954 9.94663C11.3519 9.94663 11.2263 9.89279 11.1186 9.78512C11.0109 9.67744 10.9571 9.55182 10.9571 9.40825C10.9571 9.26468 11.0109 9.13905 11.1186 9.03138L11.8903 8.25969C12.2731 7.87684 12.7337 7.68541 13.2721 7.68541C13.8105 7.68541 14.2711 7.87684 14.654 8.25969L15.4257 9.03138C15.5333 9.13905 15.5872 9.26468 15.5872 9.40825C15.5872 9.55182 15.5333 9.67744 15.4257 9.78512Z" fill="url(#paint0_linear_22_729)"/>
</g>
<defs>
<linearGradient id="paint0_linear_22_729" x1="1.43563" y1="1.64811" x2="17.917" y2="4.06424" gradientUnits="userSpaceOnUse">
<stop stop-color="#FFD800"/>
<stop offset="1" stop-color="#A6FB00"/>
</linearGradient>
<clipPath id="clip0_22_729">
<rect width="16" height="16" fill="white" transform="translate(0.5 0.0603638)"/>
</clipPath>
</defs>
</svg>
