<svg width="60" height="61" viewBox="0 0 60 61" fill="none" xmlns="http://www.w3.org/2000/svg">
<path fill-rule="evenodd" clip-rule="evenodd" d="M15.3408 38.7705C14.9728 38.4032 14.4887 38.1749 13.9712 38.1245C13.4537 38.0741 12.9347 38.2046 12.5027 38.4939C12.0706 38.7832 11.7523 39.2133 11.6018 39.7111C11.4513 40.2088 11.4781 40.7433 11.6775 41.2235C11.8769 41.7037 12.2366 42.0999 12.6954 42.3446C13.1541 42.5893 13.6836 42.6674 14.1935 42.5656C14.7033 42.4637 15.1621 42.1882 15.4917 41.7861C15.8213 41.3839 16.0012 40.8799 16.0008 40.3599C16.0009 40.0646 15.9427 39.7721 15.8294 39.4993C15.7162 39.2266 15.5501 38.9789 15.3408 38.7705ZM47.8386 38.7705C47.4706 38.4032 46.9865 38.1749 46.469 38.1245C45.9515 38.0741 45.4325 38.2046 45.0005 38.4939C44.5684 38.7832 44.2501 39.2133 44.0996 39.7111C43.9491 40.2088 43.9759 40.7433 44.1753 41.2235C44.3747 41.7037 44.7344 42.0999 45.1932 42.3446C45.6519 42.5893 46.1814 42.6674 46.6913 42.5656C47.2011 42.4637 47.6599 42.1882 47.9895 41.7861C48.3191 41.3839 48.499 40.8799 48.4986 40.3599C48.4987 40.0646 48.4405 39.7721 48.3272 39.4993C48.214 39.2266 48.0479 38.9789 47.8386 38.7705ZM12.1134 30.9813C12.1018 31.0662 12.0734 31.1478 12.0298 31.2216C11.9862 31.2953 11.9284 31.3596 11.8596 31.4106C11.7909 31.4617 11.7126 31.4985 11.6295 31.5189C11.5463 31.5393 11.4599 31.5429 11.3753 31.5295C11.2907 31.5161 11.2097 31.4859 11.1369 31.4407C11.0642 31.3956 11.0012 31.3363 10.9516 31.2665C10.902 31.1967 10.8669 31.1176 10.8483 31.034C10.8297 30.9504 10.828 30.864 10.8432 30.7797C11.4956 26.7158 13.4277 22.9662 16.3584 20.0763H15.4452C15.2775 20.0712 15.1183 20.001 15.0015 19.8805C14.8846 19.76 14.8193 19.5988 14.8193 19.431C14.8193 19.2632 14.8846 19.102 15.0015 18.9815C15.1183 18.8611 15.2775 18.7908 15.4452 18.7857H18.0252C18.1964 18.7857 18.3606 18.8537 18.4817 18.9748C18.6028 19.0959 18.6708 19.2601 18.6708 19.4313V22.0113C18.6708 22.1825 18.6028 22.3467 18.4817 22.4678C18.3606 22.5889 18.1964 22.6569 18.0252 22.6569C17.854 22.6569 17.6898 22.5889 17.5687 22.4678C17.4476 22.3467 17.3796 22.1825 17.3796 22.0113V20.8713C16.1578 22.0591 15.1086 23.4122 14.2626 24.8913C13.1842 26.7743 12.4555 28.837 12.1116 30.9795L12.1134 30.9813ZM41.5614 19.9263C41.4359 19.8156 41.3585 19.6604 41.3456 19.4936C41.3327 19.3267 41.3853 19.1614 41.4923 19.0328C41.5992 18.9041 41.7521 18.8222 41.9185 18.8044C42.0849 18.7866 42.2517 18.8344 42.3834 18.9375C44.1798 20.4274 45.694 22.2278 46.854 24.2529C47.7225 25.7711 48.3804 27.4005 48.8094 29.0961L49.2546 28.3245C49.341 28.1797 49.4808 28.0747 49.6439 28.032C49.8071 27.9894 49.9804 28.0125 50.1266 28.0965C50.2728 28.1805 50.3801 28.3186 50.4254 28.481C50.4708 28.6435 50.4504 28.8172 50.3688 28.9647L49.092 31.1769C49.0509 31.2561 48.9938 31.326 48.9243 31.3819C48.8547 31.4378 48.7743 31.4787 48.6881 31.5018C48.6019 31.525 48.5119 31.5299 48.4237 31.5163C48.3355 31.5027 48.251 31.4709 48.1758 31.4229L45.9654 30.1467C45.8206 30.0603 45.7156 29.9205 45.6729 29.7574C45.6303 29.5942 45.6534 29.4209 45.7374 29.2747C45.8214 29.1285 45.9595 29.0212 46.122 28.9759C46.2844 28.9306 46.4581 28.9509 46.6056 29.0325L47.6112 29.6133C47.2121 27.9593 46.5804 26.3703 45.735 24.8937C44.6525 23.0013 43.2389 21.3188 41.5614 19.9263ZM39.429 49.9203C39.4722 49.9653 39.5154 50.0097 39.5592 50.0535C40.4377 50.9321 41.4807 51.629 42.6286 52.1045C43.7765 52.58 45.0068 52.8247 46.2492 52.8247C47.4917 52.8247 48.722 52.58 49.8698 52.1045C51.0177 51.629 52.0607 50.9321 52.9392 50.0535C52.9824 50.0103 53.0256 49.9659 53.0682 49.9215C52.5575 48.5234 51.6294 47.316 50.4096 46.463C49.1899 45.61 47.7374 45.1525 46.2489 45.1525C44.7604 45.1525 43.3079 45.61 42.0882 46.463C40.8684 47.316 39.9403 48.5234 39.4296 49.9215L39.429 49.9203ZM52.9386 36.6753C54.5117 38.2488 55.48 40.3264 55.6732 42.543C55.8664 44.7596 55.2723 46.9733 53.9952 48.7953C53.3355 47.386 52.3041 46.1833 51.0119 45.3164C49.7197 44.4495 48.2156 43.9513 46.6614 43.8753C47.5584 43.7701 48.3812 43.326 48.9615 42.634C49.5417 41.942 49.8356 41.0544 49.7829 40.1528C49.7302 39.2513 49.3349 38.4039 48.6779 37.7843C48.021 37.1646 47.152 36.8194 46.2489 36.8194C45.3458 36.8194 44.4769 37.1646 43.8199 37.7843C43.1629 38.4039 42.7677 39.2513 42.715 40.1528C42.6622 41.0544 42.9561 41.942 43.5364 42.634C44.1166 43.326 44.9395 43.7701 45.8364 43.8753C44.2823 43.9508 42.7782 44.4489 41.4861 45.3159C40.194 46.1828 39.1629 47.3858 38.5038 48.7953C37.1482 46.8573 36.5676 44.4817 36.8765 42.1369C37.1854 39.792 38.3614 37.6479 40.1727 36.127C41.984 34.6062 44.2992 33.8189 46.6622 33.9204C49.0251 34.0219 51.2644 35.0048 52.9386 36.6753ZM6.93121 49.9203C6.97441 49.9653 7.01761 50.0097 7.06141 50.0535C7.93994 50.9321 8.98291 51.629 10.1308 52.1045C11.2787 52.58 12.509 52.8247 13.7514 52.8247C14.9939 52.8247 16.2242 52.58 17.372 52.1045C18.5199 51.629 19.5629 50.9321 20.4414 50.0535C20.4846 50.0103 20.5278 49.9659 20.5704 49.9215C20.0597 48.5234 19.1316 47.316 17.9118 46.463C16.6921 45.61 15.2396 45.1525 13.7511 45.1525C12.2626 45.1525 10.8102 45.61 9.59038 46.463C8.37061 47.316 7.44251 48.5234 6.93181 49.9215L6.93121 49.9203ZM20.4408 36.6753C22.0139 38.2488 22.9822 40.3264 23.1754 42.543C23.3686 44.7596 22.7745 46.9733 21.4974 48.7953C20.8377 47.386 19.8063 46.1833 18.5141 45.3164C17.2219 44.4495 15.7178 43.9513 14.1636 43.8753C15.0606 43.7701 15.8834 43.326 16.4637 42.634C17.0439 41.942 17.3378 41.0544 17.2851 40.1528C17.2324 39.2513 16.8371 38.4039 16.1801 37.7843C15.5232 37.1646 14.6542 36.8194 13.7511 36.8194C12.848 36.8194 11.9791 37.1646 11.3221 37.7843C10.6651 38.4039 10.2699 39.2513 10.2171 40.1528C10.1644 41.0544 10.4583 41.942 11.0386 42.634C11.6189 43.326 12.4417 43.7701 13.3386 43.8753C11.7845 43.9508 10.2804 44.4489 8.98829 45.3159C7.69621 46.1828 6.6651 47.3858 6.00601 48.7953C4.65036 46.8573 4.06977 44.4817 4.37867 42.1369C4.68757 39.792 5.86355 37.6479 7.67486 36.127C9.48617 34.6062 11.8014 33.8189 14.1644 33.9204C16.5273 34.0219 18.7666 35.0048 20.4408 36.6753ZM31.59 10.6293C31.2218 10.2616 30.7374 10.0329 30.2194 9.98231C29.7015 9.93169 29.182 10.0622 28.7495 10.3517C28.317 10.6411 27.9983 11.0716 27.8476 11.5697C27.6969 12.0678 27.7236 12.6028 27.9231 13.0834C28.1226 13.5641 28.4826 13.9607 28.9418 14.2056C29.4009 14.4506 29.9308 14.5288 30.4411 14.4269C30.9515 14.325 31.4107 14.0493 31.7405 13.6467C32.0704 13.2442 32.2504 12.7397 32.25 12.2193C32.2502 11.9239 32.192 11.6313 32.0787 11.3584C31.9655 11.0856 31.7994 10.8378 31.59 10.6293ZM23.1804 21.7803C23.223 21.8253 23.2668 21.8697 23.3106 21.9135C24.1891 22.7922 25.2321 23.4892 26.3799 23.9647C27.5278 24.4402 28.7581 24.685 30.0006 24.685C31.2431 24.685 32.4734 24.4402 33.6213 23.9647C34.7692 23.4892 35.8121 22.7922 36.6906 21.9135C36.7344 21.8697 36.777 21.8259 36.8196 21.7815C36.3088 20.3836 35.3807 19.1765 34.161 18.3236C32.9413 17.4707 31.4889 17.0133 30.0006 17.0133C28.5123 17.0133 27.0599 17.4707 25.8402 18.3236C24.6205 19.1765 23.6924 20.3836 23.1816 21.7815L23.1804 21.7803ZM36.6894 8.53411C38.2623 10.1077 39.2304 12.1853 39.4236 14.4018C39.6169 16.6183 39.0229 18.832 37.746 20.6541C37.0863 19.2448 36.0549 18.0421 34.7627 17.1752C33.4705 16.3083 31.9664 15.8101 30.4122 15.7341C31.3092 15.629 32.1321 15.1849 32.7124 14.4929C33.2927 13.801 33.5867 12.9133 33.534 12.0117C33.4813 11.1102 33.086 10.2628 32.4291 9.64308C31.7721 9.02337 30.9031 8.67819 30 8.67819C29.0969 8.67819 28.2279 9.02337 27.5709 9.64308C26.914 10.2628 26.5187 11.1102 26.466 12.0117C26.4134 12.9133 26.7073 13.801 27.2876 14.4929C27.868 15.1849 28.6908 15.629 29.5878 15.7341C28.0336 15.8097 26.5294 16.3077 25.2373 17.1747C23.9451 18.0416 22.9139 19.2446 22.2546 20.6541C20.899 18.7161 20.3184 16.3405 20.6273 13.9957C20.9362 11.6508 22.1122 9.50669 23.9235 7.98584C25.7348 6.465 28.05 5.67774 30.413 5.77923C32.7759 5.88071 35.0152 6.86357 36.6894 8.53411ZM25.4214 49.6293C25.569 49.5477 25.7427 49.5274 25.9051 49.5727C26.0675 49.618 26.2056 49.7253 26.2896 49.8715C26.3736 50.0177 26.3968 50.1911 26.3541 50.3542C26.3115 50.5173 26.2064 50.6571 26.0616 50.7435L25.0788 51.3111C25.6432 51.4711 26.2186 51.6029 26.805 51.7065C28.9182 52.0801 31.0806 52.0801 33.1938 51.7065C34.2425 51.5199 35.2726 51.2404 36.2718 50.8713C36.4323 50.8124 36.6096 50.8197 36.7647 50.8916C36.9198 50.9634 37.04 51.0939 37.0989 51.2544C37.1578 51.4149 37.1505 51.5922 37.0787 51.7473C37.0068 51.9024 36.8763 52.0226 36.7158 52.0815C35.6445 52.477 34.5401 52.7766 33.4158 52.9767C31.156 53.3771 28.8434 53.3771 26.5836 52.9767C26.0124 52.8747 25.45 52.7483 24.8964 52.5975L25.3536 53.3895C25.3972 53.4627 25.4259 53.5438 25.438 53.6281C25.45 53.7124 25.4452 53.7983 25.4239 53.8808C25.4025 53.9633 25.3649 54.0407 25.3134 54.1085C25.2619 54.1764 25.1975 54.2333 25.1238 54.2761C25.0501 54.3188 24.9687 54.3465 24.8842 54.3576C24.7997 54.3686 24.7139 54.3628 24.6317 54.3405C24.5495 54.3181 24.4725 54.2797 24.4053 54.2273C24.3381 54.175 24.2819 54.1099 24.24 54.0357L22.962 51.8223C22.9132 51.7455 22.8812 51.6593 22.8682 51.5693C22.8551 51.4792 22.8613 51.3874 22.8863 51.3C22.9113 51.2125 22.9545 51.1313 23.0132 51.0618C23.0719 50.9922 23.1446 50.9359 23.2266 50.8965L25.4214 49.6293Z" fill="#A6FB00"/>
</svg>
