<svg width="31" height="31" viewBox="0 0 31 31" fill="none" xmlns="http://www.w3.org/2000/svg">
<path d="M5.5 17.1182H13C13.6875 17.1182 14.25 16.5557 14.25 15.8682V5.86816C14.25 5.18066 13.6875 4.61816 13 4.61816H5.5C4.8125 4.61816 4.25 5.18066 4.25 5.86816V15.8682C4.25 16.5557 4.8125 17.1182 5.5 17.1182ZM5.5 27.1182H13C13.6875 27.1182 14.25 26.5557 14.25 25.8682V20.8682C14.25 20.1807 13.6875 19.6182 13 19.6182H5.5C4.8125 19.6182 4.25 20.1807 4.25 20.8682V25.8682C4.25 26.5557 4.8125 27.1182 5.5 27.1182ZM18 27.1182H25.5C26.1875 27.1182 26.75 26.5557 26.75 25.8682V15.8682C26.75 15.1807 26.1875 14.6182 25.5 14.6182H18C17.3125 14.6182 16.75 15.1807 16.75 15.8682V25.8682C16.75 26.5557 17.3125 27.1182 18 27.1182ZM16.75 5.86816V10.8682C16.75 11.5557 17.3125 12.1182 18 12.1182H25.5C26.1875 12.1182 26.75 11.5557 26.75 10.8682V5.86816C26.75 5.18066 26.1875 4.61816 25.5 4.61816H18C17.3125 4.61816 16.75 5.18066 16.75 5.86816Z" fill="#C3C3CA"/>
</svg>
