<svg width="50" height="51" viewBox="0 0 50 51" fill="none" xmlns="http://www.w3.org/2000/svg">
<rect y="0.0603638" width="50" height="50" rx="25" fill="url(#paint0_linear_115_5325)"/>
<path d="M12.2617 20.7747V31.3594C12.2617 32.341 12.6595 33.2823 13.3675 33.9764C14.0756 34.6705 15.0359 35.0604 16.0372 35.0604H34.9148C35.9161 35.0604 36.8764 34.6705 37.5845 33.9764C38.2925 33.2823 38.6903 32.341 38.6903 31.3594V20.7747L27.4544 27.5511C26.8594 27.9099 26.1746 28.0999 25.476 28.0999C24.7775 28.0999 24.0926 27.9099 23.4976 27.5511L12.2617 20.7747Z" fill="#121213"/>
<path d="M38.6903 18.2026V18.0097C38.6903 17.038 38.2925 16.1062 37.5845 15.4191C36.8764 14.7321 35.9161 14.3461 34.9148 14.3461H16.0372C15.0359 14.3461 14.0756 14.7321 13.3675 15.4191C12.6595 16.1062 12.2617 17.038 12.2617 18.0097V18.2026L24.4868 25.503C24.7843 25.6806 25.1267 25.7746 25.476 25.7746C25.8253 25.7746 26.1677 25.6806 26.4652 25.503L38.6903 18.2026Z" fill="#121213"/>
<defs>
<linearGradient id="paint0_linear_115_5325" x1="-0.217391" y1="2.33309" x2="55.5606" y2="10.0935" gradientUnits="userSpaceOnUse">
<stop stop-color="#FFD800"/>
<stop offset="1" stop-color="#A6FB00"/>
</linearGradient>
</defs>
</svg>
