<svg width="16" height="17" viewBox="0 0 16 17" fill="none" xmlns="http://www.w3.org/2000/svg">
<path d="M2.94044 10.1538H8.61511C8.82133 10.1538 8.99259 10.088 9.12889 9.95661C9.26519 9.82519 9.33333 9.66004 9.33333 9.46119V5.70347C9.33333 5.50461 9.26519 5.33947 9.12889 5.20804C8.99259 5.07661 8.82133 5.0109 8.61511 5.0109H2.94044C2.73422 5.0109 2.56296 5.07661 2.42667 5.20804C2.29037 5.33947 2.22222 5.50461 2.22222 5.70347V9.46119C2.22222 9.66004 2.29037 9.82519 2.42667 9.95661C2.56296 10.088 2.73422 10.1538 2.94044 10.1538ZM1.43556 14.868C1.02667 14.868 0.685333 14.736 0.411556 14.472C0.137185 14.2075 0 13.878 0 13.4838V4.25233C0 3.85804 0.137185 3.5289 0.411556 3.2649C0.685333 3.00033 1.02667 2.86804 1.43556 2.86804H14.5644C14.9733 2.86804 15.3147 3.00033 15.5884 3.2649C15.8628 3.5289 16 3.85804 16 4.25233V13.4838C16 13.878 15.8631 14.2072 15.5893 14.4712C15.315 14.7358 14.9733 14.868 14.5644 14.868H1.43556Z" fill="url(#paint0_linear_32_198)"/>
<defs>
<linearGradient id="paint0_linear_32_198" x1="-0.069565" y1="3.4135" x2="17.5196" y2="6.67641" gradientUnits="userSpaceOnUse">
<stop stop-color="#FFD800"/>
<stop offset="1" stop-color="#A6FB00"/>
</linearGradient>
</defs>
</svg>
