<svg width="50" height="51" viewBox="0 0 50 51" fill="none" xmlns="http://www.w3.org/2000/svg">
<rect y="0.868042" width="50" height="50" rx="10" fill="#A6FB00"/>
<g clip-path="url(#clip0_32_1225)">
<g filter="url(#filter0_d_32_1225)">
<path fill-rule="evenodd" clip-rule="evenodd" d="M28.9786 12.868V19.0807H37V14.849C36.9993 14.3238 36.7905 13.8204 36.4193 13.449C36.0482 13.0777 35.5451 12.8687 35.0202 12.868H28.9786ZM28.0826 23.385V12.868H21.9168V23.385L24.7314 21.2805C24.8089 21.2226 24.903 21.1913 24.9997 21.1913C25.0964 21.1913 25.1905 21.2226 25.268 21.2805L28.0826 23.385ZM21.0208 19.0819V12.868H14.9798C14.4549 12.8687 13.9517 13.0776 13.5806 13.4489C13.2094 13.8203 13.0006 14.3238 13 14.849V19.0819H21.0208ZM21.0208 19.9785V24.2795C21.0208 24.3626 21.0438 24.4441 21.0875 24.5149C21.1311 24.5857 21.1935 24.6429 21.2678 24.6802C21.3421 24.7174 21.4253 24.7333 21.508 24.7259C21.5908 24.7186 21.6699 24.6883 21.7365 24.6386L24.9997 22.199L28.2629 24.6386C28.3295 24.6883 28.4086 24.7186 28.4914 24.7259C28.5741 24.7333 28.6573 24.7174 28.7316 24.6802C28.8059 24.6429 28.8683 24.5857 28.9119 24.5149C28.9556 24.4441 28.9787 24.3626 28.9786 24.2795V19.9785H37V36.8871C36.9994 37.4123 36.7906 37.9158 36.4194 38.2871C36.0483 38.6585 35.5451 38.8674 35.0202 38.868H14.9798C14.4549 38.8673 13.9518 38.6584 13.5807 38.2871C13.2095 37.9157 13.0007 37.4123 13 36.8871V19.9785H21.0208ZM20.9545 27.4602C20.0188 28.3965 19.4364 29.6286 19.3067 30.9464C19.177 32.2642 19.508 33.5863 20.2433 34.6873C20.9786 35.7883 22.0726 36.6002 23.3391 36.9846C24.6056 37.369 25.966 37.3021 27.1887 36.7953C28.4114 36.2886 29.4207 35.3733 30.0446 34.2055C30.6685 33.0376 30.8683 31.6895 30.6101 30.3907C30.352 29.092 29.6517 27.923 28.6287 27.0829C27.6056 26.2428 26.3231 25.7836 24.9997 25.7836C23.4826 25.7843 22.0278 26.3872 20.9545 27.4602ZM28.4115 28.0939C27.6221 27.3044 26.5836 26.8131 25.4728 26.7038C24.3621 26.5944 23.2478 26.8739 22.3198 27.4944C21.3919 28.115 20.7077 29.0383 20.3838 30.107C20.0599 31.1757 20.1164 32.3237 20.5436 33.3554C20.9708 34.3871 21.7423 35.2387 22.7267 35.7651C23.7111 36.2915 24.8474 36.4601 25.9421 36.2421C27.0367 36.0242 28.022 35.4332 28.73 34.5699C29.4381 33.7066 29.825 32.6244 29.825 31.5076C29.8267 30.8734 29.7027 30.245 29.46 29.6591C29.2174 29.0731 28.861 28.5411 28.4115 28.0939ZM26.6634 31.771C26.4806 31.5603 26.2569 31.389 26.0059 31.2674C25.7549 31.1459 25.4818 31.0766 25.2032 31.0638C25.0034 31.0409 24.8065 30.998 24.6153 30.9357C24.2843 30.7996 24.104 30.5912 24.1072 30.3483C24.1217 30.207 24.1776 30.0731 24.268 29.9635C24.3583 29.8539 24.4791 29.7735 24.615 29.7324C24.761 29.6721 24.918 29.6432 25.0758 29.6476C25.2337 29.6519 25.3889 29.6894 25.5313 29.7575C25.6738 29.8257 25.8003 29.9231 25.9028 30.0434C26.0052 30.1636 26.0813 30.3041 26.126 30.4556C26.146 30.5117 26.177 30.5633 26.2172 30.6073C26.2574 30.6512 26.3059 30.6867 26.36 30.7117C26.414 30.7367 26.4725 30.7507 26.532 30.7528C26.5915 30.7549 26.6508 30.7451 26.7065 30.724C26.7622 30.7029 26.8131 30.6709 26.8563 30.6299C26.8995 30.5889 26.9341 30.5396 26.958 30.4851C26.982 30.4306 26.9948 30.3718 26.9958 30.3122C26.9968 30.2526 26.9859 30.1935 26.9638 30.1382C26.8498 29.8071 26.6537 29.5104 26.3939 29.2758C26.1341 29.0413 25.8191 28.8765 25.4783 28.7969V28.351C25.4783 28.2322 25.4311 28.1181 25.3471 28.0341C25.2631 27.95 25.1491 27.9028 25.0303 27.9028C24.9115 27.9028 24.7975 27.95 24.7135 28.0341C24.6295 28.1181 24.5823 28.2322 24.5823 28.351V28.8067C24.4873 28.8287 24.3939 28.8567 24.3024 28.8906C23.9956 28.9919 23.7267 29.1841 23.5316 29.4418C23.3364 29.6995 23.2242 30.0105 23.2097 30.3335C23.2175 30.6552 23.3254 30.9665 23.5185 31.224C23.7115 31.4814 23.9801 31.6721 24.2867 31.7695L24.3001 31.7749C24.5507 31.8603 24.8096 31.9192 25.0725 31.9505C25.4688 32.01 25.7308 32.0492 25.9768 32.3447C26.045 32.4157 26.0918 32.5045 26.1118 32.6008C26.1318 32.6972 26.1243 32.7973 26.09 32.8896C26.0214 33.0237 25.9188 33.1374 25.7925 33.2194C25.6662 33.3013 25.5205 33.3486 25.3702 33.3566C24.7353 33.4392 24.0247 33.2201 23.8696 32.5445C23.8416 32.43 23.7696 32.3312 23.6694 32.2693C23.5691 32.2075 23.4485 32.1876 23.3337 32.214C23.2189 32.2404 23.1191 32.311 23.0559 32.4104C22.9927 32.5098 22.9711 32.6302 22.9958 32.7454C23.0858 33.1205 23.2846 33.4607 23.5671 33.7232C23.8496 33.9857 24.2033 34.1589 24.5838 34.221V34.6645C24.5838 34.7834 24.631 34.8974 24.715 34.9815C24.799 35.0655 24.913 35.1128 25.0318 35.1128C25.1506 35.1128 25.2646 35.0655 25.3486 34.9815C25.4326 34.8974 25.4798 34.7834 25.4798 34.6645V34.2484H25.4834C25.7936 34.2229 26.0912 34.1139 26.3445 33.9328C26.5978 33.7517 26.7973 33.5053 26.9219 33.2198C27.0144 32.9776 27.0393 32.7148 26.9937 32.4595C26.9482 32.2042 26.834 31.9662 26.6634 31.771Z" fill="#121213"/>
</g>
</g>
<defs>
<filter id="filter0_d_32_1225" x="11" y="10.868" width="32" height="34" filterUnits="userSpaceOnUse" color-interpolation-filters="sRGB">
<feFlood flood-opacity="0" result="BackgroundImageFix"/>
<feColorMatrix in="SourceAlpha" type="matrix" values="0 0 0 0 0 0 0 0 0 0 0 0 0 0 0 0 0 0 127 0" result="hardAlpha"/>
<feOffset dx="2" dy="2"/>
<feGaussianBlur stdDeviation="2"/>
<feComposite in2="hardAlpha" operator="out"/>
<feColorMatrix type="matrix" values="0 0 0 0 0 0 0 0 0 0 0 0 0 0 0 0 0 0 0.16 0"/>
<feBlend mode="normal" in2="BackgroundImageFix" result="effect1_dropShadow_32_1225"/>
<feBlend mode="normal" in="SourceGraphic" in2="effect1_dropShadow_32_1225" result="shape"/>
</filter>
<clipPath id="clip0_32_1225">
<rect width="36" height="36" fill="white" transform="translate(7 7.86804)"/>
</clipPath>
</defs>
</svg>
