<svg width="21" height="21" viewBox="0 0 21 21" fill="none" xmlns="http://www.w3.org/2000/svg">
<g clip-path="url(#clip0_123_9260)">
<path d="M19.8152 8.19977H19.05V8.16035H10.5V11.9603H15.8689C15.0856 14.1724 12.9809 15.7603 10.5 15.7603C7.35217 15.7603 4.8 13.2082 4.8 10.0603C4.8 6.91252 7.35217 4.36035 10.5 4.36035C11.953 4.36035 13.2749 4.9085 14.2815 5.80387L16.9685 3.1168C15.2718 1.53552 13.0023 0.560349 10.5 0.560349C5.25362 0.560349 1 4.81397 1 10.0603C1 15.3067 5.25362 19.5603 10.5 19.5603C15.7464 19.5603 20 15.3067 20 10.0603C20 9.42337 19.9344 8.8016 19.8152 8.19977Z" fill="#FFC107"/>
<path d="M2.09375 5.63857L5.21497 7.9276C6.05952 5.83665 8.10487 4.36035 10.4984 4.36035C11.9514 4.36035 13.2733 4.9085 14.2799 5.80387L16.9669 3.1168C15.2702 1.53552 13.0007 0.560349 10.4984 0.560349C6.84945 0.560349 3.685 2.62042 2.09375 5.63857Z" fill="#FF3D00"/>
<path d="M10.5003 19.5604C12.9542 19.5604 15.1838 18.6213 16.8696 17.0942L13.9294 14.6061C12.9435 15.3558 11.7389 15.7613 10.5003 15.7604C8.02939 15.7604 5.93132 14.1848 5.14092 11.986L2.04297 14.3729C3.61522 17.4495 6.80817 19.5604 10.5003 19.5604Z" fill="#4CAF50"/>
<path d="M19.8152 8.19979H19.05V8.16037H10.5V11.9604H15.8689C15.4942 13.0132 14.8193 13.9331 13.9276 14.6066L13.929 14.6056L16.8693 17.0937C16.6612 17.2827 20 14.8104 20 10.0604C20 9.42339 19.9344 8.80162 19.8152 8.19979Z" fill="#1976D2"/>
</g>
<defs>
<clipPath id="clip0_123_9260">
<rect width="20" height="20" fill="white" transform="translate(0.5 0.0603638)"/>
</clipPath>
</defs>
</svg>
