<svg width="60" height="61" viewBox="0 0 60 61" fill="none" xmlns="http://www.w3.org/2000/svg">
<rect y="0.868164" width="60" height="60" rx="6" fill="#36363D"/>
<path d="M24.75 30.868L27.1667 28.4513C27.5 28.118 27.66 27.7291 27.6467 27.2847C27.6333 26.8402 27.4733 26.4513 27.1667 26.118C26.8333 25.7847 26.4378 25.6113 25.98 25.598C25.5222 25.5847 25.1261 25.7441 24.7917 26.0763L21.1667 29.7013C20.8333 30.0347 20.6667 30.4236 20.6667 30.868C20.6667 31.3124 20.8333 31.7013 21.1667 32.0347L24.7917 35.6597C25.125 35.993 25.5211 36.153 25.98 36.1397C26.4389 36.1263 26.8344 35.9524 27.1667 35.618C27.4722 35.2847 27.6322 34.8958 27.6467 34.4513C27.6611 34.0069 27.5011 33.618 27.1667 33.2847L24.75 30.868ZM35.25 30.868L32.8333 33.2847C32.5 33.618 32.34 34.0069 32.3533 34.4513C32.3667 34.8958 32.5267 35.2847 32.8333 35.618C33.1667 35.9513 33.5628 36.1247 34.0217 36.138C34.4806 36.1513 34.8761 35.9919 35.2083 35.6597L38.8333 32.0347C39.1667 31.7013 39.3333 31.3124 39.3333 30.868C39.3333 30.4236 39.1667 30.0347 38.8333 29.7013L35.2083 26.0763C34.875 25.743 34.4794 25.583 34.0217 25.5963C33.5639 25.6097 33.1678 25.7836 32.8333 26.118C32.5278 26.4513 32.3683 26.8402 32.355 27.2847C32.3417 27.7291 32.5011 28.118 32.8333 28.4513L35.25 30.868ZM18.3333 45.868C17.4167 45.868 16.6322 45.5419 15.98 44.8897C15.3278 44.2374 15.0011 43.4524 15 42.5347V19.2013C15 18.2847 15.3267 17.5002 15.98 16.848C16.6333 16.1958 17.4178 15.8691 18.3333 15.868H25.3333C25.6944 14.868 26.2989 14.0624 27.1467 13.4513C27.9944 12.8402 28.9456 12.5347 30 12.5347C31.0556 12.5347 32.0072 12.8402 32.855 13.4513C33.7028 14.0624 34.3067 14.868 34.6667 15.868H41.6667C42.5833 15.868 43.3683 16.1947 44.0217 16.848C44.675 17.5013 45.0011 18.2858 45 19.2013V42.5347C45 43.4513 44.6739 44.2363 44.0217 44.8897C43.3694 45.543 42.5844 45.8691 41.6667 45.868H18.3333ZM30 17.9513C30.3611 17.9513 30.66 17.833 30.8967 17.5963C31.1333 17.3597 31.2511 17.0613 31.25 16.7013C31.25 16.3402 31.1317 16.0419 30.895 15.8063C30.6583 15.5708 30.36 15.4524 30 15.4513C29.6389 15.4513 29.3406 15.5697 29.105 15.8063C28.8694 16.043 28.7511 16.3413 28.75 16.7013C28.75 17.0624 28.8683 17.3613 29.105 17.598C29.3417 17.8347 29.64 17.9524 30 17.9513Z" fill="#A6FB00"/>
</svg>
