<svg width="59" height="61" viewBox="0 0 59 61" fill="none" xmlns="http://www.w3.org/2000/svg">
<path fill-rule="evenodd" clip-rule="evenodd" d="M31.7272 22.95C31.1255 22.3485 30.3339 21.9743 29.4872 21.8911C28.6405 21.8078 27.7912 22.0208 27.0839 22.4935C26.3765 22.9663 25.855 23.6697 25.6082 24.4839C25.3613 25.298 25.4044 26.1726 25.73 26.9586C26.0557 27.7445 26.6438 28.3933 27.3941 28.7943C28.1445 29.1953 29.0106 29.3237 29.845 29.1577C30.6795 28.9917 31.4305 28.5415 31.9702 27.8838C32.5099 27.2262 32.8049 26.4017 32.8049 25.551C32.8056 25.0678 32.7107 24.5892 32.5258 24.1429C32.3408 23.6965 32.0694 23.2911 31.7272 22.95ZM32.0185 18.5583C32.3076 18.6777 32.5889 18.815 32.8608 18.9696C32.9645 19.0284 33.0824 19.0572 33.2015 19.0526C33.3205 19.0481 33.436 19.0105 33.5348 18.944L34.5292 18.2712L35.4659 19.2078L36.4078 20.1451L35.735 21.1389C35.6644 21.2435 35.6262 21.3667 35.6252 21.4929C35.6243 21.6191 35.6607 21.7428 35.7298 21.8484C35.8763 22.1095 36.0073 22.3792 36.1218 22.6558C36.2417 22.9432 36.3434 23.2377 36.4265 23.5378C36.458 23.6531 36.5212 23.7574 36.6089 23.8387C36.6966 23.9201 36.8053 23.9752 36.9228 23.9979L38.0983 24.2245V26.875L36.9222 27.1016C36.7974 27.1255 36.6826 27.186 36.5923 27.2753C36.5019 27.3646 36.4402 27.4787 36.4148 27.6032C36.2479 28.1905 36.0113 28.7557 35.71 29.2867C35.6512 29.3904 35.6226 29.5083 35.6272 29.6274C35.6318 29.7465 35.6696 29.8619 35.7362 29.9607L36.4078 30.9568L35.4711 31.8935L34.5321 32.8302L33.5377 32.1574C33.4333 32.0867 33.3103 32.0485 33.1841 32.0475C33.058 32.0464 32.9344 32.0826 32.8288 32.1515C32.5674 32.298 32.2976 32.4289 32.0208 32.5436C31.7337 32.6634 31.4393 32.7652 31.1395 32.8482C31.0241 32.8798 30.9198 32.943 30.8385 33.0307C30.7572 33.1184 30.702 33.2271 30.6793 33.3446L30.4527 34.5207H27.8022L27.5756 33.3446C27.5518 33.2197 27.4914 33.1047 27.4021 33.0143C27.3128 32.9238 27.1986 32.862 27.074 32.8366C26.7881 32.7564 26.5072 32.6591 26.2329 32.5453C25.9439 32.4258 25.6626 32.2884 25.3906 32.1341C25.2869 32.0753 25.169 32.0465 25.0499 32.051C24.9309 32.0556 24.8154 32.0932 24.7166 32.1597L23.7205 32.8302L22.7838 31.8935L21.8447 30.9568L22.5175 29.963C22.5882 29.8584 22.6264 29.7353 22.6273 29.609C22.6283 29.4828 22.5919 29.3591 22.5228 29.2535C22.3762 28.9924 22.2453 28.7228 22.1307 28.4461C22.0111 28.1588 21.9095 27.8642 21.8267 27.5642C21.7951 27.4487 21.7318 27.3444 21.644 27.2631C21.5562 27.1817 21.4473 27.1266 21.3298 27.104L20.1519 26.8768V24.2263L21.3304 23.9991C21.4551 23.9752 21.57 23.9148 21.6603 23.8255C21.7506 23.7362 21.8124 23.622 21.8377 23.4976C22.0047 22.9103 22.2413 22.3451 22.5426 21.8141C22.6014 21.7104 22.6302 21.5925 22.6256 21.4734C22.6211 21.3544 22.5835 21.2389 22.517 21.1401L21.8447 20.1451L22.7814 19.2084L23.7181 18.2717L24.7125 18.9446C24.817 19.0152 24.94 19.0534 25.0661 19.0544C25.1922 19.0555 25.3158 19.0193 25.4214 18.9504C25.6828 18.8039 25.9526 18.673 26.2294 18.5583C26.5165 18.4385 26.8109 18.3367 27.1107 18.2537C27.2261 18.2221 27.3304 18.159 27.4117 18.0712C27.493 17.9835 27.5482 17.8748 27.5709 17.7574L27.7975 16.5812H30.448L30.6746 17.7574C30.6984 17.8822 30.7588 17.9972 30.8481 18.0877C30.9374 18.1781 31.0516 18.24 31.1762 18.2653C31.4621 18.3455 31.743 18.4428 32.0173 18.5566L32.0185 18.5583ZM31.8612 17.1358C32.0845 17.208 32.3008 17.2877 32.5102 17.3746C32.7195 17.4616 32.9288 17.5587 33.1381 17.6659L34.2507 16.9133C34.3741 16.8299 34.5226 16.7922 34.6708 16.8064C34.819 16.8206 34.9576 16.886 35.0628 16.9913L36.3735 18.3026L37.6847 19.6133C37.7937 19.7218 37.86 19.8659 37.8716 20.0193C37.8831 20.1726 37.8391 20.325 37.7476 20.4486L37.0119 21.5362C37.1175 21.7424 37.2146 21.9517 37.3032 22.1642C37.3917 22.3766 37.4713 22.5931 37.542 22.8137L38.8579 23.0677C39.0044 23.0956 39.1365 23.1737 39.2315 23.2885C39.3266 23.4033 39.3786 23.5477 39.3787 23.6968V27.4051C39.379 27.5611 39.3223 27.7119 39.2194 27.8291C39.1164 27.9463 38.9742 28.022 38.8195 28.0418L37.5379 28.2882C37.4657 28.5119 37.3863 28.7282 37.2997 28.9372C37.2131 29.1461 37.116 29.3554 37.0084 29.5651L37.761 30.6778C37.8444 30.8011 37.8822 30.9496 37.8679 31.0978C37.8537 31.246 37.7883 31.3846 37.683 31.4898L36.3717 32.8005L35.068 34.1123C34.9588 34.2211 34.8141 34.2868 34.6603 34.2975C34.5066 34.3082 34.3541 34.2631 34.2309 34.1706L33.1405 33.4389C32.9342 33.5445 32.7249 33.6416 32.5125 33.7302C32.3001 33.8187 32.0838 33.8983 31.8636 33.969L31.6096 35.2855C31.5817 35.432 31.5036 35.5641 31.3887 35.6591C31.2739 35.7542 31.1295 35.8062 30.9805 35.8063H27.2727C27.1167 35.8066 26.9659 35.7499 26.8487 35.647C26.7315 35.544 26.6558 35.4018 26.636 35.2471L26.389 33.9655C26.1657 33.8933 25.9494 33.8137 25.7401 33.7267C25.5307 33.6397 25.3214 33.5426 25.1121 33.4354L24.0001 34.1898C23.8767 34.2731 23.7282 34.3109 23.58 34.2967C23.4318 34.2824 23.2932 34.217 23.188 34.1117L21.8773 32.8005L20.5632 31.4904C20.4544 31.3812 20.3887 31.2364 20.378 31.0827C20.3673 30.9289 20.4123 30.7765 20.5049 30.6533L21.2406 29.5657C21.135 29.3595 21.0379 29.1502 20.9494 28.9378C20.8608 28.7253 20.7812 28.5088 20.7105 28.2882L19.3946 28.0343C19.2411 28.0049 19.1035 27.9204 19.008 27.7967C18.9124 27.673 18.8653 27.5186 18.8756 27.3626V23.6968C18.8759 23.5482 18.9278 23.4043 19.0225 23.2897C19.1172 23.1751 19.2487 23.0971 19.3946 23.0688L20.7111 22.8148C20.7834 22.5915 20.8628 22.3752 20.9494 22.1659C21.036 21.9566 21.1331 21.7473 21.2406 21.5379L20.488 20.4253C20.4047 20.302 20.3669 20.1535 20.3811 20.0053C20.3954 19.8571 20.4608 19.7185 20.5661 19.6133L21.8773 18.3026L23.188 16.9913C23.2972 16.8826 23.442 16.8168 23.5957 16.8061C23.7495 16.7954 23.9019 16.8405 24.0251 16.9331L25.1133 17.6688C25.3195 17.5636 25.5288 17.4665 25.7412 17.3776C25.9537 17.2886 26.17 17.209 26.3902 17.1387L26.6441 15.8222C26.6721 15.6757 26.7503 15.5435 26.8652 15.4484C26.9802 15.3534 27.1247 15.3014 27.2738 15.3014H30.9816C31.1376 15.3012 31.2884 15.3578 31.4056 15.4608C31.5228 15.5637 31.5985 15.7059 31.6183 15.8607L31.8647 17.1422L31.8612 17.1358ZM49.0381 28.6115C48.8682 28.6115 48.7052 28.544 48.585 28.4239C48.4649 28.3037 48.3973 28.1407 48.3973 27.9708C48.3973 27.8008 48.4649 27.6378 48.585 27.5177C48.7052 27.3975 48.8682 27.33 49.0381 27.33H53.4758C53.6457 27.33 53.8087 27.3975 53.9289 27.5177C54.0491 27.6378 54.1166 27.8008 54.1166 27.9708C54.1166 28.1407 54.0491 28.3037 53.9289 28.4239C53.8087 28.544 53.6457 28.6115 53.4758 28.6115H49.0381ZM43.6614 14.3397C43.541 14.46 43.3777 14.5276 43.2074 14.5276C43.0372 14.5275 42.8739 14.4598 42.7536 14.3394C42.6332 14.219 42.5656 14.0557 42.5657 13.8854C42.5657 13.7152 42.6334 13.5519 42.7538 13.4315L45.8919 10.2935C46.0123 10.1731 46.1755 10.1055 46.3457 10.1055C46.5159 10.1055 46.6791 10.1731 46.7995 10.2935C46.9198 10.4138 46.9874 10.5771 46.9874 10.7473C46.9874 10.9175 46.9198 11.0807 46.7995 11.2011L43.6614 14.3397ZM9.2121 27.3224C9.38205 27.3224 9.54503 27.3899 9.6652 27.5101C9.78537 27.6303 9.85288 27.7932 9.85288 27.9632C9.85288 28.1331 9.78537 28.2961 9.6652 28.4163C9.54503 28.5365 9.38205 28.604 9.2121 28.604H4.77676C4.60682 28.604 4.44383 28.5365 4.32367 28.4163C4.2035 28.2961 4.13599 28.1331 4.13599 27.9632C4.13599 27.7932 4.2035 27.6303 4.32367 27.5101C4.44383 27.3899 4.60682 27.3224 4.77676 27.3224H9.2121ZM15.4987 13.4292C15.6191 13.5496 15.6868 13.7128 15.6869 13.8831C15.6869 14.0533 15.6193 14.2166 15.499 14.3371C15.3786 14.4575 15.2154 14.5252 15.0451 14.5252C14.8749 14.5253 14.7116 14.4577 14.5911 14.3374L11.4531 11.1987C11.3327 11.0784 11.2651 10.9151 11.2651 10.7449C11.2651 10.5747 11.3327 10.4115 11.4531 10.2912C11.5734 10.1708 11.7367 10.1032 11.9069 10.1032C12.0771 10.1032 12.2403 10.1708 12.3606 10.2912L15.4987 13.4292ZM42.7538 42.4972C42.643 42.3751 42.5835 42.215 42.5877 42.0502C42.5919 41.8854 42.6595 41.7285 42.7764 41.6122C42.8933 41.496 43.0505 41.4292 43.2153 41.4259C43.3801 41.4225 43.5399 41.4828 43.6614 41.5943L46.7995 44.7323C46.8591 44.7919 46.9064 44.8627 46.9387 44.9405C46.971 45.0184 46.9876 45.1019 46.9877 45.1862C46.9877 45.2705 46.9711 45.354 46.9389 45.4319C46.9066 45.5098 46.8594 45.5806 46.7998 45.6402C46.7402 45.6998 46.6694 45.7471 46.5916 45.7794C46.5137 45.8117 46.4302 45.8283 46.3459 45.8284C46.2616 45.8284 46.1781 45.8118 46.1002 45.7796C46.0223 45.7473 45.9515 45.7001 45.8919 45.6405L42.7538 42.5018V42.4972ZM14.5911 41.5943C14.7115 41.4739 14.8747 41.4063 15.0449 41.4063C15.2151 41.4063 15.3784 41.4739 15.4987 41.5943C15.6191 41.7146 15.6867 41.8778 15.6867 42.048C15.6867 42.2183 15.6191 42.3815 15.4987 42.5018L12.3606 45.6405C12.2402 45.7608 12.0769 45.8284 11.9067 45.8284C11.7364 45.8283 11.5731 45.7606 11.4528 45.6402C11.3324 45.5198 11.2648 45.3564 11.2649 45.1862C11.265 45.0159 11.3326 44.8527 11.4531 44.7323L14.5911 41.5943ZM29.7671 8.05309C29.7671 8.22304 29.6995 8.38602 29.5794 8.50619C29.4592 8.62636 29.2962 8.69387 29.1263 8.69387C28.9563 8.69387 28.7933 8.62636 28.6732 8.50619C28.553 8.38602 28.4855 8.22304 28.4855 8.05309V3.61368C28.4855 3.44373 28.553 3.28075 28.6732 3.16058C28.7933 3.04041 28.9563 2.9729 29.1263 2.9729C29.2962 2.9729 29.4592 3.04041 29.5794 3.16058C29.6995 3.28075 29.7671 3.44373 29.7671 3.61368V8.05193V8.05309ZM31.4488 53.8343H26.7886C26.9777 54.297 27.3003 54.693 27.7153 54.9717C28.1302 55.2505 28.6188 55.3993 29.1187 55.3993C29.6186 55.3993 30.1072 55.2505 30.5222 54.9717C30.9371 54.693 31.2597 54.297 31.4488 53.8343ZM36.9158 45.055H21.3356V46.608C21.3373 47.0194 21.5014 47.4134 21.7923 47.7043C22.0832 47.9952 22.4772 48.1594 22.8886 48.1611H35.3639C35.7753 48.1594 36.1693 47.9952 36.4602 47.7043C36.7511 47.4134 36.9153 47.0194 36.917 46.608V45.055H36.9158ZM33.7428 49.4449H24.5086V50.9974C24.4986 51.4142 24.621 51.8235 24.8581 52.1665C24.9276 52.276 25.0218 52.3677 25.133 52.4343C25.2443 52.501 25.3696 52.5407 25.4989 52.5504H32.7542C32.8831 52.5403 33.0078 52.5004 33.1185 52.4338C33.2292 52.3671 33.3229 52.2756 33.3921 52.1665C33.6295 51.8236 33.7519 51.4143 33.7416 50.9974V49.4449H33.7428ZM34.5205 43.7712H23.7304C22.8758 41.5209 21.0752 39.1453 19.4197 36.9638C18.6344 35.9275 17.8824 34.936 17.315 34.0715C15.9186 31.9418 15.1241 29.474 15.0158 26.9296C14.9074 24.3852 15.4892 21.8588 16.6994 19.6181C17.9097 17.3773 19.7034 15.5056 21.8907 14.201C24.0779 12.8965 26.5772 12.2078 29.1239 12.2078C31.6707 12.2078 34.17 12.8965 36.3572 14.201C38.5445 15.5056 40.3382 17.3773 41.5485 19.6181C42.7587 21.8588 43.3405 24.3852 43.2321 26.9296C43.1238 29.474 42.3293 31.9418 40.9329 34.0715C40.3655 34.936 39.6135 35.928 38.8282 36.9644C37.175 39.1453 35.3744 41.5209 34.5175 43.7712H34.5205ZM29.1263 20.5884C30.2742 20.5885 31.3866 20.9867 32.274 21.715C33.1613 22.4433 33.7686 23.4567 33.9925 24.5826C34.2164 25.7085 34.043 26.8772 33.5018 27.8896C32.9606 28.902 32.0851 29.6954 31.0246 30.1347C29.964 30.5739 28.7839 30.6319 27.6854 30.2986C26.5869 29.9654 25.6379 29.2616 25.0001 28.3071C24.3624 27.3526 24.0753 26.2065 24.1878 25.0641C24.3003 23.9216 24.8054 22.8536 25.6172 22.0418C26.0776 21.5805 26.6246 21.2147 27.2268 20.9653C27.829 20.7159 28.4745 20.5878 29.1263 20.5884Z" fill="#A6FB00"/>
</svg>
