<svg width="36" height="34" viewBox="0 0 36 34" fill="none" xmlns="http://www.w3.org/2000/svg">
<g clip-path="url(#clip0_123_9599)">
<path d="M24.9011 26.3693C26.6641 26.3693 28.0933 24.9401 28.0933 23.1771C28.0933 21.4141 26.6641 19.985 24.9011 19.985C23.1382 19.985 21.709 21.4141 21.709 23.1771C21.709 24.9401 23.1382 26.3693 24.9011 26.3693Z" fill="url(#paint0_linear_123_9599)"/>
<path d="M11.4773 26.3693C13.2403 26.3693 14.6695 24.9401 14.6695 23.1771C14.6695 21.4141 13.2403 19.985 11.4773 19.985C9.71434 19.985 8.28516 21.4141 8.28516 23.1771C8.28516 24.9401 9.71434 26.3693 11.4773 26.3693Z" fill="url(#paint1_linear_123_9599)"/>
<path d="M10.6883 13.0754C12.4512 13.0754 13.8804 11.6462 13.8804 9.8832C13.8804 8.12022 12.4512 6.69104 10.6883 6.69104C8.92527 6.69104 7.49609 8.12022 7.49609 9.8832C7.49609 11.6462 8.92527 13.0754 10.6883 13.0754Z" fill="url(#paint2_linear_123_9599)"/>
<path d="M24.9011 13.0754C26.6641 13.0754 28.0933 11.6462 28.0933 9.8832C28.0933 8.12022 26.6641 6.69104 24.9011 6.69104C23.1382 6.69104 21.709 8.12022 21.709 9.8832C21.709 11.6462 23.1382 13.0754 24.9011 13.0754Z" fill="url(#paint3_linear_123_9599)"/>
<path d="M31.4968 13.3568C31.3108 13.3568 31.1296 13.374 30.9522 13.4043C30.9475 13.4043 30.942 13.4059 30.9374 13.4067C30.7841 13.434 30.6339 13.4721 30.4892 13.5204C29.8046 13.7245 29.0756 14.0728 28.3147 14.5238C26.2085 16.0111 24.1514 16.2588 21.6446 14.8183C19.5634 13.3997 18.5279 11.2386 19.0289 8.57654C19.3448 7.03791 20.3803 6.1864 20.9926 4.49585H20.9919C21.1724 4.0962 21.2735 3.65291 21.2735 3.18548C21.2735 1.4256 19.8489 -0.000854492 18.0914 -0.000854492C16.3338 -0.000854492 14.9093 1.4256 14.9093 3.18548C14.9093 3.76276 15.0633 4.3042 15.3317 4.77164H15.3309C16.1152 6.33598 16.8637 7.22332 17.1173 8.27583C17.6977 11.0329 16.8644 13.0094 15.166 14.509C11.7614 17.1049 8.90756 15.179 6.56103 13.8492C6.06931 13.5383 5.48657 13.3568 4.86182 13.3568C3.10425 13.3568 1.67969 14.7833 1.67969 16.5432C1.67969 18.303 3.10425 19.7295 4.86182 19.7295C5.43444 19.7295 5.9705 19.5776 6.43499 19.3127C8.82742 18.0748 9.4973 17.1765 11.7761 17.2903C14.735 17.577 16.6194 19.2301 17.2643 22.3051C17.7599 24.7006 16.3183 26.0126 15.2298 28.4199C15.1995 28.4814 15.1722 28.5445 15.1466 28.6084C15.1458 28.6107 15.145 28.6123 15.1434 28.6146C14.9933 28.9847 14.91 29.389 14.91 29.8128C14.91 31.5727 16.3346 32.9991 18.0922 32.9991C19.8497 32.9991 21.2743 31.5727 21.2743 29.8128C21.2743 29.5409 21.2401 29.2768 21.1763 29.0244C21.1763 29.0244 21.1763 29.0236 21.1763 29.0228C21.0985 28.7175 20.9763 28.4292 20.8176 28.1659C19.9057 26.2954 18.4392 24.8206 18.9425 22.0534C19.6622 19.1725 22.1356 17.3394 24.6533 17.2848C27.1717 17.2202 28.2975 18.9037 30.532 19.5791C30.5453 19.583 30.5585 19.5877 30.5717 19.5916C30.5772 19.5932 30.5818 19.5947 30.5873 19.5963C30.8759 19.682 31.1809 19.7287 31.4976 19.7287C33.2551 19.7287 34.6797 18.3023 34.6797 16.5424C34.6797 14.7825 33.2551 13.356 31.4976 13.356L31.4968 13.3568Z" fill="#EAEAED"/>
</g>
<defs>
<linearGradient id="paint0_linear_123_9599" x1="21.6812" y1="20.2752" x2="28.8033" y2="21.2661" gradientUnits="userSpaceOnUse">
<stop stop-color="#FFD800"/>
<stop offset="1" stop-color="#A6FB00"/>
</linearGradient>
<linearGradient id="paint1_linear_123_9599" x1="8.2574" y1="20.2752" x2="15.3795" y2="21.2661" gradientUnits="userSpaceOnUse">
<stop stop-color="#FFD800"/>
<stop offset="1" stop-color="#A6FB00"/>
</linearGradient>
<linearGradient id="paint2_linear_123_9599" x1="7.46834" y1="6.98124" x2="14.5904" y2="7.97214" gradientUnits="userSpaceOnUse">
<stop stop-color="#FFD800"/>
<stop offset="1" stop-color="#A6FB00"/>
</linearGradient>
<linearGradient id="paint3_linear_123_9599" x1="21.6812" y1="6.98124" x2="28.8033" y2="7.97214" gradientUnits="userSpaceOnUse">
<stop stop-color="#FFD800"/>
<stop offset="1" stop-color="#A6FB00"/>
</linearGradient>
<clipPath id="clip0_123_9599">
<rect width="34.9388" height="33.0604" fill="white" transform="translate(0.53125)"/>
</clipPath>
</defs>
</svg>
