<svg width="30" height="31" viewBox="0 0 30 31" fill="none" xmlns="http://www.w3.org/2000/svg">
<rect x="0.5" y="1.36816" width="29" height="29" rx="14.5" fill="#A6FB00"/>
<rect x="0.5" y="1.36816" width="29" height="29" rx="14.5" stroke="#A6FB00"/>
<path d="M17.1333 15.8683C17.1333 16.2903 17.0081 16.7027 16.7737 17.0535C16.5393 17.4044 16.2061 17.6778 15.8163 17.8393C15.4265 18.0007 14.9976 18.043 14.5837 17.9607C14.1699 17.8784 13.7898 17.6752 13.4914 17.3768C13.1931 17.0785 12.9899 16.6983 12.9076 16.2845C12.8253 15.8707 12.8675 15.4418 13.029 15.0519C13.1904 14.6621 13.4639 14.3289 13.8147 14.0945C14.1655 13.8601 14.578 13.735 14.9999 13.735C15.5652 13.7368 16.1068 13.9621 16.5065 14.3618C16.9062 14.7615 17.1315 15.3031 17.1333 15.8683ZM21.6666 12.935V18.8017C21.6666 19.7918 21.2733 20.7414 20.5731 21.4415C19.873 22.1417 18.9234 22.535 17.9333 22.535H12.0666C11.0764 22.535 10.1269 22.1417 9.42672 21.4415C8.72658 20.7414 8.33325 19.7918 8.33325 18.8017V12.935C8.33325 11.9449 8.72658 10.9953 9.42672 10.2951C10.1269 9.59499 11.0764 9.20166 12.0666 9.20166H17.9333C18.9234 9.20166 19.873 9.59499 20.5731 10.2951C21.2733 10.9953 21.6666 11.9449 21.6666 12.935ZM18.1999 15.8683C18.1999 15.2354 18.0122 14.6167 17.6606 14.0905C17.309 13.5643 16.8092 13.1541 16.2245 12.9119C15.6398 12.6697 14.9964 12.6063 14.3756 12.7298C13.7549 12.8533 13.1847 13.1581 12.7372 13.6056C12.2896 14.0531 11.9849 14.6233 11.8614 15.244C11.7379 15.8648 11.8013 16.5082 12.0435 17.0929C12.2857 17.6776 12.6959 18.1774 13.2221 18.529C13.7483 18.8806 14.367 19.0683 14.9999 19.0683C15.8486 19.0683 16.6625 18.7312 17.2627 18.1311C17.8628 17.531 18.1999 16.717 18.1999 15.8683ZM19.2666 12.4017C19.2666 12.2434 19.2197 12.0888 19.1318 11.9572C19.0439 11.8256 18.9189 11.7231 18.7727 11.6626C18.6265 11.602 18.4657 11.5862 18.3105 11.617C18.1553 11.6479 18.0128 11.7241 17.9009 11.836C17.789 11.9479 17.7128 12.0904 17.682 12.2456C17.6511 12.4008 17.6669 12.5616 17.7275 12.7078C17.788 12.854 17.8906 12.9789 18.0221 13.0668C18.1537 13.1547 18.3084 13.2017 18.4666 13.2017C18.6788 13.2017 18.8822 13.1174 19.0323 12.9673C19.1823 12.8173 19.2666 12.6138 19.2666 12.4017Z" fill="#121213"/>
</svg>
