<svg width="30" height="31" viewBox="0 0 30 31" fill="none" xmlns="http://www.w3.org/2000/svg">
<rect x="0.5" y="1.36816" width="29" height="29" rx="14.5" fill="#A6FB00"/>
<rect x="0.5" y="1.36816" width="29" height="29" rx="14.5" stroke="#A6FB00"/>
<path d="M11.3063 10.6838C11.3061 11.0767 11.1493 11.4534 10.8704 11.7311C10.5915 12.0088 10.2133 12.1647 9.81904 12.1645C9.42479 12.1643 9.04676 12.008 8.76812 11.73C8.48948 11.4521 8.33306 11.0752 8.33325 10.6823C8.33345 10.2894 8.49025 9.91271 8.76917 9.63503C9.04809 9.35735 9.42628 9.20146 9.82053 9.20166C10.2148 9.20186 10.5928 9.35812 10.8714 9.63608C11.1501 9.91403 11.3065 10.2909 11.3063 10.6838ZM11.3509 13.2614H8.37785V22.535H11.3509V13.2614ZM16.0484 13.2614H13.0902V22.535H16.0186V17.6686C16.0186 14.9576 19.564 14.7058 19.564 17.6686V22.535H22.4999V16.6612C22.4999 12.0911 17.2525 12.2615 16.0186 14.5058L16.0484 13.2614Z" fill="#121213"/>
</svg>
