<svg width="18" height="19" viewBox="0 0 18 19" fill="none" xmlns="http://www.w3.org/2000/svg">
<g clip-path="url(#clip0_71_141)">
<path d="M18 8.15811C18.09 7.70811 17.73 7.16811 17.28 7.16811L12.15 6.44811L9.81 1.76811C9.72 1.58811 9.63 1.49811 9.45 1.40811C9 1.13811 8.46 1.31811 8.19 1.76811L5.94 6.44811L0.81 7.16811C0.54 7.16811 0.36 7.25811 0.27 7.43811C-0.09 7.79811 -0.09 8.33811 0.27 8.69811L3.96 12.2981L3.06 17.4281C3.06 17.6081 3.06 17.7881 3.15 17.9681C3.42 18.4181 3.96 18.5981 4.41 18.3281L9 15.8981L13.59 18.3281C13.68 18.4181 13.86 18.4181 14.04 18.4181C14.13 18.4181 14.13 18.4181 14.22 18.4181C14.67 18.3281 15.03 17.8781 14.94 17.3381L14.04 12.2081L17.73 8.60811C17.91 8.51811 18 8.33811 18 8.15811Z" fill="#FFD800"/>
</g>
<defs>
<clipPath id="clip0_71_141">
<rect width="18" height="18" fill="white" transform="translate(0 0.868164)"/>
</clipPath>
</defs>
</svg>
