<svg width="150" height="38" viewBox="0 0 150 38" fill="none" xmlns="http://www.w3.org/2000/svg">
<path d="M36.9137 13.2418C38.0002 14.3284 38.0002 16.09 36.9137 17.1766L17.1727 36.9176C16.0861 38.0041 14.3245 38.0041 13.2379 36.9176L0.814915 24.4946C-0.271639 23.408 -0.271638 21.6463 0.814915 20.5598L20.5559 0.81882C21.6424 -0.267733 23.4041 -0.267731 24.4906 0.818822L36.9137 13.2418Z" fill="#19D079"/>
<path d="M55.6015 13.2418C56.6881 14.3284 56.6881 16.09 55.6015 17.1766L35.8606 36.9176C34.774 38.0041 33.0124 38.0041 31.9258 36.9176L19.5028 24.4946C18.4162 23.408 18.4162 21.6463 19.5028 20.5598L39.2438 0.81882C40.3303 -0.267733 42.092 -0.267731 43.1785 0.818822L55.6015 13.2418Z" fill="#C0FF5C"/>
<path d="M78.1871 19.0683C79.2358 19.2638 80.0979 19.7881 80.7733 20.6413C81.4487 21.4945 81.7865 22.4721 81.7865 23.5741C81.7865 24.5695 81.5376 25.4493 81.0399 26.2136C80.56 26.9601 79.8579 27.5467 78.9337 27.9733C78.0094 28.3998 76.9163 28.6131 75.6543 28.6131H67.6292V10.0033H75.3077C76.5697 10.0033 77.6539 10.2077 78.5604 10.6165C79.4847 11.0254 80.1779 11.5941 80.64 12.3229C81.1199 13.0516 81.3599 13.8782 81.3599 14.8024C81.3599 15.8867 81.0666 16.7932 80.48 17.5219C79.9113 18.2507 79.147 18.7661 78.1871 19.0683ZM71.3618 17.6819H74.7745C75.6632 17.6819 76.3475 17.4864 76.8274 17.0953C77.3073 16.6865 77.5473 16.1088 77.5473 15.3623C77.5473 14.6158 77.3073 14.0381 76.8274 13.6293C76.3475 13.2205 75.6632 13.0161 74.7745 13.0161H71.3618V17.6819ZM75.1211 25.5737C76.0276 25.5737 76.7296 25.3604 77.2273 24.9338C77.7428 24.5072 78.0005 23.9029 78.0005 23.1208C78.0005 22.321 77.7339 21.6989 77.2007 21.2545C76.6674 20.7924 75.9476 20.5613 75.0411 20.5613H71.3618V25.5737H75.1211Z" fill="#EAEAED"/>
<path d="M90.2536 28.8531C88.8317 28.8531 87.5519 28.542 86.4143 27.9199C85.2768 27.2801 84.3792 26.3824 83.7215 25.2271C83.0816 24.0718 82.7617 22.7387 82.7617 21.2279C82.7617 19.717 83.0905 18.384 83.7482 17.2286C84.4236 16.0733 85.339 15.1846 86.4943 14.5625C87.6497 13.9226 88.9383 13.6026 90.3602 13.6026C91.7822 13.6026 93.0708 13.9226 94.2262 14.5625C95.3815 15.1846 96.288 16.0733 96.9457 17.2286C97.6211 18.384 97.9588 19.717 97.9588 21.2279C97.9588 22.7387 97.6122 24.0718 96.919 25.2271C96.2436 26.3824 95.3193 27.2801 94.1462 27.9199C92.9909 28.542 91.6933 28.8531 90.2536 28.8531ZM90.2536 25.6004C90.929 25.6004 91.56 25.4404 92.1466 25.1205C92.7509 24.7827 93.2308 24.2851 93.5863 23.6274C93.9418 22.9698 94.1195 22.1699 94.1195 21.2279C94.1195 19.8237 93.7463 18.7483 92.9998 18.0018C92.271 17.2375 91.3734 16.8554 90.3069 16.8554C89.2405 16.8554 88.3429 17.2375 87.6141 18.0018C86.9031 18.7483 86.5476 19.8237 86.5476 21.2279C86.5476 22.632 86.8942 23.7163 87.5874 24.4806C88.2984 25.2271 89.1871 25.6004 90.2536 25.6004Z" fill="#EAEAED"/>
<path d="M103.363 16.1355C103.843 15.3534 104.465 14.7402 105.229 14.2959C106.011 13.8515 106.9 13.6293 107.895 13.6293V17.5486H106.909C105.736 17.5486 104.847 17.8241 104.243 18.3751C103.656 18.9261 103.363 19.8859 103.363 21.2545V28.6131H99.6304V13.8426H103.363V16.1355Z" fill="#EAEAED"/>
<path d="M108.383 21.1745C108.383 19.6815 108.677 18.3573 109.263 17.202C109.867 16.0466 110.685 15.1579 111.716 14.5358C112.747 13.9137 113.893 13.6026 115.155 13.6026C116.115 13.6026 117.031 13.8159 117.901 14.2425C118.772 14.6513 119.466 15.2023 119.981 15.8955V8.88354H123.767V28.6131H119.981V26.4269C119.519 27.1556 118.87 27.7422 118.035 28.1865C117.199 28.6309 116.231 28.8531 115.129 28.8531C113.884 28.8531 112.747 28.5331 111.716 27.8933C110.685 27.2534 109.867 26.3558 109.263 25.2004C108.677 24.0273 108.383 22.6854 108.383 21.1745ZM120.008 21.2279C120.008 20.3214 119.83 19.5482 119.475 18.9083C119.119 18.2507 118.639 17.753 118.035 17.4153C117.43 17.0598 116.782 16.882 116.088 16.882C115.395 16.882 114.755 17.0509 114.169 17.3886C113.582 17.7263 113.102 18.224 112.729 18.8816C112.374 19.5215 112.196 20.2858 112.196 21.1745C112.196 22.0633 112.374 22.8453 112.729 23.5208C113.102 24.1784 113.582 24.685 114.169 25.0405C114.773 25.396 115.413 25.5737 116.088 25.5737C116.782 25.5737 117.43 25.4049 118.035 25.0671C118.639 24.7117 119.119 24.214 119.475 23.5741C119.83 22.9164 120.008 22.1344 120.008 21.2279Z" fill="#EAEAED"/>
<path d="M140.077 20.9079C140.077 21.4412 140.041 21.9211 139.97 22.3477H129.172C129.261 23.4141 129.634 24.2495 130.292 24.8538C130.95 25.4582 131.758 25.7603 132.718 25.7603C134.105 25.7603 135.091 25.1649 135.678 23.974H139.704C139.277 25.396 138.459 26.5691 137.251 27.4933C136.042 28.3998 134.558 28.8531 132.798 28.8531C131.376 28.8531 130.097 28.542 128.959 27.9199C127.839 27.2801 126.959 26.3824 126.319 25.2271C125.697 24.0718 125.386 22.7387 125.386 21.2279C125.386 19.6993 125.697 18.3573 126.319 17.202C126.942 16.0466 127.813 15.1579 128.932 14.5358C130.052 13.9137 131.341 13.6026 132.798 13.6026C134.202 13.6026 135.456 13.9048 136.558 14.5091C137.677 15.1135 138.539 15.9755 139.144 17.0953C139.766 18.1973 140.077 19.4682 140.077 20.9079ZM136.211 19.8415C136.193 18.8816 135.847 18.1173 135.171 17.5486C134.496 16.962 133.669 16.6687 132.692 16.6687C131.767 16.6687 130.985 16.9531 130.345 17.5219C129.723 18.0729 129.341 18.8461 129.199 19.8415H136.211Z" fill="#EAEAED"/>
<path d="M145.467 16.1355C145.947 15.3534 146.57 14.7402 147.334 14.2959C148.116 13.8515 149.005 13.6293 150 13.6293V17.5486H149.013C147.84 17.5486 146.952 17.8241 146.347 18.3751C145.761 18.9261 145.467 19.8859 145.467 21.2545V28.6131H141.735V13.8426H145.467V16.1355Z" fill="#EAEAED"/>
</svg>
