<svg width="30" height="31" viewBox="0 0 30 31" fill="none" xmlns="http://www.w3.org/2000/svg">
<path d="M14.9999 19.1409C16.8074 19.1409 18.2726 17.6757 18.2726 15.8682C18.2726 14.0607 16.8074 12.5955 14.9999 12.5955C13.1924 12.5955 11.7272 14.0607 11.7272 15.8682C11.7272 17.6757 13.1924 19.1409 14.9999 19.1409Z" fill="#C3C3CA"/>
<path d="M27.2236 15.59C26.2612 13.1008 24.5906 10.9481 22.4182 9.39805C20.2458 7.84798 17.6668 6.96845 14.9999 6.86816C12.3331 6.96845 9.75405 7.84798 7.58163 9.39805C5.4092 10.9481 3.7386 13.1008 2.77628 15.59C2.71129 15.7697 2.71129 15.9666 2.77628 16.1463C3.7386 18.6355 5.4092 20.7882 7.58163 22.3383C9.75405 23.8883 12.3331 24.7679 14.9999 24.8682C17.6668 24.7679 20.2458 23.8883 22.4182 22.3383C24.5906 20.7882 26.2612 18.6355 27.2236 16.1463C27.2885 15.9666 27.2885 15.7697 27.2236 15.59ZM14.9999 21.1863C13.9481 21.1863 12.9199 20.8744 12.0453 20.2901C11.1707 19.7057 10.4891 18.8751 10.0866 17.9033C9.68404 16.9316 9.57872 15.8623 9.78392 14.8306C9.98913 13.799 10.4956 12.8514 11.2394 12.1076C11.9832 11.3639 12.9308 10.8574 13.9624 10.6522C14.994 10.447 16.0633 10.5523 17.0351 10.9548C18.0069 11.3573 18.8375 12.039 19.4218 12.9135C20.0062 13.7881 20.3181 14.8163 20.3181 15.8682C20.3159 17.278 19.7549 18.6294 18.7581 19.6263C17.7612 20.6232 16.4097 21.1842 14.9999 21.1863Z" fill="#C3C3CA"/>
</svg>
