<svg width="284" height="250" viewBox="0 0 284 250" fill="none" xmlns="http://www.w3.org/2000/svg">
<g clip-path="url(#clip0_95_1281)">
<path d="M141.999 250C220.267 250 283.715 246.296 283.715 241.726C283.715 237.157 220.267 233.452 141.999 233.452C63.7316 233.452 0.283203 237.157 0.283203 241.726C0.283203 246.296 63.7316 250 141.999 250Z" fill="#36363D"/>
<path d="M22.6498 25.6768C21.9189 22.4608 22.2478 19.7492 23.6293 17.5491C25.018 15.3491 27.3057 13.8873 30.5071 13.1564C33.7889 12.4108 36.5152 12.7178 38.6933 14.0773C40.8714 15.4368 42.3186 17.7026 43.0422 20.8748C43.5684 23.1771 43.605 25.1579 43.1664 26.8097C42.7279 28.4616 41.8654 29.8649 40.5863 31.0198C39.3072 32.1746 37.575 33.0005 35.3823 33.4975C33.1603 34.0019 31.238 34.0677 29.6227 33.6876C28.0074 33.3075 26.5675 32.4597 25.3177 31.1294C24.0605 29.7992 23.1761 27.9865 22.6498 25.6841V25.6768ZM28.7456 24.3173C29.1988 26.3054 29.8931 27.6576 30.8287 28.352C31.7643 29.0536 32.8679 29.2583 34.147 28.9659C35.4554 28.6662 36.369 28.0157 36.8953 26.9998C37.4215 25.9838 37.4288 24.3758 36.9318 22.1685C36.5079 20.312 35.8281 19.0402 34.8853 18.3531C33.9424 17.6661 32.8314 17.4687 31.545 17.7611C30.3171 18.0388 29.4254 18.6966 28.8845 19.7345C28.3363 20.7724 28.2925 22.3 28.7529 24.3027L28.7456 24.3173Z" fill="#EAEAED"/>
<path d="M45.9511 23.2648C45.4541 21.0867 45.783 19.1206 46.9305 17.3737C48.078 15.6268 49.9053 14.472 52.405 13.9019C55.2629 13.2514 57.6164 13.5876 59.451 14.9178C60.9274 15.985 61.8922 17.498 62.3381 19.4568C62.8351 21.6568 62.5208 23.623 61.3806 25.3552C60.2403 27.0875 58.3838 28.2496 55.811 28.8343C53.516 29.3533 51.5279 29.1998 49.8468 28.3519C47.7784 27.3067 46.4773 25.611 45.9438 23.2721L45.9511 23.2648ZM51.4329 22.0077C51.7253 23.2794 52.193 24.1638 52.8509 24.6536C53.5014 25.1433 54.225 25.3041 54.9997 25.1286C55.7891 24.9459 56.3665 24.5001 56.7393 23.7838C57.1121 23.0675 57.1413 22.0442 56.8416 20.7213C56.5566 19.486 56.0961 18.6162 55.4456 18.1338C54.7951 17.6441 54.0934 17.4833 53.3406 17.6588C52.5439 17.8415 51.9518 18.2946 51.5718 19.0329C51.1917 19.7638 51.1405 20.7578 51.4329 22.015V22.0077Z" fill="#EAEAED"/>
<path d="M67.8711 31.4656L63.3906 11.7457L68.5143 10.5836L68.9967 12.6959C69.501 11.6507 70.02 10.8978 70.5389 10.452C71.2406 9.85264 72.0738 9.43602 73.0459 9.21675C74.9536 8.78552 76.5981 9.18021 77.9723 10.4008C79.3464 11.6214 80.2819 13.3098 80.7716 15.466C81.3125 17.8415 81.1517 19.7857 80.3039 21.2914C79.4487 22.8043 78.155 23.7545 76.4154 24.1492C75.5749 24.3393 74.7709 24.3685 74.0107 24.2442C73.2506 24.1127 72.5343 23.8276 71.8545 23.3891L73.4041 30.2084L67.8784 31.4656H67.8711ZM70.5097 17.6807C70.7655 18.8136 71.1967 19.5957 71.7961 20.0342C72.3954 20.4727 73.0605 20.6116 73.7841 20.4435C74.42 20.2973 74.8951 19.9173 75.2094 19.296C75.5237 18.6747 75.531 17.7318 75.246 16.482C74.9828 15.3271 74.5662 14.5305 73.9961 14.0846C73.426 13.6461 72.8193 13.4999 72.1688 13.6461C71.4672 13.8069 70.9482 14.2089 70.6047 14.8667C70.2612 15.5172 70.2319 16.4601 70.5097 17.688V17.6807Z" fill="#EAEAED"/>
<path d="M83.1114 18.1119L88.4251 16.365C88.7979 16.9571 89.2145 17.3518 89.6823 17.5345C90.1501 17.7172 90.7202 17.7392 91.3926 17.5857C92.1308 17.4176 92.6644 17.1325 92.9933 16.7305C93.2564 16.4235 93.3442 16.1019 93.2638 15.7511C93.176 15.3564 92.8983 15.1006 92.4378 14.9763C92.1089 14.8886 91.283 14.8813 89.9527 14.9471C87.9793 15.0494 86.5833 15.0421 85.7793 14.9252C84.9753 14.8082 84.2443 14.472 83.5865 13.9165C82.9287 13.361 82.4975 12.652 82.3074 11.7896C82.0955 10.8467 82.1832 9.9769 82.5779 9.1729C82.9726 8.3689 83.6085 7.68916 84.4929 7.13367C85.3773 6.57818 86.6271 6.1177 88.2351 5.75225C89.9381 5.36487 91.2245 5.21138 92.0943 5.28447C92.9641 5.35756 93.7315 5.61338 94.3967 6.02999C95.0618 6.45392 95.6831 7.08981 96.2532 7.94498L91.1807 9.63337C90.9395 9.20945 90.6398 8.92439 90.2816 8.77821C89.7846 8.58818 89.2365 8.56625 88.6225 8.70512C88.0012 8.84399 87.5773 9.05596 87.3434 9.34101C87.1095 9.62606 87.0291 9.92574 87.1022 10.24C87.1826 10.5909 87.4238 10.8101 87.8185 10.9125C88.2205 11.0075 89.0318 10.9929 90.267 10.8613C92.1308 10.6566 93.5561 10.6347 94.5209 10.7955C95.493 10.9636 96.2897 11.3291 96.9183 11.9065C97.5469 12.4839 97.9489 13.1783 98.1316 13.9896C98.3216 14.8155 98.2486 15.6707 97.9343 16.5624C97.6127 17.4541 96.9695 18.2508 96.0047 18.9598C95.0399 19.6614 93.6292 20.2242 91.7873 20.6482C89.178 21.2402 87.2338 21.2914 85.962 20.8017C84.6829 20.3119 83.7327 19.4129 83.1114 18.1119Z" fill="#EAEAED"/>
<path d="M100.959 0.0365454L106.96 0L106.989 4.60472L105.885 13.8653L102.172 13.8873L100.988 4.64127L100.959 0.0365454ZM101.251 15.3052L106.85 15.276L106.879 20.2242L101.281 20.2535L101.251 15.3052Z" fill="#EAEAED"/>
<path d="M53.3255 62.902C53.2817 62.902 53.2378 62.8947 53.1939 62.8801C49.9049 61.6083 47.9387 60.3584 46.9154 58.8674C46.1699 59.0136 45.344 58.9186 44.5546 58.5458C43.7872 58.1803 43.0489 57.5444 42.5227 56.6308C42.0257 57.0109 41.419 57.1132 40.7466 56.9086C40.001 56.6747 39.2336 56.0534 38.5904 55.1471C38.1811 55.4394 37.7645 55.4833 37.4575 55.4614C35.2867 55.2859 32.3411 50.959 32.1292 46.3469C32.1218 46.1423 32.2753 45.9742 32.48 45.9669C32.6773 45.9522 32.8528 46.113 32.8601 46.3177C33.0574 50.6958 35.8641 54.5989 37.516 54.7304C37.7864 54.7597 38.0057 54.672 38.1957 54.5258C37.2017 52.7862 36.69 50.3011 37.4502 47.6479C38.0788 45.4552 38.6342 44.5927 39.2994 44.7535C40.5565 45.0678 40.3957 49.848 39.7233 53.0055C39.5698 53.7218 39.3505 54.2334 39.102 54.5989C39.6794 55.454 40.3592 56.0242 40.9585 56.2142C41.4921 56.3823 41.8868 56.2434 42.1792 55.9584C41.6017 54.5404 41.4848 52.6181 42.2669 50.155C43.2901 46.917 43.7067 46.8293 43.9553 46.7782C44.1307 46.7416 44.3061 46.8001 44.423 46.939C45.0955 47.6991 44.2915 52.7278 43.4436 55.2128C43.334 55.5344 43.1951 55.8195 43.0343 56.0607C43.4875 56.9524 44.1599 57.5591 44.8543 57.888C45.4171 58.1584 45.9945 58.2534 46.5134 58.2023C46.4477 58.0634 46.3892 57.9245 46.338 57.7783C45.7606 56.2069 46.0384 54.3942 47.2005 52.2381C47.9753 50.8055 48.6038 50.1403 49.1813 50.1403C49.3567 50.1403 49.671 50.2061 49.9049 50.6227C50.5407 51.7995 50.0803 55.6806 48.8231 57.6029C48.5234 58.0561 48.1141 58.3996 47.639 58.6262C48.6185 59.9126 50.475 61.0455 53.4498 62.2003C53.6398 62.2734 53.7348 62.4854 53.6617 62.6754C53.6033 62.8216 53.4644 62.9093 53.3182 62.9093L53.3255 62.902ZM49.1959 50.8639C49.1959 50.8639 48.7793 50.8639 47.8583 52.5816C46.7985 54.5404 46.5354 56.1557 47.0324 57.5225C47.0909 57.6906 47.1639 57.8514 47.2517 58.0122C47.639 57.8441 47.9753 57.5737 48.2165 57.2082C49.2397 55.6441 49.7294 52.4281 49.3494 51.1709C49.269 50.9151 49.1886 50.8713 49.1886 50.8713L49.1959 50.8639ZM43.9553 47.7868C43.7652 48.145 43.4509 48.8686 42.9758 50.3669C42.3473 52.3477 42.3473 53.9338 42.6981 55.1544C42.72 55.0959 42.7419 55.0301 42.7639 54.9716C43.6263 52.4573 44.043 49.0001 43.9553 47.7868ZM39.1386 45.4845C39.0143 45.6014 38.6635 46.0619 38.1518 47.838C37.4794 50.1842 37.896 52.3258 38.6854 53.868C38.8389 53.5537 38.9412 53.1882 39.0143 52.8447C39.7745 49.2559 39.5552 46.0107 39.1386 45.4918V45.4845Z" fill="#8A8B93"/>
<path d="M81.1145 101.216C80.0035 101.216 78.8267 100.96 77.7815 100.346C77.6061 100.244 77.5476 100.018 77.65 99.8494C77.7523 99.674 77.9789 99.6155 78.147 99.7179C80.7563 101.245 84.1258 100.178 84.8202 99.0674C84.9006 98.9358 84.9737 98.7677 84.9298 98.5777C83.8992 98.6873 82.6275 98.4169 81.1803 97.5032C79.3237 96.3411 79.1776 95.9976 79.1849 95.7198C79.1849 95.559 79.2872 95.4128 79.4334 95.3397C80.1643 94.9743 83.4607 96.4873 84.8348 97.3936C85.0175 97.5105 85.1637 97.6421 85.288 97.7737C85.8946 97.6275 86.3697 97.3132 86.6767 96.9331C86.8886 96.6773 87.0348 96.3922 87.1079 96.1145C87.0568 96.1145 87.0129 96.1291 86.9617 96.1291C85.7923 96.2461 84.6228 95.7417 83.373 94.5942C82.5178 93.7975 82.1816 93.2566 82.2912 92.8181C82.3278 92.6792 82.4447 92.4307 82.8175 92.343C83.8261 92.0945 86.3258 93.1543 87.3418 94.2726C87.5684 94.5211 87.7292 94.8208 87.8096 95.1351C88.7598 94.6892 89.7757 93.6806 90.9671 92.0141C91.0841 91.8533 91.3106 91.8094 91.4788 91.9264C91.6396 92.0433 91.6834 92.2699 91.5665 92.438C90.185 94.3676 89.0375 95.464 87.8754 95.9098C87.8315 96.4215 87.6196 96.9477 87.2395 97.4009C86.8667 97.8468 86.3258 98.2268 85.6461 98.4315C85.7192 98.7604 85.6461 99.1112 85.4415 99.4474C84.8275 100.441 83.0587 101.216 81.1145 101.216ZM80.464 96.1437C80.7125 96.3265 81.0633 96.5677 81.5676 96.882C82.5617 97.5032 83.4461 97.7883 84.1989 97.8468C82.9856 97.0939 81.4068 96.4288 80.464 96.1437ZM83.0148 93.0374C83.0587 93.1543 83.2195 93.454 83.87 94.0533C84.959 95.0547 85.9458 95.5078 86.8886 95.3982C86.969 95.3909 87.0421 95.3763 87.1225 95.3617C87.0714 95.1424 86.9617 94.9377 86.8082 94.755C85.7777 93.6294 83.5192 92.9131 83.0221 93.0301L83.0148 93.0374Z" fill="#8A8B93"/>
<path d="M90.7915 100.215L79.4039 102.283L69.0615 45.8499L47.0904 49.8407L11.2832 113.422L15.1278 134.407L61.0581 126.067L64.201 143.229L86.1721 139.238L83.0292 122.076L94.4167 120.008L90.7915 100.215ZM33.1593 110.682L52.1337 77.374L57.4255 106.274L33.1593 110.682Z" fill="url(#paint0_linear_95_1281)"/>
<path d="M182.514 42.0053C182.09 38.1096 181.308 34.6451 180.175 31.6118C179.042 28.5858 177.339 25.611 175.066 22.702C172.793 19.793 169.694 17.2641 165.783 15.1225C161.865 12.9809 156.698 11.4899 150.273 10.6567C136.905 8.91709 126.482 11.2852 119.005 17.7757C111.528 24.2662 106.609 36.6916 104.241 55.0594C103.276 62.5292 103.042 69.4363 103.524 75.7733C104.007 82.1176 105.176 87.212 107.018 91.0712C109.54 96.4946 113.107 100.822 117.726 104.059C122.338 107.297 128.66 109.439 136.693 110.484C151.019 112.348 161.632 109.6 168.539 102.232C175.446 94.8646 180.029 82.4173 182.287 64.8828C183.296 57.062 183.369 49.4314 182.521 41.9907L182.514 42.0053Z" fill="url(#paint1_linear_95_1281)"/>
<path d="M143.286 102.992C141.531 102.934 139.66 102.773 137.723 102.525C131.036 101.655 125.853 99.9591 122.338 97.4886C118.866 95.0547 116.235 91.846 114.305 87.6871L114.269 87.614C112.865 84.6758 111.944 80.4877 111.542 75.1666C111.096 69.3998 111.323 62.9824 112.215 56.0899C114.824 35.8291 120.211 27.3725 124.275 23.8496C129.011 19.7418 135.399 17.8853 143.812 18.1704C145.537 18.2289 147.364 18.3824 149.235 18.6309C154.637 19.3325 158.905 20.5312 161.931 22.1831C164.862 23.7838 167.15 25.6257 168.736 27.6576C170.49 29.9088 171.806 32.1819 172.646 34.4331C173.538 36.8232 174.174 39.6664 174.525 42.8824C175.307 49.6872 175.226 56.7331 174.313 63.8741C172.288 79.6179 168.37 90.6765 162.677 96.7504C158.452 101.26 152.115 103.299 143.3 103L143.286 102.992Z" fill="#36363D"/>
<path d="M157.597 42.2246L157.692 39.4545L155.989 38.899C155.916 37.9561 155.762 37.0205 155.536 36.1215L156.975 35.0617L155.996 32.4597L154.213 32.6058C153.789 31.7653 153.292 30.9686 152.729 30.2158L153.65 28.6736L151.749 26.6489L150.156 27.4676C149.44 26.8609 148.68 26.3054 147.876 25.8157L148.131 24.0469L145.603 22.8994L144.448 24.2589C143.563 23.9738 142.65 23.7618 141.707 23.6157L141.276 21.8834L138.498 21.7884L137.95 23.4914C137 23.5718 136.071 23.718 135.172 23.9446L134.105 22.512L131.503 23.4841L131.649 25.2675C130.809 25.6988 130.012 26.1958 129.259 26.7586L127.725 25.8376L125.693 27.7307L126.511 29.3314C125.905 30.0404 125.349 30.8078 124.867 31.6118L123.098 31.3487L121.943 33.8776L123.31 35.0325C123.025 35.9169 122.798 36.8378 122.667 37.7734L120.927 38.2119L120.832 40.9821L122.542 41.5375C122.615 42.4877 122.769 43.416 122.996 44.315L121.556 45.3748L122.535 47.9768L124.318 47.8307C124.742 48.6712 125.239 49.4679 125.802 50.2207L124.881 51.763L126.782 53.7876L128.375 52.969C129.084 53.5756 129.851 54.1311 130.655 54.6208L130.392 56.3896L132.921 57.5371L134.083 56.1776C134.968 56.4627 135.881 56.6747 136.824 56.8208L137.256 58.5531L140.033 58.6481L140.581 56.9451C141.531 56.8647 142.46 56.7185 143.359 56.4919L144.418 57.9245L147.02 56.9524L146.882 55.169C147.722 54.7378 148.519 54.2407 149.272 53.6779L150.807 54.5989L152.839 52.7058L152.02 51.1051C152.627 50.3962 153.182 49.6287 153.664 48.8247L155.433 49.0878L156.588 46.5589L155.221 45.404C155.506 44.5196 155.726 43.606 155.864 42.6631L157.597 42.2246ZM138.885 51.1928C132.819 50.9882 128.075 45.9011 128.28 39.8345C128.485 33.7607 133.572 29.0171 139.638 29.2217C145.705 29.4264 150.448 34.5135 150.244 40.5874C150.039 46.6539 144.952 51.3975 138.885 51.1928Z" fill="url(#paint2_linear_95_1281)"/>
<path opacity="0.3" d="M169.13 93.0812L169.327 91.2174L168.209 90.7569C168.209 90.1137 168.151 89.4778 168.041 88.8639L169.064 88.2134L168.545 86.408H167.332C167.083 85.8306 166.798 85.2605 166.455 84.7269L167.149 83.7329L165.972 82.2711L164.854 82.7389C164.408 82.293 163.926 81.8837 163.4 81.5182L163.67 80.3269L162.025 79.4205L161.163 80.2903C160.571 80.0418 159.964 79.8591 159.35 79.7129L159.146 78.5142L157.282 78.3022L156.821 79.4205C156.178 79.4205 155.55 79.4863 154.928 79.596L154.278 78.5654L152.473 79.0916V80.3049C151.902 80.5534 151.332 80.8385 150.791 81.182L149.797 80.4804L148.336 81.6571L148.803 82.7754C148.372 83.2213 147.948 83.7037 147.583 84.2299L146.406 83.9668L145.5 85.6113L146.362 86.4592C146.121 87.0585 145.931 87.6579 145.785 88.2792L144.586 88.4765L144.389 90.3403L145.507 90.8081C145.507 91.444 145.565 92.0726 145.675 92.6938L144.644 93.3443L145.171 95.1497H146.384C146.633 95.7271 146.918 96.2972 147.261 96.8308L146.559 97.8248L147.729 99.2939L148.855 98.8189C149.3 99.2647 149.783 99.674 150.309 100.039L150.039 101.231L151.683 102.137L152.546 101.275C153.138 101.516 153.744 101.699 154.358 101.845L154.563 103.044L156.427 103.255L156.887 102.13C157.523 102.13 158.159 102.064 158.78 101.954L159.431 102.985L161.229 102.459V101.245C161.806 100.997 162.376 100.712 162.917 100.368L163.904 101.07L165.373 99.9006L164.898 98.7823C165.344 98.3364 165.753 97.8541 166.126 97.3278L167.303 97.5909L168.209 95.9464L167.347 95.0985C167.588 94.4992 167.77 93.8998 167.917 93.2859L169.123 93.0812H169.13ZM159.723 92.3576C158.853 93.9364 156.873 94.5211 155.294 93.6513C153.715 92.7816 153.145 90.8008 154.007 89.222C154.877 87.6433 156.851 87.0731 158.429 87.9356C160.008 88.8054 160.593 90.7789 159.723 92.3576Z" fill="url(#paint3_linear_95_1281)"/>
<path d="M179.488 61.4913L177.31 59.9857C177.098 59.1963 176.798 58.4288 176.433 57.7199L176.988 55.5271L173.831 52.143L171.609 52.5523C170.922 52.143 170.183 51.7922 169.409 51.5218L168.057 49.2413L163.43 49.0805L161.924 51.2586C161.924 51.2586 161.924 51.2586 161.917 51.2586C161.127 51.4706 160.367 51.7703 159.651 52.1357L157.458 51.5802L154.074 54.7378L154.484 56.9597C154.067 57.6541 153.723 58.3996 153.453 59.1671L151.173 60.5192L151.012 65.1459L153.19 66.6516C153.402 67.4483 153.694 68.2084 154.067 68.932L153.511 71.1174L156.669 74.5015L158.876 74.0995C159.571 74.5088 160.316 74.8597 161.098 75.1301L162.45 77.4032L167.077 77.564L168.583 75.3859C169.379 75.174 170.147 74.8743 170.871 74.5088L173.049 75.0643L176.433 71.9068L176.023 69.6848C176.44 68.9905 176.784 68.2449 177.054 67.4702L179.334 66.118L179.495 61.4913H179.488ZM165.067 68.5227C162.187 68.4277 159.943 66.0084 160.038 63.1432C160.133 60.2634 162.545 58.0195 165.418 58.1146C168.298 58.2096 170.542 60.6216 170.447 63.494C170.352 66.3592 167.94 68.6177 165.067 68.5227Z" fill="white"/>
<path d="M195.385 24.5585L195.765 23.6376C196.035 23.4987 196.298 23.3233 196.532 23.1406L197.38 23.1698L198.374 21.7445L198.052 20.9625C198.147 20.6774 198.22 20.3777 198.257 20.0708L198.988 19.3983L198.681 17.688L197.76 17.3079C197.621 17.0375 197.453 16.7817 197.263 16.5478L197.292 15.6999L195.867 14.7059L195.085 15.0275C194.793 14.9252 194.5 14.8594 194.193 14.8228L193.521 14.0919L191.81 14.3989L191.43 15.3198C191.153 15.4587 190.897 15.6268 190.663 15.8169L189.815 15.7876L188.821 17.2129L189.143 17.995C189.048 18.28 188.974 18.5797 188.938 18.894L188.207 19.5664L188.514 21.2768L189.435 21.6568C189.574 21.9346 189.749 22.1904 189.939 22.4243L189.91 23.2648L191.335 24.2589L192.117 23.9373C192.41 24.0396 192.702 24.1054 193.009 24.1419L193.689 24.8728L195.399 24.5658L195.385 24.5585ZM191.664 19.8149C191.474 18.7478 192.183 17.7392 193.243 17.5491C194.31 17.3591 195.319 18.0681 195.509 19.1279C195.699 20.1877 194.99 21.2037 193.93 21.3937C192.87 21.5837 191.854 20.8748 191.664 19.8149Z" fill="url(#paint4_linear_95_1281)"/>
<path d="M175.337 19.7126L174.781 19.2448C175.753 18.0973 177.127 16.6428 179.174 15.5684L179.51 16.2189C177.332 17.3591 175.936 19.0109 175.337 19.7199V19.7126Z" fill="url(#paint5_linear_95_1281)"/>
<path d="M181.168 15.5537L180.883 14.8813C183.646 13.6972 186.533 13.2368 189.464 13.5072L189.398 14.2381C186.591 13.9677 183.828 14.4208 181.175 15.5537H181.168Z" fill="url(#paint6_linear_95_1281)"/>
<path d="M179.788 20.6116L179.182 20.2023C180.68 17.995 183.648 16.08 186.396 15.5318L186.535 16.2481C183.962 16.7597 181.184 18.5505 179.781 20.6116H179.788Z" fill="url(#paint7_linear_95_1281)"/>
<path d="M131.284 90.9543C131.189 90.9543 131.094 90.9177 131.021 90.8446L129.486 89.2659C128.704 89.1928 127.937 89.0466 127.184 88.8346L124.794 89.8871C124.677 89.9383 124.545 89.9237 124.443 89.8579L120.437 87.2047C120.335 87.1389 120.269 87.022 120.277 86.8977L120.313 84.2957C119.824 83.689 119.392 83.0312 119.02 82.3369L116.966 81.5402C116.849 81.4963 116.761 81.394 116.739 81.2697L115.782 76.5627C115.76 76.4384 115.796 76.3142 115.884 76.2265L117.463 74.6916C117.536 73.9168 117.682 73.142 117.887 72.3892L116.834 70.0064C116.783 69.8895 116.798 69.7579 116.863 69.6556L119.517 65.6502C119.582 65.5479 119.685 65.4821 119.824 65.4894L122.426 65.526C123.04 65.0363 123.697 64.605 124.384 64.2396L125.181 62.1857C125.225 62.0688 125.327 61.9811 125.452 61.9591L130.159 61.0016C130.283 60.9797 130.407 61.0163 130.495 61.104L132.022 62.6827C132.797 62.7558 133.572 62.902 134.325 63.1067L136.708 62.0541C136.824 62.003 136.956 62.0176 137.058 62.0834L141.064 64.7366C141.166 64.8024 141.232 64.9193 141.225 65.0436L141.188 67.6529C141.678 68.2596 142.109 68.9174 142.474 69.6044L144.528 70.4011C144.645 70.445 144.733 70.5473 144.755 70.6716L145.712 75.3786C145.734 75.5029 145.698 75.6271 145.61 75.7148L144.031 77.2497C143.958 78.0172 143.812 78.792 143.6 79.5448L144.652 81.9349C144.704 82.0518 144.689 82.1834 144.623 82.2857L141.97 86.2838C141.904 86.3861 141.795 86.4373 141.663 86.4446L139.061 86.408C138.454 86.8904 137.797 87.3217 137.102 87.6944L136.306 89.7483C136.262 89.8652 136.159 89.9529 136.035 89.9749L131.328 90.9323C131.328 90.9323 131.277 90.9323 131.255 90.9323L131.284 90.9543ZM127.162 88.0818C127.162 88.0818 127.228 88.0818 127.264 88.0964C128.046 88.323 128.858 88.4765 129.683 88.5496C129.771 88.5496 129.852 88.5934 129.917 88.6592L131.408 90.1941L135.721 89.317L136.496 87.3217C136.525 87.2413 136.591 87.1682 136.671 87.1316C137.402 86.7515 138.096 86.2984 138.732 85.7794C138.798 85.7283 138.871 85.6917 138.966 85.699L141.502 85.7356L143.936 82.0664L142.913 79.7421C142.876 79.6617 142.876 79.574 142.898 79.4936C143.132 78.6969 143.278 77.8783 143.351 77.0743C143.351 76.9866 143.395 76.9062 143.461 76.8404L144.996 75.3494L144.119 71.037L142.124 70.2622C142.036 70.233 141.97 70.1672 141.926 70.0868C141.546 69.3559 141.093 68.6689 140.574 68.033C140.516 67.9672 140.486 67.8795 140.494 67.7918L140.53 65.2555L136.861 62.8216L134.537 63.8449C134.456 63.8814 134.369 63.8814 134.288 63.8595C133.499 63.6256 132.68 63.4794 131.862 63.4063C131.774 63.4063 131.693 63.3625 131.628 63.2967L130.144 61.7618L125.832 62.6389L125.057 64.6343C125.028 64.7147 124.962 64.7877 124.881 64.8243C124.151 65.2044 123.463 65.6575 122.82 66.1765C122.754 66.2276 122.667 66.2715 122.579 66.2569L120.043 66.2203L117.609 69.8895L118.632 72.2138C118.676 72.3161 118.676 72.4257 118.625 72.5281C118.42 73.259 118.267 74.0703 118.201 74.8889C118.201 74.9766 118.157 75.057 118.091 75.1228L116.556 76.6138L117.433 80.9262L119.429 81.701C119.517 81.7375 119.59 81.8033 119.626 81.891C120.006 82.6146 120.459 83.3017 120.971 83.9302C121.03 83.996 121.059 84.0837 121.059 84.1714L121.022 86.7077L124.691 89.1416L127.016 88.1183C127.06 88.0964 127.111 88.0891 127.162 88.0891V88.0818ZM130.758 85.7137C128.909 85.7137 127.045 85.1874 125.393 84.0984C123.222 82.6585 121.746 80.4657 121.227 77.9149C120.708 75.364 121.212 72.7693 122.652 70.5985C125.627 66.1253 131.679 64.8901 136.152 67.8576C140.625 70.825 141.853 76.8843 138.886 81.3574C137.015 84.1788 133.915 85.7137 130.758 85.7137ZM123.259 71.0005C121.929 73.0032 121.461 75.4078 121.943 77.7687C122.426 80.1295 123.792 82.1541 125.795 83.4844C129.939 86.2253 135.538 85.0924 138.279 80.9554C141.02 76.8185 139.887 71.2124 135.75 68.4642C131.613 65.7233 126.007 66.8562 123.259 71.0005Z" fill="white"/>
<path d="M270.514 106.808L259.046 105.258L266.633 48.3862L244.501 45.3967L190.815 94.8281L187.994 115.973L234.253 122.215L231.944 139.509L254.076 142.498L256.385 125.205L267.853 126.754L270.514 106.808ZM212.465 98.9723L240.795 73.1493L236.907 102.269L212.465 98.9723Z" fill="url(#paint8_linear_95_1281)"/>
<path d="M247.345 141.957C247.345 141.957 247.301 141.957 247.279 141.957C247.082 141.921 246.95 141.731 246.987 141.533L264.039 48.028C264.075 47.8307 264.265 47.7064 264.463 47.7356C264.66 47.7722 264.791 47.9622 264.755 48.1596L247.703 141.665C247.674 141.84 247.52 141.964 247.345 141.964V141.957Z" fill="#8A8B93"/>
<path d="M262.475 49.5922C262.46 49.9211 262.19 50.1842 261.853 50.1696C261.517 50.155 261.261 49.8845 261.276 49.5483C261.291 49.2121 261.561 48.9563 261.897 48.9709C262.226 48.9855 262.489 49.2559 262.475 49.5922Z" fill="#8A8B93"/>
<path d="M260.041 62.2369C260.026 62.5658 259.756 62.8289 259.42 62.8143C259.084 62.7997 258.828 62.5292 258.842 62.193C258.857 61.8568 259.127 61.601 259.464 61.6156C259.793 61.6302 260.056 61.9007 260.041 62.2369Z" fill="#8A8B93"/>
<path d="M257.606 74.8816C257.591 75.2105 257.32 75.4736 256.984 75.459C256.648 75.4444 256.392 75.174 256.407 74.8377C256.421 74.5015 256.692 74.2457 257.028 74.2603C257.357 74.2749 257.62 74.5454 257.606 74.8816Z" fill="#8A8B93"/>
<path d="M252.811 88.0453C252.796 88.3742 252.526 88.6373 252.189 88.6227C251.853 88.6081 251.597 88.3376 251.612 88.0014C251.627 87.6652 251.897 87.4094 252.233 87.424C252.569 87.4386 252.825 87.709 252.811 88.0453Z" fill="#8A8B93"/>
<path d="M252.731 100.171C252.716 100.5 252.445 100.763 252.109 100.748C251.773 100.734 251.517 100.463 251.532 100.127C251.546 99.791 251.817 99.5351 252.153 99.5498C252.489 99.5644 252.745 99.8348 252.731 100.171Z" fill="#8A8B93"/>
<path d="M250.297 112.816C250.282 113.145 250.012 113.408 249.676 113.393C249.339 113.379 249.084 113.108 249.098 112.772C249.113 112.443 249.383 112.18 249.72 112.194C250.056 112.209 250.312 112.48 250.297 112.816Z" fill="#8A8B93"/>
<path d="M247.863 125.46C247.849 125.789 247.578 126.053 247.242 126.038C246.906 126.023 246.65 125.753 246.665 125.417C246.679 125.08 246.95 124.825 247.286 124.839C247.622 124.854 247.878 125.124 247.863 125.46Z" fill="#8A8B93"/>
<path d="M245.422 138.113C245.407 138.441 245.137 138.705 244.801 138.69C244.464 138.675 244.209 138.405 244.223 138.069C244.238 137.732 244.508 137.477 244.845 137.491C245.181 137.506 245.437 137.776 245.422 138.113Z" fill="#8A8B93"/>
<path d="M252.213 88.3888C252.045 88.3888 251.891 88.2718 251.855 88.0964C251.811 87.8991 251.935 87.7017 252.132 87.6652L253.945 87.2778C254.142 87.2413 254.34 87.3582 254.376 87.5556C254.42 87.7529 254.296 87.9502 254.098 87.9868L252.286 88.3742C252.286 88.3742 252.235 88.3815 252.205 88.3815L252.213 88.3888Z" fill="#8A8B93"/>
<path d="M258.27 81.6571C258.27 81.6571 256.633 85.9183 256.085 88.4984C255.537 91.0785 255.5 96.8454 255.5 96.8454" fill="#8A8B93"/>
<path d="M255.5 97.2182C255.296 97.2182 255.135 97.0501 255.135 96.8527C255.135 96.6188 255.171 91.0201 255.727 88.4253C256.275 85.8452 257.861 81.701 257.927 81.5256C258 81.3355 258.212 81.2478 258.402 81.3136C258.592 81.3867 258.687 81.5987 258.614 81.7887C258.599 81.8325 256.984 86.0499 256.443 88.5788C255.91 91.0932 255.866 96.8015 255.866 96.8527C255.866 97.0574 255.698 97.2182 255.5 97.2182Z" fill="#8A8B93"/>
<path d="M121.863 160.303C122.879 143.931 121.008 114.161 151.786 118.1C184.779 122.325 175.336 160.902 175.336 160.902L121.855 160.303H121.863Z" fill="#36363D"/>
<path d="M143.102 150.465C150.522 150.465 156.536 144.45 156.536 137.031C156.536 129.611 150.522 123.597 143.102 123.597C135.683 123.597 129.668 129.611 129.668 137.031C129.668 144.45 135.683 150.465 143.102 150.465Z" fill="#1F1F21"/>
<path d="M144.871 123.619C138.512 122.53 131.708 127.222 131.035 131.973L156.259 134.29C155.367 128.874 149.922 124.481 144.871 123.619Z" fill="#8A8B93"/>
<path d="M153.379 136.695C153.196 140.203 151.288 142.958 149.103 142.849C146.917 142.739 145.302 139.801 145.485 136.285C145.668 132.777 147.575 130.021 149.761 130.131C151.946 130.241 153.561 133.179 153.379 136.695Z" fill="#8A8B93"/>
<path d="M143.103 151.188C135.296 151.188 128.938 144.837 128.938 137.023C128.938 129.21 135.289 122.858 143.103 122.858C150.916 122.858 157.268 129.21 157.268 137.023C157.268 144.837 150.916 151.188 143.103 151.188ZM143.103 124.328C136.1 124.328 130.399 130.021 130.399 137.031C130.399 144.04 136.093 149.734 143.103 149.734C150.112 149.734 155.806 144.04 155.806 137.031C155.806 130.021 150.112 124.328 143.103 124.328Z" fill="url(#paint9_linear_95_1281)"/>
<path opacity="0.3" d="M171.585 159.894C171.585 159.894 171.527 159.894 171.498 159.886C171.3 159.842 171.183 159.645 171.227 159.448C171.249 159.353 173.581 149.442 171.162 139.421C171.118 139.223 171.235 139.026 171.432 138.982C171.622 138.938 171.827 139.055 171.871 139.253C174.334 149.449 171.958 159.521 171.936 159.623C171.892 159.791 171.746 159.901 171.578 159.901L171.585 159.894Z" fill="white"/>
<path opacity="0.3" d="M169.553 133.932C169.415 133.932 169.283 133.851 169.225 133.72C168.282 131.666 167.12 129.787 165.76 128.121C165.636 127.967 165.658 127.734 165.811 127.609C165.965 127.478 166.199 127.507 166.323 127.661C167.719 129.371 168.925 131.308 169.89 133.413C169.977 133.595 169.89 133.815 169.707 133.895C169.656 133.917 169.605 133.932 169.553 133.932Z" fill="white"/>
<path d="M53.3613 237.107C53.2736 237.107 53.1786 237.107 53.0909 237.107C51.0736 237.048 49.4802 235.367 49.5387 233.35C49.5971 231.333 51.2563 229.776 53.2955 229.798C53.3175 229.798 53.3394 229.798 53.3686 229.798C55.481 229.798 60.5608 227.232 71.1882 210.48C71.7583 209.581 72.6939 208.974 73.7464 208.821C74.7989 208.667 75.8733 208.981 76.67 209.683C89.7825 221.114 103.677 228.234 103.816 228.307C105.614 229.22 106.33 231.42 105.417 233.218C104.503 235.016 102.303 235.74 100.505 234.826C99.9494 234.549 87.809 228.336 75.0693 217.906C66.1595 231.296 59.5521 237.107 53.3613 237.107Z" fill="#8A8B93"/>
<path d="M75.9766 209.025C75.8743 209.025 75.772 209.025 75.6623 209.003C74.4636 208.835 73.6304 207.724 73.7985 206.526C74.3175 202.886 73.6743 189.254 69.0695 178.656C68.6529 177.691 68.9745 176.566 69.8443 175.966C79.8577 169.147 101.186 168.328 102.085 168.299C103.291 168.27 104.307 169.205 104.35 170.411C104.394 171.625 103.444 172.633 102.238 172.677C102.041 172.677 83.3953 173.401 73.8131 178.671C77.8916 189.225 78.8199 202.381 78.1401 207.14C77.9866 208.236 77.0437 209.025 75.9693 209.025H75.9766Z" fill="#8A8B93"/>
<path d="M79.6594 206.189C78.1976 202.747 71.6268 203.141 67.7676 206.087C65.7064 207.666 62.9143 212.402 62.622 214.12C62.3296 215.837 63.521 217.394 65.5602 217.219C68.0818 216.999 71.539 213.338 71.539 213.338C69.2367 215.596 72.2042 217.19 76.6408 213.922C79.0966 212.11 81.2894 210.041 79.6594 206.189Z" fill="url(#paint10_linear_95_1281)"/>
<path d="M205.369 161.268C205.369 161.268 205.303 161.268 205.266 161.253C205.069 161.195 204.959 160.997 205.018 160.8C205.99 157.408 207.057 155.34 208.453 154.185C208.241 153.454 208.263 152.621 208.563 151.802C208.855 151.006 209.425 150.216 210.288 149.61C209.864 149.149 209.71 148.55 209.856 147.87C210.024 147.11 210.573 146.284 211.42 145.56C211.092 145.18 211.011 144.764 211.004 144.457C210.982 142.279 215.031 138.953 219.599 138.332C219.797 138.295 219.987 138.441 220.009 138.646C220.038 138.843 219.899 139.033 219.694 139.055C215.353 139.647 211.713 142.79 211.727 144.449C211.727 144.72 211.83 144.932 211.991 145.107C213.635 143.96 216.062 143.222 218.773 143.748C221.017 144.179 221.931 144.654 221.821 145.334C221.624 146.613 216.844 146.883 213.642 146.496C212.919 146.408 212.385 146.24 211.998 146.021C211.201 146.671 210.69 147.402 210.558 148.016C210.441 148.564 210.616 148.945 210.923 149.215C212.283 148.513 214.191 148.221 216.712 148.784C220.031 149.515 220.155 149.917 220.228 150.158C220.279 150.333 220.235 150.509 220.111 150.64C219.409 151.378 214.329 151.028 211.779 150.406C211.45 150.326 211.15 150.216 210.901 150.077C210.054 150.611 209.513 151.327 209.242 152.058C209.03 152.643 208.979 153.22 209.074 153.739C209.206 153.659 209.337 153.586 209.476 153.527C210.989 152.811 212.816 152.928 215.068 153.893C216.559 154.536 217.282 155.099 217.333 155.676C217.348 155.844 217.319 156.173 216.917 156.436C215.806 157.175 211.896 157.065 209.864 155.983C209.381 155.727 209.008 155.347 208.738 154.894C207.547 155.983 206.582 157.942 205.697 161.005C205.654 161.165 205.507 161.268 205.347 161.268H205.369ZM209.337 154.448C209.542 154.821 209.842 155.128 210.229 155.34C211.881 156.217 215.126 156.422 216.339 155.925C216.588 155.822 216.624 155.742 216.624 155.742C216.624 155.742 216.588 155.333 214.797 154.565C212.751 153.688 211.113 153.564 209.805 154.185C209.644 154.258 209.491 154.346 209.337 154.448ZM211.771 149.646C211.837 149.668 211.896 149.683 211.961 149.697C214.541 150.326 218.028 150.436 219.219 150.238C218.846 150.085 218.094 149.829 216.559 149.493C214.534 149.047 212.948 149.186 211.764 149.639L211.771 149.646ZM212.692 145.539C213.021 145.663 213.394 145.736 213.745 145.772C217.385 146.204 220.601 145.692 221.083 145.239C220.959 145.129 220.469 144.815 218.649 144.464C216.252 144.011 214.154 144.61 212.692 145.531V145.539Z" fill="#8A8B93"/>
<path d="M110.226 235.886C110.709 235.733 110.548 235.265 110.007 235.265H100.111C81.2678 233.269 68.1042 235.945 76.4 236.573C84.6958 237.202 75.8153 237.07 69.756 239.365C63.6968 241.66 114.817 242.238 119.472 239.365C123.763 236.719 103.553 238.028 110.226 235.886Z" fill="#8A8B93"/>
<path d="M181.079 238.802L94.9784 235.945L91.4043 152.46L193.081 154.733L181.079 238.802Z" fill="url(#paint11_linear_95_1281)"/>
<path d="M121.862 237.202C121.672 237.202 121.511 237.056 121.496 236.866L114.597 153.016C114.582 152.811 114.728 152.636 114.933 152.621C115.138 152.606 115.313 152.753 115.328 152.957L122.227 236.807C122.242 237.012 122.096 237.187 121.891 237.202C121.884 237.202 121.869 237.202 121.862 237.202Z" fill="#8A8B93"/>
<path d="M181.08 238.802L204.221 235.279L211.508 157.65L193.082 154.733L181.08 238.802Z" fill="url(#paint12_linear_95_1281)"/>
<path opacity="0.2" d="M181.08 238.802L204.221 235.279L211.508 157.65L193.082 154.733L181.08 238.802Z" fill="#8A8B93"/>
<path d="M102.333 219.857L100.213 170.258C99.994 165.083 104.189 160.793 109.372 160.91L173.735 162.349C179.108 162.466 183.171 167.261 182.411 172.582L175.278 222.569C174.634 227.101 170.68 230.419 166.105 230.265L111.002 228.438C106.316 228.285 102.538 224.542 102.34 219.857H102.333Z" fill="#36363D"/>
<path d="M109.29 176.127L119.245 176.441L119.165 179.007L112.93 178.809L112.872 180.717L118.653 180.9L118.573 183.356L112.791 183.173L112.718 185.541L119.136 185.746L119.048 188.472L108.91 188.151L109.29 176.127Z" fill="white"/>
<path d="M121.095 188.538L121.475 176.514L127.666 176.712C128.814 176.748 129.691 176.873 130.29 177.092C130.889 177.311 131.372 177.691 131.723 178.232C132.081 178.78 132.242 179.431 132.22 180.198C132.198 180.863 132.037 181.433 131.737 181.909C131.438 182.384 131.036 182.764 130.524 183.049C130.202 183.231 129.764 183.378 129.201 183.48C129.64 183.641 129.954 183.802 130.151 183.955C130.283 184.057 130.473 184.277 130.729 184.606C130.984 184.935 131.145 185.19 131.226 185.366L132.914 188.911L128.719 188.779L126.847 185.044C126.614 184.562 126.394 184.247 126.204 184.094C125.941 183.897 125.641 183.794 125.305 183.787H124.976L124.823 188.655L121.088 188.538H121.095ZM125.057 181.507L126.621 181.558C126.789 181.558 127.118 181.521 127.608 181.426C127.856 181.382 128.061 181.265 128.222 181.068C128.382 180.871 128.47 180.644 128.477 180.381C128.492 179.994 128.375 179.694 128.134 179.475C127.893 179.255 127.432 179.138 126.76 179.116L125.13 179.065L125.049 181.507H125.057Z" fill="white"/>
<path d="M134.164 188.954L134.544 176.931L140.734 177.128C141.882 177.165 142.759 177.289 143.358 177.508C143.958 177.728 144.44 178.108 144.791 178.649C145.149 179.197 145.31 179.847 145.288 180.615C145.266 181.28 145.105 181.85 144.806 182.325C144.506 182.8 144.104 183.18 143.592 183.465C143.271 183.648 142.832 183.794 142.269 183.897C142.708 184.057 143.022 184.218 143.22 184.372C143.351 184.474 143.541 184.693 143.797 185.022C144.045 185.351 144.214 185.607 144.294 185.782L145.982 189.327L141.787 189.196L139.916 185.461C139.682 184.978 139.463 184.664 139.273 184.511C139.009 184.313 138.71 184.211 138.374 184.204H138.045L137.891 189.071L134.156 188.954H134.164ZM138.125 181.923L139.689 181.974C139.857 181.974 140.186 181.938 140.676 181.843C140.924 181.799 141.129 181.682 141.29 181.485C141.451 181.287 141.538 181.061 141.546 180.798C141.56 180.41 141.443 180.111 141.202 179.891C140.961 179.672 140.501 179.555 139.828 179.533L138.198 179.482L138.118 181.923H138.125Z" fill="white"/>
<path d="M146.61 183.341C146.676 181.375 147.268 179.869 148.394 178.809C149.519 177.75 151.061 177.253 153.013 177.311C155.016 177.377 156.536 177.962 157.588 179.073C158.634 180.184 159.131 181.704 159.072 183.641C159.028 185.044 158.751 186.192 158.254 187.076C157.749 187.96 157.048 188.64 156.134 189.108C155.22 189.583 154.102 189.795 152.764 189.751C151.405 189.707 150.294 189.459 149.417 188.998C148.54 188.538 147.845 187.829 147.319 186.879C146.793 185.929 146.559 184.744 146.603 183.341H146.61ZM150.323 183.473C150.287 184.686 150.484 185.563 150.915 186.111C151.346 186.659 151.953 186.937 152.728 186.966C153.525 186.988 154.153 186.754 154.606 186.243C155.059 185.739 155.308 184.81 155.352 183.465C155.388 182.332 155.184 181.499 154.745 180.966C154.307 180.432 153.693 180.147 152.911 180.125C152.158 180.103 151.551 180.344 151.083 180.863C150.616 181.382 150.36 182.252 150.316 183.473H150.323Z" fill="white"/>
<path d="M160.937 189.81L161.317 177.786L167.508 177.984C168.655 178.02 169.532 178.144 170.132 178.364C170.731 178.583 171.214 178.963 171.564 179.504C171.923 180.052 172.083 180.703 172.061 181.47C172.04 182.135 171.879 182.705 171.579 183.18C171.279 183.655 170.877 184.035 170.366 184.321C170.044 184.503 169.606 184.649 169.043 184.752C169.481 184.913 169.796 185.073 169.993 185.227C170.125 185.329 170.315 185.548 170.57 185.877C170.819 186.206 170.987 186.462 171.067 186.638L172.756 190.182L168.56 190.051L166.689 186.316C166.455 185.834 166.236 185.519 166.046 185.366C165.783 185.168 165.483 185.066 165.147 185.059H164.818L164.665 189.927L160.93 189.81H160.937ZM164.899 182.778L166.463 182.829C166.631 182.829 166.96 182.793 167.449 182.698C167.698 182.654 167.903 182.537 168.063 182.34C168.224 182.142 168.312 181.916 168.319 181.653C168.334 181.265 168.217 180.966 167.976 180.746C167.734 180.527 167.274 180.41 166.602 180.388L164.972 180.337L164.891 182.778H164.899Z" fill="white"/>
<path d="M166.849 210.239C166.586 210.239 166.33 210.136 166.14 209.924L159.884 203.076L153.13 209.245C152.735 209.603 152.129 209.573 151.778 209.186L145.521 202.337L138.768 208.506C138.373 208.864 137.766 208.835 137.415 208.448L131.159 201.599L124.405 207.768C124.215 207.944 123.967 208.031 123.718 208.017C123.462 208.002 123.221 207.892 123.053 207.702L116.797 200.854L110.043 207.023C109.656 207.381 109.042 207.351 108.691 206.964C108.333 206.569 108.362 205.963 108.749 205.612L116.212 198.793C116.599 198.434 117.213 198.464 117.564 198.851L123.821 205.7L130.574 199.531C130.764 199.355 131.013 199.268 131.261 199.282C131.517 199.297 131.758 199.406 131.926 199.597L138.183 206.445L144.937 200.276C145.324 199.918 145.938 199.947 146.289 200.335L152.545 207.183L159.299 201.014C159.686 200.656 160.293 200.686 160.651 201.073L167.558 208.631C167.916 209.025 167.887 209.632 167.5 209.983C167.317 210.151 167.083 210.231 166.856 210.231L166.849 210.239Z" fill="white"/>
<path d="M51.1833 240.579L46.6078 238.393L42.5293 218.542L44.744 216.1L51.1833 240.579Z" fill="url(#paint13_linear_95_1281)"/>
<path d="M51.1834 240.579L57.25 237.034L52.0459 220.669L44.7441 216.1L51.1834 240.579Z" fill="url(#paint14_linear_95_1281)"/>
<path opacity="0.2" d="M51.1834 240.579L57.25 237.034L52.0459 220.669L44.7441 216.1L51.1834 240.579Z" fill="#8A8B93"/>
<path d="M150.734 244.189C150.558 244.189 150.39 244.189 150.23 244.189C148.212 244.131 146.619 242.45 146.677 240.432C146.736 238.415 148.402 236.829 150.434 236.88C156.062 237.063 167.983 233.606 174.788 226.998C175.212 226.589 175.724 226.289 176.286 226.121C187.828 222.657 192.118 229.651 192.301 229.951L186.008 233.671C186.008 233.671 186.029 233.723 186.095 233.803C186.022 233.708 184.392 231.581 179.188 232.897C170.644 240.696 157.531 244.189 150.749 244.189H150.734Z" fill="#8A8B93"/>
<path d="M150.323 249.043L137.013 248.202L135.961 223.665L153.854 224.33L150.323 249.043Z" fill="url(#paint15_linear_95_1281)"/>
<path d="M150.324 249.043L153.438 245.951L155.367 230.646L153.855 224.33L150.324 249.043Z" fill="url(#paint16_linear_95_1281)"/>
<path opacity="0.2" d="M150.324 249.043L153.438 245.951L155.367 230.646L153.855 224.33L150.324 249.043Z" fill="#8A8B93"/>
<path d="M227.449 239.753C226.989 239.753 226.521 239.606 226.126 239.307C218.532 233.533 208.256 223.278 204.316 213.389C204.258 213.243 204.214 213.096 204.192 212.943C202.269 201.519 200.435 177.465 200.354 176.449C200.259 175.243 201.166 174.19 202.372 174.095C203.578 174.007 204.63 174.906 204.725 176.112C204.747 176.361 206.596 200.649 208.475 211.978C212.407 221.597 223.064 231.471 228.78 235.813C229.744 236.544 229.934 237.918 229.196 238.883C228.765 239.453 228.107 239.745 227.449 239.745V239.753Z" fill="#8A8B93"/>
<path d="M237.587 240.856C235.891 240.856 233.969 240.089 231.878 238.576C230.899 237.867 230.68 236.493 231.389 235.513C232.098 234.534 233.472 234.315 234.451 235.024C236.264 236.332 237.251 236.478 237.594 236.478C238.807 236.478 239.787 237.458 239.787 238.671C239.787 239.884 238.807 240.864 237.594 240.864L237.587 240.856Z" fill="#8A8B93"/>
<path d="M232.485 238.51C234.831 231.537 244.45 232.919 247.761 233.949C251.072 234.987 254.054 236.288 255.852 237.458C257.643 238.627 257.672 240.593 255.282 241.712C252.329 243.093 244.932 241.865 244.932 241.865C248.762 243.539 244.925 246.229 238.201 243.59C236.015 242.727 231.652 241.061 232.478 238.503L232.485 238.51Z" fill="url(#paint17_linear_95_1281)"/>
<path d="M209.14 179.453C208.27 185.373 203.366 189.744 199.375 189.152C195.384 188.567 195.223 183.275 196.093 177.355C196.963 171.435 198.542 167.122 202.532 167.707C206.523 168.292 210.017 173.525 209.14 179.445V179.453Z" fill="#8A8B93"/>
<path d="M112.668 155.808C112.999 155.808 113.267 155.539 113.267 155.208C113.267 154.877 112.999 154.609 112.668 154.609C112.337 154.609 112.068 154.877 112.068 155.208C112.068 155.539 112.337 155.808 112.668 155.808Z" fill="#8A8B93"/>
<path d="M118.763 159.528C118.763 159.857 118.493 160.127 118.164 160.127C117.835 160.127 117.564 159.857 117.564 159.528C117.564 159.199 117.835 158.929 118.164 158.929C118.493 158.929 118.763 159.199 118.763 159.528Z" fill="#8A8B93"/>
<path d="M119.429 230.353C119.429 230.682 119.159 230.953 118.83 230.953C118.501 230.953 118.23 230.682 118.23 230.353C118.23 230.024 118.501 229.754 118.83 229.754C119.159 229.754 119.429 230.024 119.429 230.353Z" fill="#8A8B93"/>
<path d="M124.925 234.673C124.925 235.002 124.655 235.272 124.326 235.272C123.997 235.272 123.727 235.002 123.727 234.673C123.727 234.344 123.997 234.073 124.326 234.073C124.655 234.073 124.925 234.344 124.925 234.673Z" fill="#8A8B93"/>
<path d="M19.5795 241.858C17.8399 241.858 15.4864 240.805 14.2219 238.971C14.105 238.802 14.1488 238.576 14.3169 238.459C14.485 238.342 14.7116 238.386 14.8286 238.554C16.1954 240.52 19.1994 241.573 20.537 240.951C20.6758 240.886 20.7928 240.805 20.8805 240.703C19.6891 240.155 18.6001 239.073 18.3004 237.428C18.1323 236.5 18.0007 235.25 18.7682 235.075C19.8134 234.841 21.1875 237.377 21.7137 239.299C21.8087 239.658 21.8453 239.987 21.8087 240.279C22.2692 240.403 22.7224 240.44 23.1171 240.381C23.4314 240.337 23.8845 240.206 24.1184 239.833C23.234 239.234 22.6347 238.174 22.4373 236.771C22.1523 234.775 22.3642 234.424 22.5908 234.256C22.737 234.147 22.9197 234.125 23.0951 234.198C23.8772 234.534 24.8274 237.363 25.0028 238.971C25.0247 239.146 25.0247 239.314 25.0028 239.475C25.3025 239.592 25.6314 239.658 25.9895 239.665C26.6254 239.701 27.2467 239.497 27.751 239.204C27.6487 239.139 27.5464 239.066 27.4587 238.985C26.6985 238.335 26.3915 237.304 26.5231 235.82C26.6254 234.673 26.8813 234.052 27.3417 233.854C27.5025 233.781 27.8314 233.715 28.2261 234.03C29.0155 234.658 29.7537 236.661 29.4906 238.093C29.4321 238.393 29.3079 238.671 29.1251 238.934C30.4627 239.168 32.3558 238.788 33.9784 238.386C34.1757 238.335 34.3731 238.459 34.4242 238.656C34.4754 238.854 34.3511 239.051 34.1538 239.102C32.173 239.592 30.0388 239.987 28.5331 239.555C27.8607 240.089 26.9178 240.41 25.9749 240.403C25.5437 240.396 25.1417 240.315 24.7762 240.177C24.4912 240.666 23.9503 240.995 23.2267 241.105C22.7443 241.178 22.1669 241.134 21.5895 240.966C21.4214 241.244 21.1802 241.463 20.8513 241.616C20.5004 241.777 20.0692 241.858 19.5941 241.858H19.5795ZM18.9509 235.806C18.907 235.915 18.8339 236.288 19.0094 237.297C19.2506 238.642 20.1203 239.533 21.0851 240.008C21.0851 239.855 21.0486 239.68 20.9974 239.49C20.42 237.399 19.331 235.959 18.9436 235.806H18.9509ZM23.0221 235.17C23.0221 235.448 23.044 235.908 23.1536 236.676C23.2998 237.721 23.6872 238.517 24.2646 239.029C24.0965 237.56 23.446 235.864 23.0221 235.17ZM27.6195 234.534C27.6195 234.534 27.3417 234.673 27.2394 235.893C27.1298 237.121 27.3563 237.955 27.9191 238.437C28.0507 238.547 28.1969 238.642 28.3577 238.715C28.5623 238.488 28.7085 238.232 28.7524 237.962C28.9497 236.902 28.4454 235.353 27.8753 234.724C27.7291 234.563 27.6341 234.527 27.6122 234.527L27.6195 234.534Z" fill="#8A8B93"/>
<path d="M126.555 247.383L128.536 243.948L126.555 240.513H124.436L125.634 243.948L124.436 247.383H126.555Z" fill="#8A8B93"/>
<path d="M124.576 245.739C123.589 245.739 122.785 244.935 122.785 243.948C122.785 242.961 123.589 242.165 124.576 242.165L121.206 241.492L120.314 244.211L121.82 246.506L124.576 245.739Z" fill="#8A8B93"/>
<path d="M124.868 240.513H120.899L118.918 243.948L120.899 247.383H124.868L126.848 243.948L124.868 240.513ZM122.887 245.739C121.9 245.739 121.096 244.935 121.096 243.948C121.096 242.961 121.9 242.165 122.887 242.165C123.874 242.165 124.67 242.961 124.67 243.948C124.67 244.935 123.874 245.739 122.887 245.739Z" fill="url(#paint18_linear_95_1281)"/>
<path d="M264.711 240.279L263.242 237.728L264.711 235.177H266.283L265.398 237.728L266.283 240.279H264.711Z" fill="url(#paint19_linear_95_1281)"/>
<path d="M266.18 239.058C266.911 239.058 267.51 238.459 267.51 237.728C267.51 236.997 266.911 236.405 266.18 236.405L268.679 235.908L269.345 237.925L268.226 239.628L266.18 239.058Z" fill="url(#paint20_linear_95_1281)"/>
<path d="M265.969 235.177H268.915L270.384 237.728L268.915 240.279H265.969L264.5 237.728L265.969 235.177ZM267.438 239.058C268.169 239.058 268.769 238.459 268.769 237.728C268.769 236.997 268.169 236.405 267.438 236.405C266.707 236.405 266.115 236.997 266.115 237.728C266.115 238.459 266.707 239.058 267.438 239.058Z" fill="#8A8B93"/>
<path d="M209.937 243.67H213.241C214.103 243.67 214.805 242.969 214.805 242.106C214.805 241.244 214.103 240.542 213.241 240.542H209.937C209.075 240.542 208.373 241.244 208.373 242.106C208.373 242.969 209.075 243.67 209.937 243.67Z" fill="#8A8B93"/>
<path d="M204.661 240.717C205.479 238.985 207.453 238.203 209.075 238.971C210.698 239.738 211.356 241.755 210.537 243.488C209.719 245.22 207.745 246.002 206.123 245.234C204.5 244.467 203.842 242.45 204.661 240.717Z" fill="url(#paint21_linear_95_1281)"/>
<path d="M205.557 245.235L206.463 245.662L209.611 238.984L208.705 238.557L205.557 245.235Z" fill="#8A8B93"/>
</g>
<defs>
<linearGradient id="paint0_linear_95_1281" x1="10.9218" y1="50.2762" x2="104.142" y2="61.3487" gradientUnits="userSpaceOnUse">
<stop stop-color="#FFD800"/>
<stop offset="1" stop-color="#A6FB00"/>
</linearGradient>
<linearGradient id="paint1_linear_95_1281" x1="102.934" y1="14.6927" x2="192.62" y2="24.5599" gradientUnits="userSpaceOnUse">
<stop stop-color="#FFD800"/>
<stop offset="1" stop-color="#A6FB00"/>
</linearGradient>
<linearGradient id="paint2_linear_95_1281" x1="120.672" y1="23.4638" x2="161.791" y2="29.1848" gradientUnits="userSpaceOnUse">
<stop stop-color="#FFD800"/>
<stop offset="1" stop-color="#A6FB00"/>
</linearGradient>
<linearGradient id="paint3_linear_95_1281" x1="144.28" y1="79.4365" x2="172.101" y2="83.305" gradientUnits="userSpaceOnUse">
<stop stop-color="#FFD800"/>
<stop offset="1" stop-color="#A6FB00"/>
</linearGradient>
<linearGradient id="paint4_linear_95_1281" x1="188.16" y1="14.582" x2="200.187" y2="16.2552" gradientUnits="userSpaceOnUse">
<stop stop-color="#FFD800"/>
<stop offset="1" stop-color="#A6FB00"/>
</linearGradient>
<linearGradient id="paint5_linear_95_1281" x1="174.761" y1="15.7571" x2="180.007" y2="16.5884" gradientUnits="userSpaceOnUse">
<stop stop-color="#FFD800"/>
<stop offset="1" stop-color="#A6FB00"/>
</linearGradient>
<linearGradient id="paint6_linear_95_1281" x1="180.846" y1="13.5285" x2="188.257" y2="17.6988" gradientUnits="userSpaceOnUse">
<stop stop-color="#FFD800"/>
<stop offset="1" stop-color="#A6FB00"/>
</linearGradient>
<linearGradient id="paint7_linear_95_1281" x1="179.15" y1="15.7627" x2="187.185" y2="17.381" gradientUnits="userSpaceOnUse">
<stop stop-color="#FFD800"/>
<stop offset="1" stop-color="#A6FB00"/>
</linearGradient>
<linearGradient id="paint8_linear_95_1281" x1="187.635" y1="49.8104" x2="280.179" y2="60.7525" gradientUnits="userSpaceOnUse">
<stop stop-color="#FFD800"/>
<stop offset="1" stop-color="#A6FB00"/>
</linearGradient>
<linearGradient id="paint9_linear_95_1281" x1="128.814" y1="124.146" x2="160.418" y2="128.543" gradientUnits="userSpaceOnUse">
<stop stop-color="#FFD800"/>
<stop offset="1" stop-color="#A6FB00"/>
</linearGradient>
<linearGradient id="paint10_linear_95_1281" x1="62.5014" y1="204.355" x2="81.9218" y2="207.888" gradientUnits="userSpaceOnUse">
<stop stop-color="#FFD800"/>
<stop offset="1" stop-color="#A6FB00"/>
</linearGradient>
<linearGradient id="paint11_linear_95_1281" x1="90.9622" y1="156.385" x2="203.562" y2="174.833" gradientUnits="userSpaceOnUse">
<stop stop-color="#FFD800"/>
<stop offset="1" stop-color="#A6FB00"/>
</linearGradient>
<linearGradient id="paint12_linear_95_1281" x1="180.948" y1="158.555" x2="215.461" y2="160.293" gradientUnits="userSpaceOnUse">
<stop stop-color="#FFD800"/>
<stop offset="1" stop-color="#A6FB00"/>
</linearGradient>
<linearGradient id="paint13_linear_95_1281" x1="42.4917" y1="217.213" x2="52.3088" y2="217.696" gradientUnits="userSpaceOnUse">
<stop stop-color="#FFD800"/>
<stop offset="1" stop-color="#A6FB00"/>
</linearGradient>
<linearGradient id="paint14_linear_95_1281" x1="44.6898" y1="217.213" x2="58.8394" y2="218.219" gradientUnits="userSpaceOnUse">
<stop stop-color="#FFD800"/>
<stop offset="1" stop-color="#A6FB00"/>
</linearGradient>
<linearGradient id="paint15_linear_95_1281" x1="135.883" y1="224.819" x2="156.036" y2="226.796" gradientUnits="userSpaceOnUse">
<stop stop-color="#FFD800"/>
<stop offset="1" stop-color="#A6FB00"/>
</linearGradient>
<linearGradient id="paint16_linear_95_1281" x1="150.302" y1="225.454" x2="156.033" y2="225.616" gradientUnits="userSpaceOnUse">
<stop stop-color="#FFD800"/>
<stop offset="1" stop-color="#A6FB00"/>
</linearGradient>
<linearGradient id="paint17_linear_95_1281" x1="232.267" y1="233.627" x2="258.146" y2="241.316" gradientUnits="userSpaceOnUse">
<stop stop-color="#FFD800"/>
<stop offset="1" stop-color="#A6FB00"/>
</linearGradient>
<linearGradient id="paint18_linear_95_1281" x1="118.883" y1="240.825" x2="127.675" y2="242.237" gradientUnits="userSpaceOnUse">
<stop stop-color="#FFD800"/>
<stop offset="1" stop-color="#A6FB00"/>
</linearGradient>
<linearGradient id="paint19_linear_95_1281" x1="263.229" y1="235.409" x2="266.663" y2="235.694" gradientUnits="userSpaceOnUse">
<stop stop-color="#FFD800"/>
<stop offset="1" stop-color="#A6FB00"/>
</linearGradient>
<linearGradient id="paint20_linear_95_1281" x1="266.166" y1="236.077" x2="269.715" y2="236.497" gradientUnits="userSpaceOnUse">
<stop stop-color="#FFD800"/>
<stop offset="1" stop-color="#A6FB00"/>
</linearGradient>
<linearGradient id="paint21_linear_95_1281" x1="204.28" y1="238.987" x2="211.632" y2="239.969" gradientUnits="userSpaceOnUse">
<stop stop-color="#FFD800"/>
<stop offset="1" stop-color="#A6FB00"/>
</linearGradient>
<clipPath id="clip0_95_1281">
<rect width="283.432" height="250" fill="white" transform="translate(0.283203)"/>
</clipPath>
</defs>
</svg>
