<svg width="30" height="31" viewBox="0 0 30 31" fill="none" xmlns="http://www.w3.org/2000/svg">
<path d="M10.5 5.36816C9.30653 5.36816 8.16193 5.84227 7.31802 6.68618C6.47411 7.5301 6 8.67469 6 9.86816V18.8682C6 20.0616 6.47411 21.2062 7.31802 22.0501C8.16193 22.8941 9.30653 23.3682 10.5 23.3682H19.5C20.6935 23.3682 21.8381 22.8941 22.682 22.0501C23.5259 21.2062 24 20.0616 24 18.8682V9.86816C24 8.67469 23.5259 7.5301 22.682 6.68618C21.8381 5.84227 20.6935 5.36816 19.5 5.36816H10.5ZM6.75 26.3682C6.55109 26.3682 6.36032 26.4472 6.21967 26.5878C6.07902 26.7285 6 26.9193 6 27.1182C6 27.3171 6.07902 27.5078 6.21967 27.6485C6.36032 27.7891 6.55109 27.8682 6.75 27.8682H23.25C23.4489 27.8682 23.6397 27.7891 23.7803 27.6485C23.921 27.5078 24 27.3171 24 27.1182C24 26.9193 23.921 26.7285 23.7803 26.5878C23.6397 26.4472 23.4489 26.3682 23.25 26.3682H6.75Z" fill="#C3C3CA"/>
</svg>
