<svg width="31" height="31" viewBox="0 0 31 31" fill="none" xmlns="http://www.w3.org/2000/svg">
<g clip-path="url(#clip0_71_360)">
<path fill-rule="evenodd" clip-rule="evenodd" d="M6.75 4.61816C6.08696 4.61816 5.45107 4.88156 4.98223 5.3504C4.51339 5.81924 4.25 6.45512 4.25 7.11816V24.6182C4.25 25.2812 4.51339 25.9171 4.98223 26.3859C5.45107 26.8548 6.08696 27.1182 6.75 27.1182H18C18.7013 27.1182 19.335 26.8294 19.7887 26.3644L20.5225 26.5607C20.8396 26.6457 21.1704 26.6675 21.496 26.6247C21.8215 26.5819 22.1355 26.4754 22.4199 26.3113C22.7043 26.1472 22.9535 25.9286 23.1534 25.6681C23.3534 25.4076 23.5 25.1103 23.585 24.7932L26.8188 12.7182C26.9902 12.0778 26.9003 11.3956 26.5688 10.8216C26.2374 10.2475 25.6915 9.82859 25.0513 9.65691L20.5 8.43691V7.11816C20.5 6.45512 20.2366 5.81924 19.7678 5.3504C19.2989 4.88156 18.663 4.61816 18 4.61816H6.75ZM20.5 23.9669V11.0257L24.405 12.0719L21.17 24.1469L20.5 23.9669Z" fill="#C3C3CA"/>
</g>
<defs>
<clipPath id="clip0_71_360">
<rect width="30" height="30" fill="white" transform="translate(0.5 0.868164)"/>
</clipPath>
</defs>
</svg>
