<svg width="152" height="36" viewBox="0 0 152 36" fill="none" xmlns="http://www.w3.org/2000/svg">
<path d="M44.9991 10.1953C46.4467 10.1953 47.6997 10.4362 48.7581 10.9179C49.832 11.3996 50.6568 12.0834 51.2325 12.9692C51.8086 13.8549 52.0967 14.9038 52.0967 16.1159C52.0967 17.3125 51.8086 18.3614 51.2325 19.2627C50.6568 20.1484 49.832 20.8322 48.7581 21.3141C47.6997 21.7801 46.4467 22.0133 44.9991 22.0133H41.7072V26.5121H37.9252V10.1953H44.9991ZM44.7893 18.9364C45.9251 18.9364 46.7892 18.6955 47.3805 18.2138C47.9722 17.7165 48.2676 17.0172 48.2676 16.1159C48.2676 15.1991 47.9722 14.4998 47.3805 14.0181C46.7892 13.5208 45.9251 13.2722 44.7893 13.2722H41.7072V18.9364H44.7893Z" fill="#C3C3CA"/>
<path d="M56.8512 15.6264C57.2867 15.0204 57.8706 14.5619 58.602 14.2511C59.349 13.9403 60.205 13.785 61.1699 13.785V17.1415C60.7655 17.1104 60.493 17.0949 60.3529 17.0949C59.3101 17.0949 58.493 17.3902 57.9018 17.9807C57.3101 18.5556 57.0143 19.4258 57.0143 20.5912V26.5121H53.3724V13.9714H56.8512V15.6264Z" fill="#C3C3CA"/>
<path d="M68.0301 26.6982C66.7074 26.6982 65.5167 26.4266 64.4584 25.8825C63.4155 25.3233 62.5985 24.5538 62.0069 23.5748C61.4156 22.5958 61.1198 21.4847 61.1198 20.2417C61.1198 18.9985 61.4156 17.8874 62.0069 16.9084C62.5985 15.9294 63.4155 15.168 64.4584 14.6241C65.5167 14.0647 66.7074 13.785 68.0301 13.785C69.3532 13.785 70.5361 14.0647 71.5789 14.6241C72.6217 15.168 73.4388 15.9294 74.0304 16.9084C74.6217 17.8874 74.9175 18.9985 74.9175 20.2417C74.9175 21.4847 74.6217 22.5958 74.0304 23.5748C73.4388 24.5538 72.6217 25.3233 71.5789 25.8825C70.5361 26.4266 69.3532 26.6982 68.0301 26.6982ZM68.0301 23.7147C68.9643 23.7147 69.7269 23.4042 70.3181 22.7824C70.9254 22.1454 71.2286 21.2986 71.2286 20.2417C71.2286 19.185 70.9254 18.3458 70.3181 17.7242C69.7269 17.0871 68.9643 16.7686 68.0301 16.7686C67.0963 16.7686 66.326 17.0871 65.7191 17.7242C65.1119 18.3458 64.8083 19.185 64.8083 20.2417C64.8083 21.2986 65.1119 22.1454 65.7191 22.7824C66.326 23.4042 67.0963 23.7147 68.0301 23.7147Z" fill="#C3C3CA"/>
<path d="M91.4305 10.1953V26.5121H88.3254L80.1773 16.6054V26.5121H76.442V10.1953H79.5704L87.6949 20.1018V10.1953H91.4305Z" fill="#C3C3CA"/>
<path d="M98.9389 13.785C100.884 13.785 102.378 14.2511 103.421 15.1836C104.464 16.1004 104.986 17.4912 104.986 19.3559V26.5121H101.577V24.9502C100.892 26.1157 99.6158 26.6982 97.7482 26.6982C96.7833 26.6982 95.9425 26.5354 95.2266 26.209C94.5264 25.8825 93.9892 25.4321 93.6159 24.8569C93.2423 24.2821 93.0554 23.6292 93.0554 22.899C93.0554 21.7334 93.4914 20.8167 94.3629 20.1484C95.25 19.4803 96.612 19.1461 98.4485 19.1461H101.343C101.343 18.3536 101.102 17.7476 100.62 17.328C100.137 16.8929 99.4134 16.6753 98.4485 16.6753C97.7794 16.6753 97.1176 16.7841 96.4641 17.0017C95.8261 17.2037 95.2811 17.4834 94.8296 17.8408L93.5225 15.3001C94.2072 14.8184 95.0242 14.4454 95.9736 14.1812C96.9386 13.9171 97.9273 13.785 98.9389 13.785ZM98.6587 24.251C99.2811 24.251 99.8338 24.1111 100.316 23.8313C100.799 23.5359 101.141 23.1088 101.343 22.5492V21.2675H98.8455C97.3512 21.2675 96.6042 21.7568 96.6042 22.7357C96.6042 23.2021 96.7833 23.5748 97.141 23.8546C97.5147 24.1189 98.0203 24.251 98.6587 24.251Z" fill="#C3C3CA"/>
<path d="M115.216 25.9058C114.858 26.1701 114.414 26.3722 113.885 26.5121C113.371 26.636 112.827 26.6982 112.251 26.6982C110.757 26.6982 109.597 26.3177 108.772 25.5564C107.963 24.7947 107.558 23.6758 107.558 22.1998V17.0483H105.62V14.2511H107.558V11.1976H111.2V14.2511H114.328V17.0483H111.2V22.1531C111.2 22.6813 111.332 23.0932 111.597 23.3886C111.877 23.668 112.266 23.8079 112.764 23.8079C113.34 23.8079 113.831 23.6525 114.235 23.342L115.216 25.9058Z" fill="#C3C3CA"/>
<path d="M128.747 13.9714V26.5121H125.291V25.0201C124.809 25.5638 124.233 25.9835 123.564 26.2789C122.894 26.5587 122.171 26.6982 121.393 26.6982C119.743 26.6982 118.436 26.2245 117.47 25.2766C116.505 24.3287 116.023 22.9223 116.023 21.0576V13.9714H119.665V20.5213C119.665 22.5414 120.513 23.5515 122.21 23.5515C123.081 23.5515 123.782 23.272 124.311 22.7124C124.84 22.1376 125.105 21.2908 125.105 20.1717V13.9714H128.747Z" fill="#C3C3CA"/>
<path d="M134.432 15.6264C134.868 15.0204 135.452 14.5619 136.183 14.2511C136.93 13.9403 137.787 13.785 138.752 13.785V17.1415C138.347 17.1104 138.074 17.0949 137.935 17.0949C136.891 17.0949 136.074 17.3902 135.483 17.9807C134.891 18.5556 134.596 19.4258 134.596 20.5912V26.5121H130.954V13.9714H134.432V15.6264Z" fill="#C3C3CA"/>
<path d="M151.939 20.2885C151.939 20.3347 151.915 20.6612 151.869 21.2675H142.367C142.538 22.0444 142.942 22.658 143.581 23.1088C144.219 23.5592 145.012 23.7847 145.962 23.7847C146.616 23.7847 147.192 23.6914 147.69 23.5048C148.203 23.3031 148.678 22.9922 149.114 22.5725L151.052 24.6704C149.869 26.0224 148.141 26.6982 145.868 26.6982C144.452 26.6982 143.199 26.4266 142.11 25.8825C141.02 25.3233 140.18 24.5538 139.588 23.5748C138.997 22.5958 138.701 21.4847 138.701 20.2417C138.701 19.0141 138.989 17.9108 139.565 16.9317C140.157 15.9372 140.958 15.168 141.97 14.6241C142.997 14.0647 144.141 13.785 145.402 13.785C146.631 13.785 147.744 14.0491 148.74 14.5775C149.736 15.1058 150.515 15.8673 151.075 16.8618C151.651 17.8408 151.939 18.983 151.939 20.2885ZM145.425 16.5355C144.6 16.5355 143.907 16.7686 143.347 17.2348C142.787 17.701 142.445 18.3381 142.32 19.1461H148.507C148.382 18.3536 148.04 17.7242 147.48 17.2581C146.919 16.7763 146.234 16.5355 145.425 16.5355Z" fill="#C3C3CA"/>
<path fill-rule="evenodd" clip-rule="evenodd" d="M17.1837 1.10842C16.6288 0.787915 15.9446 0.787915 15.3897 1.10842C11.4482 3.38485 8.78978 7.64409 8.78978 12.5254C8.78978 13.2211 8.84381 13.9041 8.94782 14.5706C6.23451 13.6506 3.29664 13.9854 0.897029 15.3659C0.341568 15.6855 -0.000544301 16.2771 6.50068e-07 16.9171C0.00284218 20.2939 1.75976 23.5849 4.90631 25.3986C6.44996 26.2886 8.13483 26.7114 9.79678 26.7122C9.54392 27.4277 9.40636 28.1972 9.40636 28.9989C9.40636 32.7928 12.4867 35.868 16.2864 35.868C20.0863 35.868 23.1665 32.7928 23.1665 28.9989C23.1665 28.1952 23.0283 27.4242 22.7745 26.7075C24.3373 26.6582 25.9115 26.2346 27.361 25.3986C30.5077 23.5849 32.2644 20.2939 32.2672 16.9173C32.2679 16.2772 31.9258 15.6857 31.3703 15.3661C29.0652 14.0399 26.2634 13.6788 23.6414 14.4679C23.7352 13.834 23.7834 13.1854 23.7834 12.5254C23.7834 7.64409 21.1253 3.38485 17.1837 1.10842ZM12.3726 12.5254C12.3726 9.3556 13.9098 6.54262 16.2867 4.79167C18.6636 6.54262 20.2008 9.3556 20.2008 12.5254C20.2008 15.6951 18.6636 18.5081 16.2867 20.259C13.9098 18.5081 12.3726 15.6951 12.3726 12.5254ZM23.3518 18.4655C25.0061 17.5119 26.9177 17.401 28.5876 18.0043C28.2762 19.7499 27.224 21.3471 25.5697 22.3008C23.9154 23.2545 22.0038 23.3653 20.3339 22.7621C20.6453 21.0164 21.6975 19.4191 23.3518 18.4655ZM3.67986 18.0042C5.34967 17.4008 7.2612 17.5117 8.91555 18.4654C10.5699 19.419 11.6219 21.0164 11.9335 22.7617C10.2636 23.3653 8.35207 23.2545 6.69772 22.3008C5.04337 21.3471 3.99134 19.7498 3.67986 18.0042ZM12.9892 28.9989C12.9892 27.1809 14.4654 25.7068 16.2864 25.7068C18.1075 25.7068 19.5838 27.1809 19.5838 28.9989C19.5838 30.817 18.1075 32.2911 16.2864 32.2911C14.4654 32.2911 12.9892 30.817 12.9892 28.9989Z" fill="#C3C3CA"/>
</svg>
