<svg width="191" height="36" viewBox="0 0 191 36" fill="none" xmlns="http://www.w3.org/2000/svg">
<path d="M61.497 32.0774C58.7472 32.0774 56.3163 31.5326 54.2044 30.4443C52.0924 29.3307 50.4597 27.7594 49.3057 25.7308C48.1516 23.7019 47.5746 21.3143 47.5746 18.5679C47.5746 15.8215 48.1516 13.4339 49.3057 11.405C50.4597 9.35138 52.0924 7.78028 54.2044 6.69162C56.3163 5.57821 58.7472 5.02148 61.497 5.02148C63.3634 5.02148 65.0086 5.21945 66.4326 5.61533C67.8817 5.98647 69.2075 6.58027 70.4104 7.39678V12.7782C69.3303 11.8875 68.0904 11.2442 66.6907 10.8483C65.3155 10.4277 63.7442 10.2174 61.9762 10.2174C60.331 10.2174 58.845 10.5638 57.5192 11.2566C56.218 11.9246 55.1867 12.8895 54.4255 14.1514C53.6643 15.4132 53.2834 16.8854 53.2834 18.5679C53.2834 20.2751 53.6273 21.772 54.3147 23.0586C55.027 24.3205 56.0213 25.2978 57.2981 25.9906C58.5749 26.6834 60.0485 27.0297 61.7181 27.0297C63.2406 27.0297 64.5663 26.7576 65.6959 26.2132V21.2029H61.5339V17.0463H71.1102V29.5535C68.6793 31.2359 65.4753 32.0774 61.497 32.0774Z" fill="#EAEAED"/>
<path d="M72.4037 13.706H77.7811V16.2669C78.4934 15.4009 79.4877 14.7452 80.7645 14.2999C82.0414 13.8298 83.4904 13.5947 85.1107 13.5947V17.8628C83.4165 17.8628 81.9186 18.1225 80.6173 18.6422C79.3404 19.1617 78.4564 19.9535 77.9653 21.0174V31.5206H72.4037V13.706Z" fill="#EAEAED"/>
<path d="M95.7993 32.077C92.4105 32.077 89.746 31.2601 87.8063 29.627C85.8666 27.9698 84.8967 25.6561 84.8967 22.687C84.8967 19.7427 85.7563 17.417 87.4748 15.7098C89.2184 14.0025 91.6982 13.1489 94.9153 13.1489C97.0267 13.1489 98.8191 13.5448 100.293 14.3365C101.766 15.1283 102.883 16.2293 103.644 17.6396C104.406 19.0252 104.786 20.5963 104.786 22.353V24.617H90.2008C90.5936 26.8933 92.705 28.0316 96.5355 28.0316C97.6651 28.0316 98.8316 27.9325 100.035 27.7344C101.238 27.5366 102.282 27.2643 103.166 26.918V30.8523C102.306 31.2229 101.201 31.5202 99.8504 31.743C98.5002 31.9653 97.1495 32.077 95.7993 32.077ZM99.519 20.9798C99.4456 19.7922 99.0033 18.8768 98.1932 18.2335C97.3831 17.5654 96.2655 17.2314 94.8414 17.2314C93.4417 17.2314 92.3366 17.5654 91.5265 18.2335C90.7164 18.9015 90.2741 19.8169 90.2008 20.9798H99.519Z" fill="#EAEAED"/>
<path d="M116.186 32.077C112.798 32.077 110.133 31.2601 108.194 29.627C106.254 27.9698 105.284 25.6561 105.284 22.687C105.284 19.7427 106.143 17.417 107.862 15.7098C109.605 14.0025 112.086 13.1489 115.302 13.1489C117.414 13.1489 119.207 13.5448 120.68 14.3365C122.153 15.1283 123.27 16.2293 124.031 17.6396C124.793 19.0252 125.174 20.5963 125.174 22.353V24.617H110.588C110.981 26.8933 113.092 28.0316 116.923 28.0316C118.053 28.0316 119.219 27.9325 120.422 27.7344C121.625 27.5366 122.669 27.2643 123.553 26.918V30.8523C122.693 31.2229 121.589 31.5202 120.238 31.743C118.887 31.9653 117.537 32.077 116.186 32.077ZM119.906 20.9798C119.833 19.7922 119.391 18.8768 118.581 18.2335C117.77 17.5654 116.653 17.2314 115.229 17.2314C113.829 17.2314 112.724 17.5654 111.914 18.2335C111.103 18.9015 110.662 19.8169 110.588 20.9798H119.906Z" fill="#EAEAED"/>
<path d="M126.408 13.7056H131.785V15.8953C132.596 14.9799 133.553 14.2994 134.658 13.8541C135.788 13.384 136.966 13.1489 138.194 13.1489C140.601 13.1489 142.393 13.8046 143.572 15.1159C144.774 16.4025 145.376 18.1469 145.376 20.3489V31.5202H139.814V20.9798C139.814 18.6788 138.759 17.5283 136.647 17.5283C135.714 17.5283 134.842 17.7634 134.032 18.2335C133.222 18.6788 132.534 19.3469 131.969 20.2376V31.5202H126.408V13.7056Z" fill="#EAEAED"/>
<path d="M150.283 10.9596C149.424 10.9596 148.7 10.6751 148.11 10.106C147.521 9.53695 147.226 8.81942 147.226 7.95342C147.226 7.11222 147.521 6.40706 148.11 5.83796C148.7 5.24416 149.424 4.94727 150.283 4.94727C151.143 4.94727 151.867 5.24416 152.456 5.83796C153.046 6.40706 153.34 7.11222 153.34 7.95342C153.34 8.81942 153.046 9.53695 152.456 10.106C151.867 10.6751 151.143 10.9596 150.283 10.9596ZM147.484 13.706H153.083V31.5206H147.484V13.706Z" fill="#EAEAED"/>
<path d="M162.568 32.077C161.242 32.077 159.818 31.928 158.296 31.6313C156.798 31.3592 155.619 30.9634 154.76 30.4438V26.0644C155.742 26.6582 156.92 27.1407 158.296 27.5118C159.671 27.8827 160.948 28.0683 162.126 28.0683C163.133 28.0683 163.87 27.9818 164.336 27.8088C164.803 27.6355 165.036 27.3138 165.036 26.8438C165.036 26.4726 164.901 26.1757 164.631 25.953C164.361 25.7056 163.943 25.4953 163.378 25.3221C162.838 25.1241 161.929 24.8396 160.653 24.4685C159.155 24.0232 157.976 23.5778 157.117 23.1324C156.282 22.6623 155.644 22.0809 155.202 21.3881C154.784 20.6953 154.575 19.8046 154.575 18.7159C154.575 16.8602 155.3 15.4747 156.749 14.5592C158.222 13.619 160.211 13.1489 162.716 13.1489C163.943 13.1489 165.208 13.285 166.509 13.5572C167.835 13.8046 168.854 14.1386 169.566 14.5592V18.8273C168.854 18.3571 167.921 17.9736 166.767 17.6767C165.638 17.3798 164.532 17.2314 163.452 17.2314C162.445 17.2314 161.659 17.3303 161.095 17.5283C160.555 17.7262 160.284 18.0974 160.284 18.6417C160.284 19.1118 160.542 19.4706 161.058 19.718C161.598 19.9654 162.593 20.2747 164.041 20.6458L164.778 20.8314C166.325 21.252 167.528 21.7221 168.387 22.2417C169.247 22.7365 169.848 23.3427 170.192 24.0602C170.561 24.753 170.745 25.6314 170.745 26.6953C170.745 28.3284 170.045 29.6396 168.646 30.6294C167.246 31.5941 165.22 32.077 162.568 32.077Z" fill="#EAEAED"/>
<path d="M172.031 4.09326H177.592V15.7469C178.428 14.8809 179.373 14.2376 180.429 13.817C181.484 13.3716 182.614 13.1489 183.817 13.1489C186.224 13.1489 188.016 13.8046 189.195 15.1159C190.398 16.4026 191 18.1469 191 20.3489V31.5202H185.438V20.9799C185.438 18.6788 184.382 17.5283 182.271 17.5283C181.337 17.5283 180.466 17.7634 179.656 18.2335C178.845 18.6788 178.158 19.3469 177.592 20.2376V31.5202H172.031V4.09326Z" fill="#EAEAED"/>
<path fill-rule="evenodd" clip-rule="evenodd" d="M28.5804 9.34466C28.5804 14.059 24.7878 17.8807 20.1092 17.8807C15.4305 17.8807 11.6377 14.059 11.6377 9.34466C11.6377 4.63032 15.4305 0.808594 20.1092 0.808594C24.7878 0.808594 28.5804 4.63032 28.5804 9.34466ZM0.403846 17.2604C9.63331 16.6335 17.6771 23.5963 18.4263 32.9159C18.504 33.8817 18.5002 34.8348 18.4209 35.7694C9.19147 36.3962 1.14773 29.4334 0.398468 20.1139C0.32088 19.1482 0.324574 18.1947 0.403846 17.2604ZM24.3926 35.4431C33.6415 34.6881 40.5517 26.5831 39.9295 17.2832C39.0021 17.2033 38.0561 17.1996 37.0977 17.2778C27.8485 18.0328 20.9385 26.1379 21.5606 35.4376C22.4879 35.5175 23.4341 35.5214 24.3926 35.4431Z" fill="#EF4D35"/>
</svg>
