<svg width="136" height="36" viewBox="0 0 136 36" fill="none" xmlns="http://www.w3.org/2000/svg">
<path d="M76.6443 27.5154V6.72095H80.5991V27.5154H76.6443Z" fill="#C3C3CA"/>
<path d="M43.171 7.29614L51.5324 27.5154H54.7924L63.2447 7.29614H58.8678L53.2118 21.492L47.6082 7.29614H43.171Z" fill="#C3C3CA"/>
<path fill-rule="evenodd" clip-rule="evenodd" d="M63.8349 26.8538C65.0222 27.4867 66.3506 27.8027 67.8198 27.8027C69.2885 27.8027 70.6069 27.4867 71.7741 26.8538C72.9615 26.2018 73.8971 25.3295 74.5814 24.2366C75.2657 23.1245 75.6079 21.8879 75.6079 20.5263C75.6079 19.165 75.2657 17.9474 74.5814 16.8736C73.8971 15.7807 72.9615 14.9179 71.7741 14.2851C70.6069 13.6332 69.2785 13.3073 67.7897 13.3073C66.3406 13.3073 65.0222 13.6332 63.8349 14.2851C62.6476 14.9179 61.712 15.7807 61.0276 16.8736C60.3433 17.9474 60.0016 19.165 60.0016 20.5263C60.0016 21.8879 60.3433 23.1245 61.0276 24.2366C61.7321 25.3295 62.6677 26.2018 63.8349 26.8538ZM69.7518 23.834C69.188 24.1408 68.5339 24.294 67.7897 24.294C67.0651 24.294 66.421 24.1408 65.8577 23.834C65.294 23.508 64.8513 23.067 64.5293 22.5108C64.2072 21.9358 64.0464 21.2837 64.0464 20.5551C64.0464 19.8265 64.2072 19.1841 64.5293 18.6281C64.8513 18.072 65.294 17.6406 65.8577 17.3338C66.421 17.0079 67.0651 16.8449 67.7897 16.8449C68.5339 16.8449 69.188 17.0079 69.7518 17.3338C70.315 17.6406 70.7577 18.072 71.0798 18.6281C71.4018 19.1841 71.5626 19.8265 71.5626 20.5551C71.5626 21.2837 71.4018 21.9358 71.0798 22.5108C70.7778 23.067 70.3351 23.508 69.7518 23.834Z" fill="#C3C3CA"/>
<path d="M85.3704 27.0262C86.3764 27.5442 87.5235 27.8027 88.8117 27.8027C90.0996 27.8027 91.2366 27.5537 92.2225 27.0549C93.2289 26.5374 94.0036 25.8184 94.5468 24.8982C95.1105 23.9776 95.392 22.9038 95.392 21.6768V13.6237H91.4376V21.5905C91.4376 22.4533 91.2065 23.1245 90.7432 23.6037C90.2805 24.083 89.6368 24.3228 88.8117 24.3228C88.2681 24.3228 87.7953 24.2174 87.3928 24.0063C86.9904 23.7957 86.6884 23.4888 86.4874 23.0862C86.2859 22.6644 86.1854 22.1656 86.1854 21.5905V13.6237H82.2009V21.6768C82.2009 22.8847 82.4824 23.9489 83.0461 24.8695C83.6094 25.7896 84.3841 26.5087 85.3704 27.0262Z" fill="#C3C3CA"/>
<path d="M97.0321 27.5154V13.6236H100.986V14.8289C101.34 14.4998 101.742 14.2227 102.194 13.9975C103.039 13.5565 103.995 13.336 105.061 13.336C106.068 13.336 106.983 13.5565 107.808 13.9975C108.5 14.351 109.071 14.8324 109.523 15.4418C110.01 14.8487 110.606 14.3769 111.31 14.0262C112.196 13.5661 113.182 13.336 114.268 13.336C115.355 13.336 116.331 13.5565 117.196 13.9975C118.062 14.4193 118.746 15.0329 119.249 15.8382C119.752 16.6435 120.004 17.6023 120.004 18.7144V27.5154H116.05V19.3183C116.05 18.513 115.778 17.8898 115.234 17.4489C114.711 16.9887 114.057 16.7586 113.272 16.7586C112.769 16.7586 112.296 16.864 111.854 17.0749C111.431 17.2667 111.099 17.5543 110.857 17.9378C110.616 18.3213 110.495 18.7814 110.495 19.3183V27.5154H106.541V19.3183C106.541 18.513 106.269 17.8898 105.726 17.4489C105.203 16.9887 104.548 16.7586 103.764 16.7586C103.24 16.7586 102.767 16.864 102.345 17.0749C101.922 17.2667 101.59 17.5543 101.349 17.9378C101.107 18.3213 100.986 18.7814 100.986 19.3183V27.5154H97.0321Z" fill="#C3C3CA"/>
<path fill-rule="evenodd" clip-rule="evenodd" d="M124.598 26.8826C125.785 27.4963 127.143 27.8027 128.673 27.8027C129.86 27.8027 130.957 27.6016 131.963 27.199C132.99 26.7964 133.855 26.2018 134.559 25.4157L132.235 23.2011C131.792 23.6803 131.269 24.0446 130.665 24.294C130.061 24.5243 129.387 24.6392 128.643 24.6392C127.818 24.6392 127.093 24.476 126.469 24.1504C125.846 23.8052 125.362 23.3256 125.02 22.7123C124.892 22.4591 124.788 22.1897 124.712 21.9033L135.374 21.8779C135.455 21.5521 135.505 21.2645 135.525 21.0153C135.566 20.7468 135.586 20.488 135.586 20.2387C135.586 18.9157 135.274 17.7365 134.65 16.7011C134.046 15.6465 133.201 14.822 132.114 14.2276C131.048 13.614 129.81 13.3073 128.401 13.3073C126.972 13.3073 125.674 13.6332 124.507 14.2851C123.34 14.9179 122.414 15.7807 121.73 16.8736C121.066 17.9474 120.734 19.1745 120.734 20.5551C120.734 21.9549 121.076 23.2011 121.76 24.294C122.465 25.387 123.41 26.2497 124.598 26.8826ZM124.715 19.0839C124.785 18.8296 124.877 18.5914 124.99 18.3692C125.312 17.7557 125.765 17.2859 126.349 16.9599C126.932 16.6148 127.616 16.4422 128.401 16.4422C129.146 16.4422 129.77 16.5956 130.273 16.9024C130.796 17.19 131.188 17.6119 131.45 18.1679C131.585 18.4356 131.693 18.7344 131.773 19.0644L124.715 19.0839Z" fill="#C3C3CA"/>
<path fill-rule="evenodd" clip-rule="evenodd" d="M18.8676 35.868C29.0116 35.868 37.2345 28.0329 37.2345 18.3681C37.2345 8.70306 29.0116 0.868042 18.8676 0.868042C8.72371 0.868042 0.500488 8.70306 0.500488 18.3681C0.500488 28.0329 8.72371 35.868 18.8676 35.868ZM26.4744 7.6567C26.6925 7.83236 26.8179 8.09055 26.8179 8.36256L26.8175 11.8784L26.8179 12.1098L26.8175 12.1375V23.9068C26.8175 25.9507 25.0782 27.6078 22.933 27.6078C20.7878 27.6078 19.0487 25.9507 19.0487 23.9068C19.0487 21.8629 20.7878 20.2057 22.933 20.2057C23.6405 20.2057 24.3039 20.386 24.875 20.7009V13.202L15.1641 14.7444V25.7571C15.1641 27.8014 13.425 29.4582 11.2798 29.4582C9.13449 29.4582 7.39548 27.8014 7.39548 25.7571C7.39548 23.7132 9.13449 22.0561 11.2798 22.0561C11.9873 22.0561 12.6509 22.2364 13.2219 22.5515L13.2223 13.9602L13.2219 13.7289L13.2223 13.7013V10.213C13.2223 9.76086 13.5655 9.37481 14.034 9.30037L25.687 7.44993C25.9684 7.40521 26.2564 7.48083 26.4744 7.6567Z" fill="#C3C3CA"/>
</svg>
