<svg width="138" height="36" viewBox="0 0 138 36" fill="none" xmlns="http://www.w3.org/2000/svg">
<path d="M22.1169 7.64224C22.1169 3.90096 25.1456 0.868042 28.8816 0.868042C32.6176 0.868042 35.6463 3.90096 35.6463 7.64224C35.6463 11.3835 32.6176 14.4164 28.8816 14.4164C25.1456 14.4164 22.1169 11.3835 22.1169 7.64224Z" fill="#C3C3CA"/>
<path d="M29.2914 17.4185V22.2933C29.2914 24.4531 29.2899 25.9811 29.1911 27.1749C29.0937 28.3502 28.9092 29.0664 28.6176 29.6279C28.0501 30.7219 27.1594 31.6142 26.0665 32.1825C25.5058 32.4745 24.7906 32.6593 23.617 32.7568C22.4249 32.8558 20.8991 32.8573 18.7425 32.8573H14.251C12.0943 32.8573 10.5686 32.8558 9.37667 32.7568C8.20274 32.6593 7.48783 32.4745 6.92692 32.1825C5.83428 31.6142 4.94337 30.7219 4.37578 29.6279C4.08441 29.0664 3.89992 28.3502 3.80239 27.1749C3.70344 25.9811 3.7022 24.4531 3.7022 22.2933V17.7957C3.7022 15.6359 3.70344 14.1081 3.80239 12.9145C3.89992 11.7389 4.08441 11.023 4.37578 10.4613C4.94337 9.36711 5.83428 8.47495 6.92692 7.90655C7.48783 7.61477 8.20274 7.43003 9.37667 7.3324C10.5686 7.23327 12.0942 7.23207 14.251 7.23207H19.119C19.1625 6.17676 19.3729 5.16458 19.7243 4.22131H14.1841C12.1093 4.22128 10.4588 4.22128 9.12785 4.33196C7.76465 4.44532 6.60256 4.68256 5.54099 5.23477C3.8992 6.08881 2.56059 7.42935 1.70775 9.07345C1.15632 10.1365 0.919402 11.3002 0.806207 12.6653C0.695679 13.9981 0.695679 15.651 0.695679 17.7287V22.3603C0.695679 24.4381 0.695679 26.091 0.806207 27.424C0.919402 28.789 1.15632 29.9526 1.70775 31.0158C2.56059 32.6597 3.8992 34.0002 5.54099 34.8545C6.60256 35.4066 7.76465 35.6437 9.12785 35.7574C10.4588 35.868 12.1092 35.868 14.1841 35.868H18.8093C20.884 35.868 22.5346 35.868 23.8657 35.7574C25.2288 35.6437 26.3909 35.4066 27.4525 34.8545C29.0941 34.0002 30.4327 32.6597 31.2858 31.0158C31.8372 29.9526 32.0739 28.789 32.1874 27.424C32.2979 26.091 32.2979 24.4381 32.2979 22.3607V16.8124C31.3558 17.1644 30.3452 17.375 29.2914 17.4185Z" fill="#C3C3CA"/>
<path d="M54.9949 17.1604C54.9949 18.0847 54.7725 18.9512 54.3275 19.7602C53.8991 20.5689 53.2151 21.2208 52.2755 21.716C51.3525 22.2109 50.1823 22.4586 48.7647 22.4586H45.872V29.0939H42.4108V11.8127H48.7647C50.1 11.8127 51.2372 12.0438 52.1767 12.5059C53.1159 12.9681 53.8164 13.6035 54.2779 14.4122C54.7559 15.221 54.9949 16.1371 54.9949 17.1604ZM48.6162 19.661C49.5723 19.661 50.2811 19.4464 50.7426 19.0173C51.2041 18.5716 51.4348 17.9527 51.4348 17.1604C51.4348 15.4768 50.4953 14.6351 48.6162 14.6351H45.872V19.661H48.6162Z" fill="#C3C3CA"/>
<path d="M59.9251 17.507C60.3701 16.7808 60.947 16.2113 61.6558 15.7987C62.3807 15.3861 63.2049 15.1797 64.1279 15.1797V18.8192H63.2131C62.1255 18.8192 61.3014 19.075 60.741 19.5867C60.1968 20.0985 59.9251 20.9897 59.9251 22.2606V29.0939H56.4639V15.3778H59.9251V17.507Z" fill="#C3C3CA"/>
<path d="M71.5522 29.3167C70.2338 29.3167 69.047 29.0276 67.9921 28.4499C66.9372 27.8557 66.1051 27.0225 65.4952 25.9495C64.9017 24.8765 64.6052 23.6387 64.6052 22.2357C64.6052 20.8327 64.91 19.5949 65.52 18.5221C66.1461 17.4492 66.995 16.624 68.0665 16.0463C69.1376 15.4521 70.3327 15.155 71.6514 15.155C72.9698 15.155 74.1648 15.4521 75.2363 16.0463C76.3074 16.624 77.1481 17.4492 77.758 18.5221C78.3841 19.5949 78.6976 20.8327 78.6976 22.2357C78.6976 23.6387 78.3759 24.8765 77.7332 25.9495C77.1067 27.0225 76.2499 27.8557 75.1619 28.4499C74.0904 29.0276 72.8874 29.3167 71.5522 29.3167ZM71.5522 26.2961C72.1787 26.2961 72.7638 26.1475 73.3076 25.8505C73.8679 25.537 74.3133 25.0749 74.6429 24.4641C74.9725 23.8533 75.1371 23.1107 75.1371 22.2357C75.1371 20.9317 74.7909 19.9333 74.0987 19.24C73.423 18.5303 72.5906 18.1755 71.6018 18.1755C70.613 18.1755 69.7806 18.5303 69.1049 19.24C68.4453 19.9333 68.1157 20.9317 68.1157 22.2357C68.1157 23.5398 68.437 24.5465 69.0801 25.2563C69.7392 25.9495 70.5634 26.2961 71.5522 26.2961Z" fill="#C3C3CA"/>
<path d="M79.3574 22.1864C79.3574 20.8 79.6291 19.5702 80.1733 18.4973C80.7337 17.4245 81.4917 16.5992 82.4478 16.0215C83.4038 15.4438 84.4666 15.155 85.6369 15.155C86.5272 15.155 87.3758 15.353 88.1835 15.7492C88.9911 16.1288 89.6341 16.6405 90.1118 17.2842V10.7728H93.6226V29.0939H90.1118V27.0635C89.6833 27.7402 89.0816 28.2851 88.3071 28.6976C87.5325 29.1104 86.6343 29.3167 85.6121 29.3167C84.4584 29.3167 83.4038 29.0194 82.4478 28.4255C81.4917 27.8312 80.7337 26.9976 80.1733 25.9247C79.6291 24.8355 79.3574 23.5891 79.3574 22.1864ZM90.1366 22.2357C90.1366 21.3939 89.972 20.6762 89.6424 20.0819C89.3124 19.4711 88.8674 19.009 88.3071 18.6954C87.7467 18.3653 87.1451 18.2002 86.5024 18.2002C85.8594 18.2002 85.266 18.357 84.7222 18.6706C84.1784 18.9842 83.7334 19.4464 83.3873 20.0571C83.0577 20.6513 82.8927 21.3611 82.8927 22.1864C82.8927 23.0114 83.0577 23.7377 83.3873 24.3651C83.7334 24.9755 84.1784 25.446 84.7222 25.776C85.2825 26.1064 85.8759 26.2713 86.5024 26.2713C87.1451 26.2713 87.7467 26.1147 88.3071 25.8009C88.8674 25.4708 89.3124 25.0087 89.6424 24.4144C89.972 23.804 90.1366 23.0776 90.1366 22.2357Z" fill="#C3C3CA"/>
<path d="M108.945 15.3778V29.0939H105.459V27.3608C105.014 27.955 104.428 28.4255 103.703 28.7721C102.994 29.1021 102.22 29.267 101.379 29.267C100.308 29.267 99.3602 29.0442 98.536 28.5986C97.7118 28.1364 97.0609 27.4681 96.5829 26.5931C96.1214 25.7019 95.8906 24.6455 95.8906 23.4242V15.3778H99.3519V22.929C99.3519 24.0185 99.6236 24.86 100.168 25.4542C100.712 26.0319 101.453 26.321 102.393 26.321C103.349 26.321 104.099 26.0319 104.643 25.4542C105.186 24.86 105.459 24.0185 105.459 22.929V15.3778H108.945Z" fill="#C3C3CA"/>
<path d="M110.481 22.2357C110.481 20.8162 110.769 19.5784 111.346 18.5221C111.923 17.4492 112.723 16.624 113.744 16.0463C114.766 15.4521 115.937 15.155 117.255 15.155C118.953 15.155 120.354 15.5841 121.458 16.4424C122.579 17.2842 123.329 18.4726 123.708 20.0074H119.975C119.777 19.4133 119.439 18.9512 118.961 18.6211C118.5 18.2745 117.923 18.1012 117.23 18.1012C116.241 18.1012 115.459 18.4643 114.882 19.1905C114.305 19.9001 114.016 20.9155 114.016 22.2357C114.016 23.5398 114.305 24.5548 114.882 25.2811C115.459 25.9909 116.241 26.3458 117.23 26.3458C118.631 26.3458 119.546 25.7184 119.975 24.4641H123.708C123.329 25.9495 122.579 27.1297 121.458 28.0043C120.337 28.8793 118.936 29.3167 117.255 29.3167C115.937 29.3167 114.766 29.0276 113.744 28.4499C112.723 27.8557 111.923 27.0307 111.346 25.9743C110.769 24.9014 110.481 23.6553 110.481 22.2357Z" fill="#C3C3CA"/>
<path d="M129.284 18.225V24.86C129.284 25.3221 129.391 25.6605 129.605 25.8754C129.836 26.0733 130.215 26.1723 130.743 26.1723H132.35V29.0939H130.174C127.257 29.0939 125.798 27.6743 125.798 24.8355V18.225H124.167V15.3778H125.798V11.986H129.284V15.3778H132.35V18.225H129.284Z" fill="#C3C3CA"/>
<path d="M135.384 29.2673C134.757 29.2673 134.238 29.0773 133.826 28.6979C133.43 28.3016 133.233 27.8147 133.233 27.237C133.233 26.6593 133.43 26.1806 133.826 25.8012C134.238 25.4049 134.757 25.207 135.384 25.207C135.994 25.207 136.496 25.4049 136.892 25.8012C137.287 26.1806 137.485 26.6593 137.485 27.237C137.485 27.8147 137.287 28.3016 136.892 28.6979C136.496 29.0773 135.994 29.2673 135.384 29.2673Z" fill="#C3C3CA"/>
</svg>
