<svg width="152" height="36" viewBox="0 0 152 36" fill="none" xmlns="http://www.w3.org/2000/svg">
<path d="M44.999 10.1953C46.4466 10.1953 47.6996 10.4362 48.758 10.9179C49.832 11.3996 50.6568 12.0834 51.2325 12.9692C51.8086 13.8549 52.0966 14.9038 52.0966 16.1159C52.0966 17.3125 51.8086 18.3614 51.2325 19.2627C50.6568 20.1484 49.832 20.8322 48.758 21.3141C47.6996 21.7801 46.4466 22.0133 44.999 22.0133H41.7071V26.5121H37.9252V10.1953H44.999ZM44.7892 18.9364C45.925 18.9364 46.7892 18.6955 47.3805 18.2138C47.9721 17.7165 48.2676 17.0172 48.2676 16.1159C48.2676 15.1991 47.9721 14.4998 47.3805 14.0181C46.7892 13.5208 45.925 13.2722 44.7892 13.2722H41.7071V18.9364H44.7892Z" fill="#EAEAED"/>
<path d="M56.8512 15.6266C57.2867 15.0205 57.8706 14.5621 58.602 14.2513C59.349 13.9405 60.205 13.7852 61.1699 13.7852V17.1417C60.7655 17.1106 60.493 17.0951 60.3529 17.0951C59.3101 17.0951 58.493 17.3904 57.9018 17.9809C57.3101 18.5558 57.0143 19.426 57.0143 20.5914V26.5123H53.3724V13.9716H56.8512V15.6266Z" fill="#EAEAED"/>
<path d="M68.0301 26.6984C66.7074 26.6984 65.5167 26.4268 64.4584 25.8827C63.4155 25.3234 62.5985 24.5539 62.0069 23.575C61.4156 22.596 61.1198 21.4849 61.1198 20.2419C61.1198 18.9987 61.4156 17.8876 62.0069 16.9086C62.5985 15.9296 63.4155 15.1682 64.4584 14.6243C65.5167 14.0649 66.7074 13.7852 68.0301 13.7852C69.3532 13.7852 70.5361 14.0649 71.5789 14.6243C72.6217 15.1682 73.4388 15.9296 74.0304 16.9086C74.6217 17.8876 74.9175 18.9987 74.9175 20.2419C74.9175 21.4849 74.6217 22.596 74.0304 23.575C73.4388 24.5539 72.6217 25.3234 71.5789 25.8827C70.5361 26.4268 69.3532 26.6984 68.0301 26.6984ZM68.0301 23.7149C68.9643 23.7149 69.7269 23.4044 70.3181 22.7825C70.9254 22.1456 71.2286 21.2987 71.2286 20.2419C71.2286 19.1852 70.9254 18.346 70.3181 17.7244C69.7269 17.0873 68.9643 16.7687 68.0301 16.7687C67.0963 16.7687 66.326 17.0873 65.7191 17.7244C65.1119 18.346 64.8083 19.1852 64.8083 20.2419C64.8083 21.2987 65.1119 22.1456 65.7191 22.7825C66.326 23.4044 67.0963 23.7149 68.0301 23.7149Z" fill="#EAEAED"/>
<path d="M91.4305 10.1953V26.5121H88.3254L80.1773 16.6054V26.5121H76.442V10.1953H79.5704L87.6949 20.1018V10.1953H91.4305Z" fill="#EAEAED"/>
<path d="M98.9389 13.7852C100.884 13.7852 102.378 14.2513 103.421 15.1837C104.464 16.1006 104.986 17.4914 104.986 19.3561V26.5123H101.577V24.9504C100.892 26.1159 99.6158 26.6984 97.7482 26.6984C96.7833 26.6984 95.9425 26.5356 95.2266 26.2091C94.5264 25.8827 93.9892 25.4323 93.6159 24.8571C93.2423 24.2823 93.0554 23.6294 93.0554 22.8991C93.0554 21.7336 93.4914 20.8168 94.3629 20.1486C95.25 19.4804 96.612 19.1463 98.4485 19.1463H101.343C101.343 18.3538 101.102 17.7478 100.62 17.3282C100.137 16.8931 99.4134 16.6755 98.4485 16.6755C97.7794 16.6755 97.1176 16.7843 96.4641 17.0018C95.8261 17.2039 95.2811 17.4836 94.8296 17.841L93.5225 15.3002C94.2072 14.8185 95.0242 14.4456 95.9736 14.1814C96.9386 13.9173 97.9273 13.7852 98.9389 13.7852ZM98.6587 24.2512C99.2811 24.2512 99.8338 24.1113 100.316 23.8315C100.799 23.5361 101.141 23.109 101.343 22.5494V21.2677H98.8455C97.3512 21.2677 96.6042 21.7569 96.6042 22.7359C96.6042 23.2023 96.7833 23.575 97.141 23.8548C97.5147 24.1191 98.0203 24.2512 98.6587 24.2512Z" fill="#EAEAED"/>
<path d="M115.216 25.906C114.858 26.1702 114.414 26.3723 113.885 26.5122C113.371 26.6362 112.827 26.6984 112.251 26.6984C110.757 26.6984 109.597 26.3179 108.772 25.5566C107.963 24.7949 107.558 23.676 107.558 22.2V17.0484H105.62V14.2513H107.558V11.1978H111.2V14.2513H114.328V17.0484H111.2V22.1533C111.2 22.6815 111.332 23.0934 111.597 23.3888C111.877 23.6682 112.266 23.8081 112.764 23.8081C113.34 23.8081 113.831 23.6527 114.235 23.3422L115.216 25.906Z" fill="#EAEAED"/>
<path d="M128.747 13.9717V26.5123H125.291V25.0204C124.809 25.5641 124.233 25.9838 123.564 26.2792C122.894 26.559 122.171 26.6985 121.393 26.6985C119.743 26.6985 118.436 26.2247 117.47 25.2769C116.505 24.329 116.023 22.9225 116.023 21.0578V13.9717H119.665V20.5215C119.665 22.5417 120.513 23.5517 122.21 23.5517C123.081 23.5517 123.782 23.2723 124.311 22.7127C124.84 22.1379 125.105 21.291 125.105 20.172V13.9717H128.747Z" fill="#EAEAED"/>
<path d="M134.432 15.6266C134.868 15.0205 135.452 14.5621 136.183 14.2513C136.93 13.9405 137.787 13.7852 138.752 13.7852V17.1417C138.347 17.1106 138.074 17.0951 137.935 17.0951C136.891 17.0951 136.074 17.3904 135.483 17.9809C134.891 18.5558 134.596 19.426 134.596 20.5914V26.5123H130.954V13.9716H134.432V15.6266Z" fill="#EAEAED"/>
<path d="M151.939 20.2887C151.939 20.3349 151.915 20.6614 151.869 21.2677H142.367C142.538 22.0445 142.942 22.6582 143.581 23.109C144.219 23.5594 145.012 23.7848 145.962 23.7848C146.616 23.7848 147.192 23.6916 147.69 23.505C148.203 23.3033 148.678 22.9924 149.114 22.5727L151.052 24.6705C149.869 26.0226 148.141 26.6984 145.868 26.6984C144.452 26.6984 143.199 26.4268 142.11 25.8827C141.02 25.3234 140.18 24.5539 139.588 23.575C138.997 22.596 138.701 21.4849 138.701 20.2419C138.701 19.0142 138.989 17.9109 139.565 16.9319C140.157 15.9374 140.958 15.1682 141.97 14.6243C142.997 14.0649 144.141 13.7852 145.402 13.7852C146.631 13.7852 147.744 14.0493 148.74 14.5777C149.736 15.106 150.515 15.8675 151.075 16.862C151.651 17.841 151.939 18.9831 151.939 20.2887ZM145.425 16.5357C144.6 16.5357 143.907 16.7687 143.347 17.2349C142.787 17.7012 142.445 18.3383 142.32 19.1463H148.507C148.382 18.3538 148.04 17.7244 147.48 17.2583C146.919 16.7765 146.234 16.5357 145.425 16.5357Z" fill="#EAEAED"/>
<path fill-rule="evenodd" clip-rule="evenodd" d="M17.1837 1.10854C16.6288 0.788037 15.9446 0.788037 15.3897 1.10854C11.4482 3.38497 8.78978 7.64421 8.78978 12.5255C8.78978 13.2212 8.84381 13.9043 8.94782 14.5708C6.23451 13.6507 3.29664 13.9855 0.897029 15.3661C0.341568 15.6856 -0.000544301 16.2772 6.50068e-07 16.9173C0.00284218 20.294 1.75976 23.585 4.90631 25.3987C6.44996 26.2887 8.13483 26.7115 9.79678 26.7123C9.54392 27.4278 9.40636 28.1973 9.40636 28.9991C9.40636 32.7929 12.4867 35.8682 16.2864 35.8682C20.0863 35.8682 23.1665 32.7929 23.1665 28.9991C23.1665 28.1954 23.0283 27.4243 22.7745 26.7077C24.3373 26.6583 25.9115 26.2347 27.361 25.3987C30.5077 23.585 32.2644 20.294 32.2672 16.9174C32.2679 16.2773 31.9258 15.6858 31.3703 15.3662C29.0652 14.04 26.2634 13.6789 23.6414 14.468C23.7352 13.8341 23.7834 13.1855 23.7834 12.5255C23.7834 7.64421 21.1253 3.38497 17.1837 1.10854ZM12.3726 12.5255C12.3726 9.35572 13.9098 6.54274 16.2867 4.79179C18.6636 6.54274 20.2008 9.35572 20.2008 12.5255C20.2008 15.6952 18.6636 18.5082 16.2867 20.2592C13.9098 18.5082 12.3726 15.6952 12.3726 12.5255ZM23.3518 18.4656C25.0061 17.512 26.9177 17.4011 28.5876 18.0045C28.2762 19.75 27.224 21.3472 25.5697 22.3009C23.9154 23.2546 22.0038 23.3654 20.3339 22.7622C20.6453 21.0165 21.6975 19.4193 23.3518 18.4656ZM3.67986 18.0043C5.34967 17.4009 7.2612 17.5119 8.91555 18.4655C10.5699 19.4191 11.6219 21.0165 11.9335 22.7619C10.2636 23.3654 8.35207 23.2546 6.69772 22.3009C5.04337 21.3472 3.99134 19.7499 3.67986 18.0043ZM12.9892 28.9991C12.9892 27.181 14.4654 25.7069 16.2864 25.7069C18.1075 25.7069 19.5838 27.181 19.5838 28.9991C19.5838 30.8171 18.1075 32.2912 16.2864 32.2912C14.4654 32.2912 12.9892 30.8171 12.9892 28.9991Z" fill="#23AD7A"/>
</svg>
