<svg width="160" height="36" viewBox="0 0 160 36" fill="none" xmlns="http://www.w3.org/2000/svg">
<path fill-rule="evenodd" clip-rule="evenodd" d="M6.38215 9.67585C9.05539 6.10083 13.3361 3.78469 18.161 3.78469C23.0141 3.78469 27.3166 6.12816 29.9866 9.73903C29.873 9.85523 29.7695 9.97563 29.6759 10.0959C29.1867 10.7256 28.8188 11.5367 28.524 12.3603C27.9303 14.0169 27.4774 16.1807 27.0582 18.207L27.0209 18.3891C26.6026 20.4116 26.2138 22.2926 25.7436 23.6889C25.5324 24.3162 25.3321 24.7597 25.1545 25.0438C24.9692 24.7575 24.7589 24.3086 24.5363 23.6722C24.0335 22.2358 23.6106 20.2821 23.1623 18.1959L23.1477 18.1276C22.7169 16.1238 22.2599 13.9976 21.6901 12.3702C21.4039 11.5527 21.0526 10.7497 20.5933 10.1259C20.1424 9.51363 19.3919 8.82266 18.2943 8.82266C17.2036 8.82266 16.4496 9.50613 15.9923 10.1115C15.524 10.7313 15.159 11.531 14.8582 12.3489C14.2526 13.996 13.7574 16.1505 13.2966 18.1795L13.249 18.3891C12.7927 20.3991 12.3661 22.2782 11.8819 23.6772C11.697 24.2115 11.5226 24.6179 11.3647 24.9083C11.2104 24.6193 11.0404 24.2155 10.8605 23.6858C10.396 22.3166 9.98906 20.4901 9.552 18.5283L9.4755 18.185C9.02264 16.1547 8.53134 13.9963 7.91709 12.3441C7.61189 11.5231 7.2386 10.7194 6.75553 10.0967C6.64615 9.95576 6.52183 9.81269 6.38215 9.67585ZM4.76424 12.4209C4.89156 12.6709 5.02623 12.9807 5.1655 13.3553C5.69718 14.7854 6.14764 16.7369 6.6115 18.8164L6.70175 19.2216C7.12409 21.1192 7.56343 23.093 8.08088 24.6179C8.3561 25.429 8.68846 26.2234 9.11593 26.8408C9.52015 27.4247 10.2453 28.1789 11.3604 28.1789C12.4723 28.1789 13.1992 27.4283 13.6062 26.8471C14.0373 26.2311 14.3751 25.4376 14.6559 24.626C15.1942 23.0709 15.6524 21.0508 16.091 19.1175L16.1581 18.8219C16.6307 16.7411 17.0856 14.7857 17.6134 13.3504C17.8579 12.6854 18.0869 12.2221 18.2861 11.9347C18.4751 12.2196 18.6908 12.6756 18.9197 13.3291C19.4226 14.7656 19.8451 16.7193 20.2935 18.8055L20.3082 18.8738C20.7389 20.8776 21.1959 23.0038 21.7657 24.631C22.0519 25.4489 22.4032 26.2518 22.8626 26.8755C23.3135 27.4879 24.0639 28.1789 25.1613 28.1789C26.2646 28.1789 27.0123 27.4816 27.4579 26.8638C27.9103 26.2369 28.2505 25.4313 28.5253 24.6148C29.0536 23.0464 29.4738 21.0115 29.8739 19.0756L29.9316 18.7945C30.3627 16.7108 30.7765 14.7648 31.2875 13.339C31.3983 13.0288 31.5074 12.7643 31.6114 12.5422C32.3945 14.3266 32.8287 16.2969 32.8287 18.368C32.8287 26.4221 26.2619 32.9515 18.161 32.9515C10.0601 32.9515 3.49312 26.4221 3.49312 18.368C3.49312 16.2498 3.94735 14.2371 4.76424 12.4209ZM18.161 0.868042C8.44 0.868042 0.55957 8.70307 0.55957 18.368C0.55957 28.033 8.44 35.868 18.161 35.868C27.8821 35.868 35.7621 28.033 35.7621 18.368C35.7621 8.70307 27.8821 0.868042 18.161 0.868042ZM18.4963 11.6906C18.4963 11.6909 18.4929 11.6937 18.486 11.6976C18.4928 11.6922 18.4963 11.6902 18.4963 11.6906ZM18.0908 11.6926C18.084 11.6884 18.0807 11.6856 18.0807 11.6852C18.0807 11.6848 18.0841 11.6869 18.0908 11.6926ZM24.9383 25.3206C24.9383 25.3206 24.9415 25.3175 24.9478 25.3134C24.9415 25.3188 24.9383 25.3211 24.9383 25.3206ZM25.3648 25.3089C25.3716 25.3129 25.3753 25.3157 25.3753 25.3161C25.3753 25.3166 25.3716 25.3143 25.3648 25.3089ZM11.0598 25.3468C11.0598 25.3464 11.064 25.3423 11.0724 25.3364C11.0641 25.3441 11.0598 25.3473 11.0598 25.3468ZM11.6539 25.3391C11.6623 25.345 11.6665 25.3491 11.6665 25.3495C11.6664 25.35 11.6622 25.3473 11.6539 25.3391Z" fill="#C3C3CA"/>
<path d="M45.4807 28.7285L41.2123 14.2123H44.951L47.4825 24.6604L50.4259 14.2123H54.6057L57.5495 24.6604L60.1105 14.2123H63.8488L59.5513 28.7285H55.6363L52.5158 17.8706L49.3957 28.7285H45.4807Z" fill="#C3C3CA"/>
<path d="M69.3352 29.0799C68.0792 29.0799 67.049 28.8843 66.2446 28.4941C65.4402 28.0845 64.8415 27.548 64.449 26.8846C64.0566 26.2211 63.8604 25.4895 63.8604 24.6897C63.8604 23.3435 64.39 22.2508 65.4497 21.4118C66.5094 20.5729 68.0992 20.1534 70.2187 20.1534H73.9274V19.8021C73.9274 18.8071 73.6426 18.0754 73.0739 17.6072C72.5048 17.1389 71.798 16.9048 70.9545 16.9048C70.1891 16.9048 69.5219 17.0901 68.9527 17.4608C68.3836 17.8121 68.0302 18.3388 67.893 19.0412H64.2133C64.3119 17.9877 64.6648 17.0706 65.273 16.2902C65.9012 15.5097 66.7056 14.9147 67.6868 14.5049C68.6684 14.0757 69.7672 13.8611 70.9836 13.8611C73.064 13.8611 74.7024 14.3781 75.8997 15.4122C77.0966 16.4463 77.6953 17.9096 77.6953 19.8021V28.7285H74.4866L74.1337 26.3873C73.7017 27.1677 73.0935 27.8113 72.3086 28.3189C71.5432 28.826 70.5521 29.0799 69.3352 29.0799ZM70.1891 26.1529C71.2684 26.1529 72.1023 25.8016 72.691 25.0993C73.2992 24.3971 73.6822 23.5286 73.8393 22.4947H70.6306C69.6295 22.4947 68.9137 22.68 68.4817 23.0507C68.0502 23.4017 67.834 23.8411 67.834 24.3677C67.834 24.9336 68.0502 25.3726 68.4817 25.6846C68.9137 25.9967 69.4823 26.1529 70.1891 26.1529Z" fill="#C3C3CA"/>
<path d="M83.6267 28.7285L78.2695 14.2123H82.2136L85.9228 25.1874L89.6316 14.2123H93.5762L88.1894 28.7285H83.6267Z" fill="#C3C3CA"/>
<path d="M101.15 29.0799C99.6784 29.0799 98.3734 28.7673 97.2351 28.1432C96.0972 27.5186 95.2042 26.6407 94.5565 25.5089C93.9087 24.3777 93.5853 23.0702 93.5853 21.5874C93.5853 20.0851 93.8992 18.7486 94.5269 17.5779C95.1747 16.4072 96.0577 15.5 97.1765 14.8561C98.3143 14.1927 99.6488 13.8611 101.18 13.8611C102.612 13.8611 103.878 14.1732 104.977 14.7976C106.076 15.4219 106.93 16.2804 107.538 17.3731C108.166 18.4461 108.48 19.6461 108.48 20.9728C108.48 21.1875 108.47 21.4118 108.45 21.6459C108.45 21.8801 108.44 22.124 108.421 22.3776H97.3236C97.4022 23.5092 97.7947 24.3971 98.501 25.0411C99.2269 25.6846 100.1 26.0066 101.121 26.0066C101.886 26.0066 102.524 25.8409 103.034 25.5089C103.564 25.158 103.956 24.7091 104.212 24.1627H108.038C107.764 25.0799 107.302 25.919 106.655 26.68C106.027 27.4211 105.242 28.0064 104.3 28.4359C103.378 28.8649 102.327 29.0799 101.15 29.0799ZM101.18 16.9048C100.257 16.9048 99.4431 17.1682 98.7363 17.695C98.03 18.2023 97.5785 18.9827 97.3822 20.0363H104.653C104.594 19.0802 104.241 18.3193 103.593 17.7535C102.946 17.1877 102.141 16.9048 101.18 16.9048Z" fill="#C3C3CA"/>
<path d="M110.472 28.7285V7.65656H114.24V28.7285H110.472Z" fill="#C3C3CA"/>
<path d="M124.006 29.0799C122.534 29.0799 121.229 28.7673 120.091 28.1432C118.953 27.5186 118.06 26.6407 117.412 25.5089C116.765 24.3777 116.441 23.0702 116.441 21.5874C116.441 20.0851 116.755 18.7486 117.383 17.5779C118.031 16.4072 118.914 15.5 120.032 14.8561C121.171 14.1927 122.505 13.8611 124.036 13.8611C125.468 13.8611 126.734 14.1732 127.833 14.7976C128.932 15.4219 129.786 16.2804 130.394 17.3731C131.022 18.4461 131.336 19.6461 131.336 20.9728C131.336 21.1875 131.326 21.4118 131.306 21.6459C131.306 21.8801 131.296 22.124 131.277 22.3776H120.18C120.258 23.5092 120.651 24.3971 121.357 25.0411C122.083 25.6846 122.956 26.0066 123.977 26.0066C124.742 26.0066 125.38 25.8409 125.89 25.5089C126.42 25.158 126.812 24.7091 127.068 24.1627H130.894C130.62 25.0799 130.158 25.919 129.511 26.68C128.883 27.4211 128.098 28.0064 127.156 28.4359C126.234 28.8649 125.184 29.0799 124.006 29.0799ZM124.036 16.9048C123.113 16.9048 122.299 17.1682 121.592 17.695C120.886 18.2023 120.434 18.9827 120.238 20.0363H127.509C127.45 19.0802 127.097 18.3193 126.449 17.7535C125.802 17.1877 124.997 16.9048 124.036 16.9048Z" fill="#C3C3CA"/>
<path d="M139.361 29.0799C138.066 29.0799 136.928 28.8748 135.947 28.4652C134.965 28.0357 134.18 27.4504 133.592 26.7089C133.003 25.9678 132.65 25.1093 132.532 24.1338H136.329C136.447 24.6992 136.761 25.1874 137.271 25.597C137.801 25.9872 138.478 26.1823 139.302 26.1823C140.127 26.1823 140.725 26.0166 141.098 25.6846C141.49 25.3531 141.686 24.9724 141.686 24.5434C141.686 23.9188 141.412 23.4993 140.862 23.2848C140.313 23.0507 139.547 22.8264 138.566 22.6118C137.939 22.4751 137.301 22.3093 136.653 22.1142C136.005 21.9191 135.407 21.6752 134.858 21.3826C134.327 21.0704 133.896 20.6802 133.562 20.2119C133.229 19.7241 133.062 19.129 133.062 18.4266C133.062 17.1389 133.572 16.0561 134.593 15.1781C135.632 14.3001 137.085 13.8611 138.949 13.8611C140.676 13.8611 142.05 14.261 143.07 15.061C144.11 15.861 144.728 16.9633 144.925 18.3681H141.363C141.147 17.295 140.332 16.7585 138.92 16.7585C138.213 16.7585 137.664 16.895 137.271 17.1682C136.898 17.4413 136.712 17.7828 136.712 18.1925C136.712 18.6218 136.996 18.9632 137.566 19.2169C138.135 19.4705 138.89 19.7046 139.832 19.9192C140.852 20.1534 141.785 20.4167 142.628 20.7094C143.492 20.9826 144.179 21.4021 144.689 21.9679C145.199 22.5142 145.454 23.3042 145.454 24.3384C145.474 25.2362 145.238 26.0455 144.748 26.7676C144.257 27.4893 143.551 28.0551 142.628 28.4652C141.706 28.8748 140.617 29.0799 139.361 29.0799Z" fill="#C3C3CA"/>
<path d="M153.649 29.0799C152.354 29.0799 151.216 28.8748 150.235 28.4652C149.253 28.0357 148.469 27.4504 147.88 26.7089C147.291 25.9678 146.938 25.1093 146.82 24.1338H150.618C150.735 24.6992 151.049 25.1874 151.559 25.597C152.089 25.9872 152.766 26.1823 153.59 26.1823C154.414 26.1823 155.013 26.0166 155.386 25.6846C155.779 25.3531 155.975 24.9724 155.975 24.5434C155.975 23.9188 155.7 23.4993 155.15 23.2848C154.601 23.0507 153.836 22.8264 152.855 22.6118C152.226 22.4751 151.589 22.3093 150.941 22.1142C150.294 21.9191 149.695 21.6752 149.145 21.3826C148.616 21.0704 148.184 20.6802 147.85 20.2119C147.517 19.7241 147.35 19.129 147.35 18.4266C147.35 17.1389 147.86 16.0561 148.881 15.1781C149.921 14.3001 151.373 13.8611 153.237 13.8611C154.964 13.8611 156.338 14.261 157.358 15.061C158.398 15.861 159.016 16.9633 159.212 18.3681H155.651C155.435 17.295 154.621 16.7585 153.208 16.7585C152.501 16.7585 151.952 16.895 151.559 17.1682C151.186 17.4413 151 17.7828 151 18.1925C151 18.6218 151.284 18.9632 151.854 19.2169C152.423 19.4705 153.178 19.7046 154.12 19.9192C155.141 20.1534 156.073 20.4167 156.917 20.7094C157.78 20.9826 158.467 21.4021 158.977 21.9679C159.487 22.5142 159.743 23.3042 159.743 24.3384C159.762 25.2362 159.527 26.0455 159.036 26.7676C158.545 27.4893 157.839 28.0551 156.917 28.4652C155.994 28.8748 154.905 29.0799 153.649 29.0799Z" fill="#C3C3CA"/>
</svg>
