<svg width="191" height="36" viewBox="0 0 191 36" fill="none" xmlns="http://www.w3.org/2000/svg">
<path d="M61.497 32.1366C58.7472 32.1366 56.3163 31.5919 54.2044 30.5035C52.0924 29.3899 50.4597 27.8186 49.3057 25.79C48.1516 23.7611 47.5746 21.3735 47.5746 18.6271C47.5746 15.8807 48.1516 13.4931 49.3057 11.4642C50.4597 9.41059 52.0924 7.83949 54.2044 6.75083C56.3163 5.63742 58.7472 5.08069 61.497 5.08069C63.3634 5.08069 65.0086 5.27866 66.4326 5.67454C67.8817 6.04567 69.2075 6.63947 70.4104 7.45598V12.8374C69.3303 11.9467 68.0904 11.3034 66.6907 10.9075C65.3155 10.4869 63.7442 10.2766 61.9762 10.2766C60.331 10.2766 58.845 10.623 57.5192 11.3158C56.218 11.9838 55.1867 12.9487 54.4255 14.2106C53.6643 15.4724 53.2834 16.9446 53.2834 18.6271C53.2834 20.3343 53.6273 21.8312 54.3147 23.1178C55.027 24.3797 56.0213 25.357 57.2981 26.0498C58.5749 26.7426 60.0485 27.0889 61.7181 27.0889C63.2406 27.0889 64.5663 26.8168 65.6959 26.2724V21.2621H61.5339V17.1055H71.1102V29.6127C68.6793 31.2951 65.4753 32.1366 61.497 32.1366Z" fill="#C3C3CA"/>
<path d="M72.4036 13.7653H77.7809V16.3261C78.4933 15.4602 79.4876 14.8045 80.7644 14.3591C82.0412 13.889 83.4903 13.654 85.1105 13.654V17.922C83.4164 17.922 81.9184 18.1818 80.6172 18.7014C79.3403 19.221 78.4563 20.0127 77.9651 21.0767V31.5799H72.4036V13.7653Z" fill="#C3C3CA"/>
<path d="M95.7993 32.1367C92.4105 32.1367 89.746 31.3198 87.8063 29.6867C85.8666 28.0295 84.8967 25.7158 84.8967 22.7467C84.8967 19.8024 85.7563 17.4767 87.4748 15.7694C89.2184 14.0622 91.6982 13.2086 94.9153 13.2086C97.0267 13.2086 98.8191 13.6045 100.293 14.3962C101.766 15.188 102.883 16.289 103.644 17.6993C104.406 19.0849 104.786 20.656 104.786 22.4127V24.6767H90.2008C90.5936 26.953 92.705 28.0913 96.5355 28.0913C97.6651 28.0913 98.8316 27.9922 100.035 27.7941C101.238 27.5962 102.282 27.324 103.166 26.9777V30.9119C102.306 31.2826 101.201 31.5799 99.8504 31.8027C98.5002 32.025 97.1495 32.1367 95.7993 32.1367ZM99.519 21.0395C99.4456 19.8519 99.0033 18.9365 98.1932 18.2932C97.3831 17.6251 96.2655 17.2911 94.8414 17.2911C93.4417 17.2911 92.3366 17.6251 91.5265 18.2932C90.7164 18.9612 90.2741 19.8766 90.2008 21.0395H99.519Z" fill="#C3C3CA"/>
<path d="M116.186 32.1367C112.798 32.1367 110.133 31.3198 108.194 29.6867C106.254 28.0295 105.284 25.7158 105.284 22.7467C105.284 19.8024 106.143 17.4767 107.862 15.7694C109.605 14.0622 112.086 13.2086 115.302 13.2086C117.414 13.2086 119.207 13.6045 120.68 14.3962C122.153 15.188 123.27 16.289 124.031 17.6993C124.793 19.0849 125.174 20.656 125.174 22.4127V24.6767H110.588C110.981 26.953 113.092 28.0913 116.923 28.0913C118.053 28.0913 119.219 27.9922 120.422 27.7941C121.625 27.5962 122.669 27.324 123.553 26.9777V30.9119C122.693 31.2826 121.589 31.5799 120.238 31.8027C118.887 32.025 117.537 32.1367 116.186 32.1367ZM119.906 21.0395C119.833 19.8519 119.391 18.9365 118.581 18.2932C117.77 17.6251 116.653 17.2911 115.229 17.2911C113.829 17.2911 112.724 17.6251 111.914 18.2932C111.103 18.9612 110.662 19.8766 110.588 21.0395H119.906Z" fill="#C3C3CA"/>
<path d="M126.407 13.7653H131.785V15.955C132.596 15.0395 133.553 14.3591 134.658 13.9138C135.788 13.4436 136.966 13.2086 138.194 13.2086C140.6 13.2086 142.393 13.8643 143.571 15.1756C144.774 16.4622 145.376 18.2066 145.376 20.4086V31.5799H139.814V21.0395C139.814 18.7385 138.759 17.588 136.647 17.588C135.714 17.588 134.842 17.823 134.032 18.2932C133.221 18.7385 132.534 19.4066 131.969 20.2973V31.5799H126.407V13.7653Z" fill="#C3C3CA"/>
<path d="M150.283 11.0189C149.424 11.0189 148.7 10.7344 148.11 10.1653C147.521 9.59621 147.226 8.87868 147.226 8.01268C147.226 7.17148 147.521 6.46633 148.11 5.89722C148.7 5.30343 149.424 5.00653 150.283 5.00653C151.143 5.00653 151.867 5.30343 152.456 5.89722C153.046 6.46633 153.34 7.17148 153.34 8.01268C153.34 8.87868 153.046 9.59621 152.456 10.1653C151.867 10.7344 151.143 11.0189 150.283 11.0189ZM147.484 13.7653H153.083V31.5798H147.484V13.7653Z" fill="#C3C3CA"/>
<path d="M162.568 32.1367C161.242 32.1367 159.818 31.9877 158.295 31.691C156.797 31.4189 155.619 31.0231 154.759 30.5035V26.1241C155.742 26.7179 156.92 27.2004 158.295 27.5715C159.671 27.9424 160.947 28.128 162.126 28.128C163.133 28.128 163.869 28.0415 164.336 27.8685C164.802 27.6952 165.035 27.3735 165.035 26.9035C165.035 26.5323 164.901 26.2354 164.631 26.0127C164.361 25.7653 163.943 25.555 163.378 25.3818C162.838 25.1838 161.929 24.8993 160.652 24.5282C159.155 24.0829 157.976 23.6375 157.117 23.1921C156.282 22.722 155.643 22.1406 155.202 21.4478C154.784 20.755 154.575 19.8643 154.575 18.7756C154.575 16.9199 155.299 15.5344 156.749 14.6189C158.222 13.6787 160.211 13.2086 162.715 13.2086C163.943 13.2086 165.208 13.3447 166.509 13.6169C167.835 13.8643 168.854 14.1983 169.566 14.6189V18.887C168.854 18.4168 167.921 18.0333 166.767 17.7364C165.637 17.4395 164.532 17.2911 163.452 17.2911C162.445 17.2911 161.659 17.39 161.095 17.588C160.555 17.7859 160.284 18.1571 160.284 18.7014C160.284 19.1715 160.542 19.5302 161.058 19.7777C161.598 20.0251 162.593 20.3344 164.041 20.7055L164.778 20.8911C166.325 21.3117 167.528 21.7818 168.387 22.3014C169.247 22.7962 169.848 23.4024 170.192 24.1199C170.561 24.8127 170.745 25.6911 170.745 26.755C170.745 28.3881 170.045 29.6993 168.645 30.6891C167.246 31.6538 165.22 32.1367 162.568 32.1367Z" fill="#C3C3CA"/>
<path d="M172.031 4.15289H177.593V15.8065C178.428 14.9405 179.373 14.2972 180.429 13.8766C181.484 13.4312 182.614 13.2086 183.818 13.2086C186.224 13.2086 188.016 13.8642 189.195 15.1756C190.398 16.4622 191 18.2065 191 20.4086V31.5798H185.438V21.0395C185.438 18.7384 184.382 17.588 182.271 17.588C181.337 17.588 180.466 17.823 179.656 18.2931C178.845 18.7384 178.158 19.4065 177.593 20.2972V31.5798H172.031V4.15289Z" fill="#C3C3CA"/>
<path fill-rule="evenodd" clip-rule="evenodd" d="M28.5804 9.40411C28.5804 14.1185 24.7878 17.9402 20.1092 17.9402C15.4305 17.9402 11.6377 14.1185 11.6377 9.40411C11.6377 4.68977 15.4305 0.868042 20.1092 0.868042C24.7878 0.868042 28.5804 4.68977 28.5804 9.40411ZM0.403846 17.3198C9.63331 16.693 17.6771 23.6557 18.4263 32.9754C18.504 33.9411 18.5002 34.8943 18.4209 35.8288C9.19147 36.4557 1.14773 29.4929 0.398468 20.1733C0.32088 19.2076 0.324574 18.2542 0.403846 17.3198ZM24.3926 35.5025C33.6415 34.7476 40.5517 26.6425 39.9295 17.3427C39.0021 17.2628 38.0561 17.2591 37.0977 17.3373C27.8485 18.0922 20.9385 26.1973 21.5606 35.4971C22.4879 35.577 23.4341 35.5808 24.3926 35.5025Z" fill="#C3C3CA"/>
</svg>
