<svg width="100" height="101" viewBox="0 0 100 101" fill="none" xmlns="http://www.w3.org/2000/svg">
<circle cx="50" cy="50.0604" r="50" fill="url(#paint0_linear_123_8439)"/>
<path d="M41.6674 52.1357L49.6774 49.2057L49.8373 49.0957C51.4174 47.9757 52.9274 46.7457 54.3574 45.4057C54.4073 45.1057 54.4374 44.7957 54.4673 44.4857H52.3973C51.8474 44.4857 51.3973 44.0457 51.3973 43.4857C51.3973 42.9357 51.8474 42.4857 52.3973 42.4857H54.4573C53.9673 36.5257 49.2073 31.7557 43.2474 31.2757V33.3357C43.2474 33.8857 42.7974 34.3357 42.2474 34.3357C41.6874 34.3357 41.2474 33.8857 41.2474 33.3357V31.2757C35.2773 31.7557 30.5073 36.5257 30.0273 42.4857H32.0873C32.6373 42.4857 33.0873 42.9357 33.0873 43.4857C33.0873 44.0457 32.6373 44.4857 32.0873 44.4857H30.0273C30.4874 50.1057 34.7374 54.6757 40.2173 55.5857C40.6573 54.7057 41.3074 53.9457 42.1174 53.3757L41.6674 52.1357ZM41.2474 44.6557V39.6257C41.2474 39.0757 41.6874 38.6257 42.2474 38.6257C42.7974 38.6257 43.2474 39.0757 43.2474 39.6257V43.9257L46.7374 45.0457C47.2673 45.2157 47.5574 45.7757 47.3873 46.2957C47.2573 46.7257 46.8574 46.9957 46.4374 46.9957C46.3373 46.9957 46.2374 46.9757 46.1373 46.9457L41.9374 45.6057C41.5273 45.4757 41.2474 45.0957 41.2474 44.6557Z" fill="#051226"/>
<path d="M39.5865 58.2357C39.5865 57.9957 39.5966 57.7557 39.6266 57.5157C33.0065 56.2857 27.9766 50.4657 27.9766 43.4957C27.9766 35.6257 34.3766 29.2257 42.2466 29.2257C50.0366 29.2257 56.3766 35.5057 56.4966 43.2757C57.3566 42.3757 58.1666 41.4357 58.9465 40.4557L58.9565 40.4457C57.4065 31.7957 49.3265 25.4357 40.0065 26.6257C32.4366 27.5857 26.3365 33.7057 25.3766 41.2757C24.1565 50.8557 30.9366 59.1457 39.9665 60.3257C39.9565 60.3057 39.9465 60.2757 39.9366 60.2557C39.7065 59.6057 39.5865 58.9357 39.5865 58.2357Z" fill="#051226"/>
<path d="M50.9973 50.7257L50.6173 50.9957L44.2273 53.3257L44.6119 54.3827L44.1599 54.546C42.5698 55.126 41.5898 56.636 41.5898 58.236C41.5898 58.676 41.6599 59.126 41.8198 59.566C42.5598 61.596 44.8098 62.646 46.8398 61.906L47.2903 61.7424L47.7173 62.9157L54.1073 60.5857L54.5773 60.5557C58.9673 60.1957 63.3673 60.4657 67.6573 61.3457L60.5073 41.7057C57.7773 45.1357 54.5873 48.1757 50.9973 50.7257Z" fill="#051226"/>
<path d="M66.3857 43.7957L63.8658 36.8757C63.2557 37.8757 62.6158 38.8557 61.9258 39.8057L69.9758 61.8857C71.1058 62.1757 72.2258 62.5057 73.3358 62.8857L70.8157 55.9557L66.3857 43.7957Z" fill="#051226"/>
<path d="M74.3577 47.7757C73.4077 45.1457 70.9777 43.4657 68.3477 43.3257L72.6077 55.0457C73.2477 54.4557 73.7676 53.7357 74.1277 52.9557C74.8677 51.3757 74.9977 49.5257 74.3577 47.7757Z" fill="#051226"/>
<path d="M54.1268 62.7057L49.3867 64.4357L51.4067 69.9757C51.8967 71.3257 53.4167 71.9957 54.7468 71.4457C55.9868 70.9257 56.6068 69.5157 56.1467 68.2557L54.1268 62.7057Z" fill="#051226"/>
<defs>
<linearGradient id="paint0_linear_123_8439" x1="-0.434781" y1="4.60581" x2="111.121" y2="20.1266" gradientUnits="userSpaceOnUse">
<stop stop-color="#FFD800"/>
<stop offset="1" stop-color="#A6FB00"/>
</linearGradient>
</defs>
</svg>
