<svg width="16" height="17" viewBox="0 0 16 17" fill="none" xmlns="http://www.w3.org/2000/svg">
<path d="M14.354 1.70728C13.9287 1.28208 13.3519 1.04321 12.7505 1.04321C12.1491 1.04321 11.5724 1.28208 11.147 1.70728L6.89704 5.95728C6.84213 6.01202 6.80071 6.07877 6.77604 6.15228L5.52604 9.90228C5.49659 9.99035 5.49225 10.0849 5.51351 10.1753C5.53477 10.2657 5.58079 10.3484 5.6464 10.4141C5.71202 10.4798 5.79464 10.526 5.88501 10.5474C5.97538 10.5688 6.06992 10.5646 6.15804 10.5353L9.90804 9.28528C9.9819 9.26075 10.049 9.21931 10.104 9.16428L14.354 4.91428C14.7792 4.48896 15.0181 3.91218 15.0181 3.31078C15.0181 2.70937 14.7792 2.13259 14.354 1.70728ZM12.987 7.69528C13.0616 8.71264 12.8233 9.72848 12.3039 10.6065C11.7846 11.4845 11.0091 12.1826 10.0816 12.6072C9.15404 13.0318 8.11883 13.1625 7.11486 12.9818C6.11089 12.8012 5.18621 12.3177 4.46489 11.5964C3.74358 10.8751 3.26015 9.95042 3.07947 8.94646C2.8988 7.94249 3.02953 6.90728 3.45413 5.97975C3.87872 5.05222 4.57685 4.27675 5.45485 3.7574C6.33284 3.23806 7.34868 2.99968 8.36604 3.07428L9.24904 2.19028C7.98338 1.92117 6.66463 2.06844 5.48951 2.61012C4.31439 3.1518 3.34586 4.05885 2.72841 5.19598C2.11095 6.33312 1.87765 7.63939 2.06331 8.91996C2.24896 10.2005 2.84362 11.3868 3.75859 12.3017C4.67355 13.2167 5.85979 13.8114 7.14036 13.997C8.42093 14.1827 9.7272 13.9494 10.8643 13.3319C12.0015 12.7145 12.9085 11.7459 13.4502 10.5708C13.9919 9.39569 14.1391 8.07694 13.87 6.81128L12.987 7.69528Z" fill="url(#paint0_linear_108_2500)"/>
<defs>
<linearGradient id="paint0_linear_108_2500" x1="1.94463" y1="1.63484" x2="16.4657" y2="3.65532" gradientUnits="userSpaceOnUse">
<stop stop-color="#FFD800"/>
<stop offset="1" stop-color="#A6FB00"/>
</linearGradient>
</defs>
</svg>
