<svg width="60" height="61" viewBox="0 0 60 61" fill="none" xmlns="http://www.w3.org/2000/svg">
<path d="M37.656 42.0603V37.1403C37.6402 36.9723 37.5622 36.8162 37.4374 36.7026C37.3125 36.589 37.1498 36.5261 36.981 36.5261C36.8122 36.5261 36.6495 36.589 36.5247 36.7026C36.3999 36.8162 36.3219 36.9723 36.306 37.1403V42.0603H23.706V37.1403C23.6902 36.9723 23.6122 36.8162 23.4874 36.7026C23.3625 36.589 23.1998 36.5261 23.031 36.5261C22.8622 36.5261 22.6995 36.589 22.5747 36.7026C22.4499 36.8162 22.3719 36.9723 22.356 37.1403V42.0603H18.816C18.6373 42.0588 18.4663 41.9866 18.3405 41.8596C18.2146 41.7327 18.144 41.5611 18.144 41.3823V39.1863C18.144 36.0387 19.3944 33.0201 21.6201 30.7944C23.8458 28.5687 26.8644 27.3183 30.012 27.3183C33.1596 27.3183 36.1783 28.5687 38.404 30.7944C40.6297 33.0201 41.88 36.0387 41.88 39.1863V41.3943C41.8769 41.5731 41.8032 41.7434 41.6751 41.8681C41.547 41.9929 41.3748 42.062 41.196 42.0603H37.656ZM30 25.0143C31.1338 25.0155 32.2425 24.6803 33.1857 24.0512C34.1289 23.422 34.8643 22.5272 35.2987 21.4799C35.7331 20.4326 35.8471 19.28 35.6262 18.1679C35.4053 17.0559 34.8595 16.0343 34.0578 15.2326C33.256 14.4309 32.2345 13.8851 31.1224 13.6642C30.0104 13.4432 28.8577 13.5572 27.8105 13.9917C26.7632 14.4261 25.8684 15.1615 25.2392 16.1047C24.61 17.0479 24.2748 18.1565 24.276 19.2903C24.276 20.8084 24.8791 22.2644 25.9526 23.3378C27.026 24.4113 28.4819 25.0143 30 25.0143ZM29.526 10.6143C29.588 10.6771 29.6618 10.7269 29.7432 10.761C29.8245 10.795 29.9118 10.8125 30 10.8125C30.0882 10.8125 30.1755 10.795 30.2569 10.761C30.3383 10.7269 30.4121 10.6771 30.474 10.6143L33.282 7.86034C33.345 7.79787 33.3949 7.72356 33.429 7.64169C33.4631 7.55983 33.4807 7.47202 33.4807 7.38334C33.4807 7.29465 33.4631 7.20685 33.429 7.12498C33.3949 7.04311 33.345 6.9688 33.282 6.90634C33.1543 6.78209 32.9832 6.71257 32.805 6.71257C32.6269 6.71257 32.4557 6.78209 32.328 6.90634L30.672 8.56834V3.16834C30.672 2.99011 30.6012 2.81919 30.4752 2.69316C30.3492 2.56714 30.1783 2.49634 30 2.49634C29.8218 2.49634 29.6509 2.56714 29.5249 2.69316C29.3988 2.81919 29.328 2.99011 29.328 3.16834V8.56834L27.672 6.90634C27.5443 6.78209 27.3732 6.71257 27.195 6.71257C27.0169 6.71257 26.8457 6.78209 26.718 6.90634C26.6551 6.9688 26.6051 7.04311 26.571 7.12498C26.5369 7.20685 26.5194 7.29465 26.5194 7.38334C26.5194 7.47202 26.5369 7.55983 26.571 7.64169C26.6051 7.72356 26.6551 7.79787 26.718 7.86034L29.526 10.6143ZM35.124 10.2603C38.6568 11.1754 41.8806 13.0188 44.4611 15.5993C47.0416 18.1798 48.885 21.4035 49.8 24.9363C49.8487 25.1035 49.9604 25.2453 50.1116 25.3318C50.2627 25.4182 50.4415 25.4426 50.6103 25.3998C50.7791 25.3571 50.9247 25.2504 51.0165 25.1024C51.1082 24.9544 51.1389 24.7765 51.102 24.6063C50.1228 20.8543 48.1613 17.431 45.4193 14.6891C42.6773 11.9471 39.2541 9.98554 35.502 9.00634C35.3504 8.99624 35.1997 9.03787 35.0748 9.12443C34.9498 9.21099 34.8579 9.33736 34.814 9.48291C34.7701 9.62846 34.7769 9.78458 34.8332 9.92579C34.8895 10.067 34.992 10.1849 35.124 10.2603ZM56.928 29.3883H51.528L53.19 27.7323C53.3143 27.6046 53.3838 27.4335 53.3838 27.2553C53.3838 27.0772 53.3143 26.906 53.19 26.7783C53.1276 26.7154 53.0533 26.6654 52.9714 26.6313C52.8895 26.5972 52.8017 26.5797 52.713 26.5797C52.6244 26.5797 52.5366 26.5972 52.4547 26.6313C52.3728 26.6654 52.2985 26.7154 52.236 26.7783L49.428 29.5863C49.3653 29.6483 49.3154 29.7221 49.2814 29.8035C49.2474 29.8848 49.2299 29.9721 49.2299 30.0603C49.2299 30.1485 49.2474 30.2358 49.2814 30.3172C49.3154 30.3986 49.3653 30.4724 49.428 30.5343L52.236 33.3423C52.2985 33.4053 52.3728 33.4552 52.4547 33.4893C52.5366 33.5234 52.6244 33.541 52.713 33.541C52.8017 33.541 52.8895 33.5234 52.9714 33.4893C53.0533 33.4552 53.1276 33.4053 53.19 33.3423C53.3143 33.2146 53.3838 33.0435 53.3838 32.8653C53.3838 32.6872 53.3143 32.516 53.19 32.3883L51.528 30.7323H56.928C57.1063 30.7323 57.2772 30.6615 57.4032 30.5355C57.5292 30.4095 57.6 30.2386 57.6 30.0603C57.6 29.8821 57.5292 29.7112 57.4032 29.5852C57.2772 29.4591 57.1063 29.3883 56.928 29.3883ZM30.474 49.4823C30.4121 49.4196 30.3383 49.3697 30.2569 49.3357C30.1755 49.3017 30.0882 49.2842 30 49.2842C29.9118 49.2842 29.8245 49.3017 29.7432 49.3357C29.6618 49.3697 29.588 49.4196 29.526 49.4823L26.718 52.2903C26.6551 52.3528 26.6051 52.4271 26.571 52.509C26.5369 52.5909 26.5194 52.6787 26.5194 52.7673C26.5194 52.856 26.5369 52.9438 26.571 53.0257C26.6051 53.1076 26.6551 53.1819 26.718 53.2443C26.8457 53.3686 27.0169 53.4381 27.195 53.4381C27.3732 53.4381 27.5443 53.3686 27.672 53.2443L29.328 51.5823V56.9823C29.328 57.1606 29.3988 57.3315 29.5249 57.4575C29.6509 57.5835 29.8218 57.6543 30 57.6543C30.1783 57.6543 30.3492 57.5835 30.4752 57.4575C30.6012 57.3315 30.672 57.1606 30.672 56.9823V51.5823L32.328 53.2443C32.4557 53.3686 32.6269 53.4381 32.805 53.4381C32.9832 53.4381 33.1543 53.3686 33.282 53.2443C33.345 53.1819 33.3949 53.1076 33.429 53.0257C33.4631 52.9438 33.4807 52.856 33.4807 52.7673C33.4807 52.6787 33.4631 52.5909 33.429 52.509C33.3949 52.4271 33.345 52.3528 33.282 52.2903L30.474 49.4823ZM9.40804 25.4223C9.57723 25.4589 9.75403 25.4288 9.90157 25.3383C10.0491 25.2477 10.156 25.1038 10.2 24.9363C11.1151 21.4035 12.9585 18.1798 15.539 15.5993C18.1195 13.0188 21.3432 11.1754 24.876 10.2603C24.9642 10.2413 25.0477 10.2046 25.1214 10.1526C25.1951 10.1005 25.2576 10.0342 25.3052 9.9575C25.3527 9.88079 25.3843 9.7953 25.3981 9.70612C25.4118 9.61694 25.4075 9.5259 25.3853 9.43843C25.3632 9.35096 25.3236 9.26885 25.269 9.197C25.2144 9.12515 25.1459 9.06503 25.0676 9.02022C24.9893 8.97542 24.9027 8.94685 24.8131 8.93622C24.7235 8.92558 24.6327 8.93311 24.546 8.95834C20.794 9.93754 17.3707 11.8991 14.6288 14.6411C11.8868 17.383 9.92524 20.8063 8.94604 24.5583C8.91665 24.6453 8.9054 24.7374 8.91297 24.8289C8.92055 24.9204 8.94679 25.0093 8.99008 25.0903C9.03337 25.1713 9.09279 25.2425 9.16468 25.2996C9.23656 25.3567 9.31938 25.3985 9.40804 25.4223ZM10.578 29.5863L7.80004 26.7783C7.73757 26.7154 7.66326 26.6654 7.58139 26.6313C7.49952 26.5972 7.41172 26.5797 7.32304 26.5797C7.23435 26.5797 7.14655 26.5972 7.06468 26.6313C6.98281 26.6654 6.9085 26.7154 6.84604 26.7783C6.72179 26.906 6.65227 27.0772 6.65227 27.2553C6.65227 27.4335 6.72179 27.6046 6.84604 27.7323L8.50804 29.3883H3.10804C2.92981 29.3883 2.75888 29.4591 2.63286 29.5852C2.50684 29.7112 2.43604 29.8821 2.43604 30.0603C2.43604 30.2386 2.50684 30.4095 2.63286 30.5355C2.75888 30.6615 2.92981 30.7323 3.10804 30.7323H8.50804L6.84604 32.3883C6.72179 32.516 6.65227 32.6872 6.65227 32.8653C6.65227 33.0435 6.72179 33.2146 6.84604 33.3423C6.9085 33.4053 6.98281 33.4552 7.06468 33.4893C7.14655 33.5234 7.23435 33.541 7.32304 33.541C7.41172 33.541 7.49952 33.5234 7.58139 33.4893C7.66326 33.4552 7.73757 33.4053 7.80004 33.3423L10.608 30.5343C10.6689 30.4704 10.7164 30.395 10.7479 30.3126C10.7794 30.2301 10.7941 30.1423 10.7913 30.0541C10.7885 29.9659 10.7682 29.8791 10.7316 29.7988C10.695 29.7185 10.6428 29.6463 10.578 29.5863ZM50.592 34.6983C50.4194 34.6547 50.2365 34.6814 50.0835 34.7725C49.9305 34.8636 49.8199 35.0117 49.776 35.1843C48.863 38.7142 47.0232 41.936 44.4472 44.5162C41.8712 47.0965 38.6524 48.9415 35.124 49.8603C35.0358 49.8794 34.9524 49.9161 34.8787 49.9681C34.8049 50.0201 34.7424 50.0865 34.6949 50.1632C34.6474 50.2399 34.6158 50.3254 34.602 50.4146C34.5882 50.5037 34.5926 50.5948 34.6147 50.6822C34.6369 50.7697 34.6765 50.8518 34.7311 50.9237C34.7856 50.9955 34.8541 51.0556 34.9325 51.1005C35.0108 51.1453 35.0974 51.1738 35.187 51.1845C35.2766 51.1951 35.3674 51.1876 35.454 51.1623C39.2061 50.1831 42.6293 48.2216 45.3713 45.4796C48.1133 42.7376 50.0748 39.3144 51.054 35.5623C51.0834 35.4754 51.0947 35.3833 51.0871 35.2918C51.0795 35.2003 51.0533 35.1113 51.01 35.0304C50.9667 34.9494 50.9073 34.8782 50.8354 34.8211C50.7635 34.764 50.6807 34.7222 50.592 34.6983ZM24.876 49.8603C21.3432 48.9453 18.1195 47.1019 15.539 44.5214C12.9585 41.9409 11.1151 38.7171 10.2 35.1843C10.181 35.0961 10.1443 35.0127 10.0923 34.939C10.0402 34.8652 9.9739 34.8027 9.89719 34.7552C9.82049 34.7077 9.735 34.6761 9.64582 34.6623C9.55664 34.6485 9.4656 34.6529 9.37813 34.675C9.29066 34.6972 9.20855 34.7368 9.1367 34.7914C9.06485 34.8459 9.00473 34.9144 8.95992 34.9928C8.91512 35.0711 8.88655 35.1577 8.87591 35.2473C8.86528 35.3369 8.8728 35.4277 8.89804 35.5143C9.87724 39.2664 11.8388 42.6896 14.5808 45.4316C17.3227 48.1736 20.746 50.1351 24.498 51.1143C24.5858 51.1645 24.6837 51.1942 24.7845 51.2012C24.8853 51.2083 24.9865 51.1925 25.0803 51.1551C25.1742 51.1176 25.2584 51.0595 25.3267 50.985C25.395 50.9105 25.4456 50.8216 25.4748 50.7248C25.504 50.628 25.5109 50.5259 25.4952 50.4261C25.4794 50.3263 25.4414 50.2313 25.3838 50.1482C25.3263 50.0651 25.2507 49.9961 25.1628 49.9463C25.0749 49.8964 24.9769 49.8671 24.876 49.8603Z" fill="#A6FB00"/>
</svg>
