<svg width="16" height="17" viewBox="0 0 16 17" fill="none" xmlns="http://www.w3.org/2000/svg">
<g clip-path="url(#clip0_71_3053)">
<path d="M3.19998 3.26807H12.8C13.24 3.26807 13.616 3.42807 13.928 3.74007C14.24 4.05207 14.4 4.42807 14.4 4.86807V10.4681C14.4 10.9081 14.24 11.2841 13.928 11.5961C13.616 11.9081 13.24 12.0681 12.8 12.0681H12L7.99998 16.0681V12.0681H3.19998C2.75998 12.0681 2.38398 11.9081 2.07198 11.5961C1.75998 11.2841 1.59998 10.9081 1.59998 10.4681V4.86807C1.59998 4.42807 1.75998 4.05207 2.07198 3.74007C2.38398 3.42807 2.75998 3.26807 3.19998 3.26807ZM12 4.86807H3.19998V5.66807H12V4.86807ZM12.8 7.26807H3.19998V8.06807H12.8V7.26807ZM10.4 9.66807H3.19998V10.4681H10.4V9.66807Z" fill="url(#paint0_linear_71_3053)"/>
</g>
<defs>
<linearGradient id="paint0_linear_71_3053" x1="1.54432" y1="3.84988" x2="15.8235" y2="5.83655" gradientUnits="userSpaceOnUse">
<stop stop-color="#FFD800"/>
<stop offset="1" stop-color="#A6FB00"/>
</linearGradient>
<clipPath id="clip0_71_3053">
<rect width="16" height="16" fill="white" transform="translate(0 0.868164)"/>
</clipPath>
</defs>
</svg>
