<svg width="62" height="61" viewBox="0 0 62 61" fill="none" xmlns="http://www.w3.org/2000/svg">
<path d="M42.1593 36.048C41.6695 36.2745 41.1491 36.3908 40.6286 36.3908C40.2184 36.3908 39.8082 36.3235 39.4164 36.1827C38.1674 35.7418 37.298 34.6643 37.0654 33.4276C36.3368 34.0827 35.3756 34.4623 34.3654 34.4623C34.1021 34.4623 33.8327 34.4378 33.5633 34.3827C32.5654 34.1806 31.6837 33.6112 31.0899 32.7847C30.8572 32.4663 30.6797 32.1174 30.5511 31.7561C29.994 32.8582 29.1184 33.7337 28.0164 34.2847L24.3368 36.1276C24.3735 36.6969 24.3246 37.6704 23.7613 38.5092C23.5715 38.7969 23.1797 38.8704 22.898 38.6806C22.6164 38.4908 22.5368 38.099 22.7266 37.8174C23.2715 37.0031 23.0572 35.901 23.0572 35.8888C23.0021 35.6133 23.1368 35.3316 23.3878 35.2092L27.4531 33.1704C28.3103 32.7418 28.996 32.0561 29.4307 31.199C29.8654 30.3418 30.0062 29.3867 29.847 28.4378C29.7735 28.0153 29.5409 27.648 29.1858 27.4092C28.8307 27.1704 28.4082 27.0786 27.9858 27.1643L24.3062 27.899L18.545 29.05C16.9837 29.3622 15.845 30.7459 15.845 32.3439V38.9684C15.845 40.7929 16.3899 42.5561 17.4246 44.0561L23.394 52.75C23.4674 52.8541 23.5042 52.9765 23.5042 53.1051V56.252H41.3388V52.7684C41.3388 52.7071 41.3511 52.6398 41.3695 52.5786L43.0593 47.2337C44.1184 43.8908 44.6511 40.4255 44.6511 36.9174C44.6511 36.9051 44.6511 36.8867 44.6511 36.8745L45.0429 31.2969L44.0266 34.0337C43.6899 34.9337 43.0286 35.65 42.1654 36.0541L42.1593 36.048ZM33.9123 46.0214C33.8817 46.0214 33.8511 46.0276 33.8205 46.0276C33.5144 46.0276 33.2511 45.8071 33.2021 45.4949C33.0307 44.35 32.1797 42.948 30.8695 41.6439C29.6695 40.45 28.2123 39.4643 27.0613 39.0786C26.7368 38.9684 26.5593 38.6133 26.6695 38.2888C26.7797 37.9643 27.1348 37.7867 27.4593 37.8969C28.8001 38.3439 30.4042 39.4153 31.7511 40.7623C33.2633 42.2745 34.2184 43.8908 34.4327 45.3112C34.4817 45.6541 34.2491 45.9725 33.9123 46.0214Z" fill="#A6FB00"/>
<path d="M18.1042 20.6561C17.4981 21.2928 17.1919 22.1255 17.2409 23.001L17.5042 28.0643C17.7613 27.9602 18.0307 27.8806 18.3062 27.8255L23.5654 26.7786V22.8418C23.5654 21.0969 22.145 19.6765 20.4001 19.6765C19.5246 19.6765 18.7103 20.0255 18.1042 20.6622V20.6561Z" fill="#A6FB00"/>
<path d="M29.8959 26.3808C30.2142 26.6012 30.4836 26.8767 30.6796 27.195L31.1755 23.093C31.1816 23.0318 31.1938 22.9767 31.2 22.9155C31.3224 22.0583 31.1142 21.1583 30.6306 20.4359C30.1408 19.7012 29.4183 19.2236 28.604 19.0828C27.6551 18.9236 26.6938 19.1869 25.9591 19.8053C25.2245 20.4236 24.802 21.3297 24.802 22.2971V26.5277L27.7408 25.9399C28.4938 25.7869 29.2591 25.9461 29.8898 26.3808H29.8959Z" fill="#A6FB00"/>
<path d="M33.8083 33.1643C35.2532 33.4582 36.6858 32.5705 37.0593 31.1439L38.4613 25.848L38.4981 25.6949C38.5287 25.5602 38.5654 25.4256 38.6083 25.2909L38.8164 24.4949C39.0124 23.448 38.8164 22.45 38.2715 21.6786C37.7756 20.9807 37.0103 20.5276 36.1226 20.399C35.9634 20.3745 35.8103 20.3684 35.6511 20.3684C34.9348 20.3684 34.2491 20.6011 33.6675 21.0419C32.9634 21.5807 32.5164 22.3643 32.4124 23.246L31.5797 30.097C31.494 30.7949 31.6777 31.4929 32.0879 32.0684C32.4981 32.6378 33.1042 33.0296 33.796 33.1705L33.8083 33.1643Z" fill="#A6FB00"/>
<path d="M43.5429 23.6563C43.2674 23.5522 42.9735 23.4971 42.6797 23.4971C42.2327 23.4971 41.7797 23.6134 41.345 23.846C40.6225 24.2318 40.0654 24.8869 39.8082 25.6338L39.6735 26.1297L38.3021 32.2338C38.0388 33.4093 38.694 34.5971 39.8266 34.995C41.045 35.4236 42.398 34.793 42.8511 33.5807L45.196 27.2807C45.7409 25.8236 44.9939 24.195 43.5429 23.644V23.6563Z" fill="#A6FB00"/>
<path d="M30.6123 10.7134C30.9551 10.7134 31.2368 10.4318 31.2368 10.0889V5.72361C31.2368 5.38075 30.9551 5.09912 30.6123 5.09912C30.2694 5.09912 29.9878 5.38075 29.9878 5.72361V10.0889C29.9878 10.4318 30.2694 10.7134 30.6123 10.7134Z" fill="#A6FB00"/>
<path d="M8.66338 36.7031H4.29807C3.95522 36.7031 3.67358 36.9848 3.67358 37.3276C3.67358 37.6705 3.95522 37.9521 4.29807 37.9521H8.66338C9.00624 37.9521 9.28787 37.6705 9.28787 37.3276C9.28787 36.9848 9.00624 36.7031 8.66338 36.7031Z" fill="#A6FB00"/>
<path d="M18.5204 14.8827C18.649 14.8827 18.7776 14.8399 18.8939 14.7603C19.1694 14.5521 19.2306 14.1664 19.0225 13.8848L16.4204 10.3766C16.2123 10.1011 15.8265 10.0399 15.5449 10.248C15.2633 10.4562 15.2082 10.8419 15.4163 11.1236L18.0184 14.6317C18.1408 14.797 18.3306 14.8827 18.5204 14.8827Z" fill="#A6FB00"/>
<path d="M10.8123 24.1645L6.68574 22.738C6.36125 22.6278 6.00615 22.7992 5.88982 23.1237C5.77962 23.4482 5.95105 23.8033 6.27554 23.9196L10.4021 25.3461C10.4694 25.3706 10.5368 25.3829 10.6041 25.3829C10.8613 25.3829 11.1061 25.2237 11.1919 24.9604C11.3021 24.6359 11.1306 24.2808 10.8061 24.1645H10.8123Z" fill="#A6FB00"/>
<path d="M56.9266 36.7031H52.5613C52.2184 36.7031 51.9368 36.9848 51.9368 37.3276C51.9368 37.6705 52.2184 37.9521 52.5613 37.9521H56.9266C57.2694 37.9521 57.5511 37.6705 57.5511 37.3276C57.5511 36.9848 57.2694 36.7031 56.9266 36.7031Z" fill="#A6FB00"/>
<path d="M45.6797 10.248C45.4042 10.0399 45.0124 10.1011 44.8042 10.3766L42.2021 13.8848C41.994 14.1603 42.0552 14.5521 42.3307 14.7603C42.4409 14.846 42.5756 14.8827 42.7042 14.8827C42.894 14.8827 43.0838 14.797 43.2062 14.6317L45.8083 11.1236C46.0164 10.848 45.9552 10.4562 45.6797 10.248Z" fill="#A6FB00"/>
<path d="M55.3347 23.1237C55.2245 22.7992 54.8694 22.6278 54.5388 22.738L50.4123 24.1645C50.0878 24.2747 49.9163 24.6298 50.0265 24.9604C50.1184 25.2176 50.3572 25.3829 50.6143 25.3829C50.6816 25.3829 50.749 25.3706 50.8163 25.3461L54.9429 23.9196C55.2674 23.8094 55.4388 23.4543 55.3286 23.1237H55.3347Z" fill="#A6FB00"/>
</svg>
