<svg width="50" height="51" viewBox="0 0 50 51" fill="none" xmlns="http://www.w3.org/2000/svg">
<rect y="0.868042" width="50" height="50" rx="10" fill="#A6FB00"/>
<g clip-path="url(#clip0_32_1078)">
<g filter="url(#filter0_d_32_1078)">
<path d="M18.52 38.108H15.28V40.268H18.52V38.108Z" fill="#121213"/>
<path d="M18.52 34.5081H15.28V36.6681H18.52V34.5081Z" fill="#121213"/>
<path d="M18.52 30.9081H15.28V33.0681H18.52V30.9081Z" fill="#121213"/>
<path d="M18.52 27.308H15.28V29.468H18.52V27.308Z" fill="#121213"/>
<path d="M13.84 30.9081H10.6V33.0681H13.84V30.9081Z" fill="#121213"/>
<path d="M13.84 27.308H10.6V29.468H13.84V27.308Z" fill="#121213"/>
<path d="M13.84 34.5081H10.6V36.6681H13.84V34.5081Z" fill="#121213"/>
<path d="M23.2 27.308H19.96V29.468H23.2V27.308Z" fill="#121213"/>
<path d="M27.88 38.108H24.64V40.268H27.88V38.108Z" fill="#121213"/>
<path d="M23.2 38.108H19.96V40.268H23.2V38.108Z" fill="#121213"/>
<path d="M27.88 34.5081H24.64V36.6681H27.88V34.5081Z" fill="#121213"/>
<path d="M27.88 30.9081H24.64V33.0681H27.88V30.9081Z" fill="#121213"/>
<path d="M23.2 34.5081H19.96V36.6681H23.2V34.5081Z" fill="#121213"/>
<path d="M23.2 30.9081H19.96V33.0681H23.2V30.9081Z" fill="#121213"/>
<path d="M10.6 39.188C10.6 39.4745 10.7138 39.7492 10.9163 39.9517C11.1188 40.1542 11.3935 40.268 11.68 40.268H13.84V38.108H10.6V39.188Z" fill="#121213"/>
<path d="M32.5599 30.9081H29.3199V33.0681H32.5599V30.9081Z" fill="#121213"/>
<path d="M27.88 27.308H24.64V29.468H27.88V27.308Z" fill="#121213"/>
<path d="M32.5599 27.308H29.3199V29.468H32.5599V27.308Z" fill="#121213"/>
<path d="M10.6 25.8681H32.56V23.3481C32.56 23.0616 32.4462 22.7869 32.2436 22.5844C32.0411 22.3819 31.7664 22.2681 31.48 22.2681H11.68C11.3935 22.2681 11.1188 22.3819 10.9163 22.5844C10.7138 22.7869 10.6 23.0616 10.6 23.3481V25.8681Z" fill="#121213"/>
<path d="M29.3199 40.268H31.4799C31.7664 40.268 32.0411 40.1542 32.2436 39.9517C32.4462 39.7492 32.5599 39.4745 32.5599 39.188V38.108H29.3199V40.268Z" fill="#121213"/>
<path d="M39.4 26.552C38.086 27.272 36.0448 27.7112 34 27.9056V31.8656C37.7836 31.5056 39.4 30.4724 39.4 30.0908V26.552Z" fill="#121213"/>
<path d="M32.5599 34.5081H29.3199V36.6681H32.5599V34.5081Z" fill="#121213"/>
<path d="M31.2999 15.068C35.7735 15.068 39.3999 14.2621 39.3999 13.268C39.3999 12.2739 35.7735 11.468 31.2999 11.468C26.8264 11.468 23.2 12.2739 23.2 13.268C23.2 14.2621 26.8264 15.068 31.2999 15.068Z" fill="#121213"/>
<path d="M39.4 20.828C38.068 21.548 35.9584 21.9908 33.7084 22.1672C33.8996 22.5315 33.9996 22.9366 34 23.348V26.4584C37.7836 26.0984 39.4 25.0436 39.4 24.6584V20.828Z" fill="#121213"/>
<path d="M39.3999 18.938V15.0896C37.5999 16.0544 34.3599 16.508 31.2999 16.508C28.24 16.508 25 16.0544 23.2 15.0896V18.9884C23.2 19.5212 26.0368 20.828 31.2999 20.828C36.5631 20.828 39.3999 19.5212 39.3999 18.9884V18.938Z" fill="#121213"/>
</g>
</g>
<defs>
<filter id="filter0_d_32_1078" x="10.6" y="11.468" width="32.8" height="32.8" filterUnits="userSpaceOnUse" color-interpolation-filters="sRGB">
<feFlood flood-opacity="0" result="BackgroundImageFix"/>
<feColorMatrix in="SourceAlpha" type="matrix" values="0 0 0 0 0 0 0 0 0 0 0 0 0 0 0 0 0 0 127 0" result="hardAlpha"/>
<feOffset dx="2" dy="2"/>
<feGaussianBlur stdDeviation="1"/>
<feComposite in2="hardAlpha" operator="out"/>
<feColorMatrix type="matrix" values="0 0 0 0 0 0 0 0 0 0 0 0 0 0 0 0 0 0 0.16 0"/>
<feBlend mode="normal" in2="BackgroundImageFix" result="effect1_dropShadow_32_1078"/>
<feBlend mode="normal" in="SourceGraphic" in2="effect1_dropShadow_32_1078" result="shape"/>
</filter>
<clipPath id="clip0_32_1078">
<rect width="36" height="36" fill="white" transform="translate(7 7.86804)"/>
</clipPath>
</defs>
</svg>
