<svg width="50" height="50" viewBox="0 0 50 50" fill="none" xmlns="http://www.w3.org/2000/svg">
<rect y="0.868042" width="49.407" height="49" rx="10" fill="#A6FB00"/>
<g clip-path="url(#clip0_32_1257)">
<g filter="url(#filter0_d_32_1257)">
<path d="M15.6285 28.6911V15.9513C15.6258 15.1344 15.3012 14.3518 14.7257 13.7741C14.1501 13.1965 13.3702 12.8708 12.5562 12.868C11.8073 12.868 11.4291 13.1595 11.2406 13.6273C11.0137 14.1897 11 15.0281 11 15.9513V28.6911H15.6285ZM21.3348 36.868H34.9751C35.7347 36.868 36.4401 36.3831 36.9801 35.6943C37.544 34.9705 37.897 34.1041 38 33.1912H22.9866C22.8829 34.5734 22.2982 35.8749 21.3348 36.868ZM22.9759 14.9415C22.9759 14.8255 23.0218 14.7142 23.1036 14.6321C23.1854 14.55 23.2963 14.5039 23.412 14.5039C23.5276 14.5039 23.6385 14.55 23.7203 14.6321C23.8021 14.7142 23.848 14.8255 23.848 14.9415V15.5056C24.2883 15.6048 24.6819 15.8515 24.9639 16.205C25.246 16.5585 25.3997 16.9978 25.3999 17.4507C25.3999 17.5666 25.354 17.6777 25.2724 17.7596C25.1907 17.8416 25.08 17.8876 24.9645 17.8876C24.849 17.8876 24.7383 17.8416 24.6566 17.7596C24.5749 17.6777 24.5291 17.5666 24.5291 17.4507C24.5316 17.3019 24.5047 17.1542 24.4497 17.016C24.3948 16.8778 24.3129 16.752 24.209 16.6459C24.1051 16.5398 23.9812 16.4555 23.8445 16.398C23.7078 16.3405 23.561 16.3109 23.4128 16.3109C23.2645 16.3109 23.1178 16.3405 22.9811 16.398C22.8444 16.4555 22.7204 16.5398 22.6165 16.6459C22.5126 16.752 22.4308 16.8778 22.3759 17.016C22.3209 17.1542 22.2939 17.3019 22.2965 17.4507C22.2965 18.2364 22.5034 18.5711 23.4126 18.5711C23.6781 18.554 23.9442 18.5939 24.1932 18.6882C24.4421 18.7824 24.6681 18.9289 24.8562 19.1177C25.0442 19.3066 25.19 19.5335 25.2838 19.7834C25.3775 20.0333 25.4171 20.3003 25.3999 20.5668C25.3997 21.0196 25.246 21.459 24.9639 21.8125C24.6819 22.166 24.2883 22.4126 23.848 22.5118V23.0759C23.848 23.192 23.8021 23.3033 23.7203 23.3854C23.6385 23.4674 23.5276 23.5135 23.412 23.5135C23.2963 23.5135 23.1854 23.4674 23.1036 23.3854C23.0218 23.3033 22.9759 23.192 22.9759 23.0759V22.5128C22.5357 22.4133 22.1424 22.1666 21.8605 21.8131C21.5785 21.4597 21.4247 21.0205 21.4243 20.5678C21.4243 20.4517 21.4703 20.3404 21.5521 20.2583C21.6338 20.1763 21.7448 20.1302 21.8604 20.1302C21.9761 20.1302 22.087 20.1763 22.1688 20.2583C22.2506 20.3404 22.2965 20.4517 22.2965 20.5678C22.3016 20.8615 22.4214 21.1415 22.6302 21.3475C22.839 21.5534 23.12 21.6688 23.4128 21.6688C23.7055 21.6688 23.9866 21.5534 24.1954 21.3475C24.4042 21.1415 24.524 20.8615 24.5291 20.5678C24.546 20.4165 24.5288 20.2634 24.4787 20.1197C24.4286 19.976 24.3469 19.8455 24.2396 19.7378C24.1324 19.6302 24.0023 19.5482 23.8591 19.4979C23.716 19.4476 23.5634 19.4303 23.4126 19.4474C22.6146 19.4474 22.1174 19.2103 21.8116 18.8276C21.5279 18.4281 21.391 17.9422 21.4243 17.4527C21.4247 16.9999 21.5785 16.5608 21.8605 16.2073C22.1424 15.8539 22.5357 15.6071 22.9759 15.5076V14.9415ZM28.5137 26.3275C28.572 26.3259 28.63 26.336 28.6844 26.3573C28.7387 26.3786 28.7882 26.4105 28.83 26.4514C28.8719 26.4922 28.9051 26.541 28.9278 26.5949C28.9505 26.6488 28.9622 26.7068 28.9622 26.7653C28.9622 26.8238 28.9505 26.8818 28.9278 26.9357C28.9051 26.9896 28.8719 27.0384 28.83 27.0793C28.7882 27.1201 28.7387 27.1521 28.6844 27.1733C28.63 27.1946 28.572 27.2047 28.5137 27.2031H18.7333C18.675 27.2047 18.6169 27.1946 18.5626 27.1733C18.5083 27.1521 18.4587 27.1201 18.4169 27.0793C18.3751 27.0384 18.3419 26.9896 18.3192 26.9357C18.2965 26.8818 18.2848 26.8238 18.2848 26.7653C18.2848 26.7068 18.2965 26.6488 18.3192 26.5949C18.3419 26.541 18.3751 26.4922 18.4169 26.4514C18.4587 26.4105 18.5083 26.3786 18.5626 26.3573C18.6169 26.336 18.675 26.3259 18.7333 26.3275H28.5137ZM28.4659 29.8105C28.5814 29.8105 28.6921 29.8565 28.7738 29.9385C28.8554 30.0204 28.9013 30.1316 28.9013 30.2475C28.9013 30.3634 28.8554 30.4745 28.7738 30.5565C28.6921 30.6384 28.5814 30.6844 28.4659 30.6844H18.7333C18.6178 30.6844 18.5071 30.6384 18.4254 30.5565C18.3437 30.4745 18.2979 30.3634 18.2979 30.2475C18.2979 30.1316 18.3437 30.0204 18.4254 29.9385C18.5071 29.8565 18.6178 29.8105 18.7333 29.8105H28.4659ZM20.5966 33.2935C20.7121 33.2935 20.8228 33.3395 20.9045 33.4215C20.9861 33.5034 21.032 33.6146 21.032 33.7305C21.032 33.8464 20.9861 33.9575 20.9045 34.0394C20.8228 34.1214 20.7121 34.1674 20.5966 34.1674H18.7333C18.6178 34.1674 18.5071 34.1214 18.4254 34.0394C18.3437 33.9575 18.2979 33.8464 18.2979 33.7305C18.2979 33.6146 18.3437 33.5034 18.4254 33.4215C18.5071 33.3395 18.6178 33.2935 18.7333 33.2935H20.5966ZM19.0962 36.868H19.3338C19.7319 36.824 20.1142 36.6866 20.4497 36.467C20.7853 36.2474 21.0646 35.9517 21.2653 35.6038C21.8196 34.7559 22.1217 33.7672 22.1361 32.7532C22.1361 32.6376 22.1819 32.5267 22.2633 32.445C22.3448 32.3632 22.4553 32.3173 22.5705 32.3173H31.5075V15.6911C31.5058 14.9429 31.2089 14.2258 30.6817 13.6967C30.1545 13.1677 29.44 12.8697 28.6945 12.868H15.0217C15.4824 13.2381 15.8544 13.7073 16.1101 14.2409C16.3659 14.7746 16.4989 15.3591 16.4994 15.9513V33.8281C16.4994 35.4502 17.3916 36.868 19.0962 36.868Z" fill="#121213"/>
</g>
</g>
<defs>
<filter id="filter0_d_32_1257" x="10" y="11.868" width="33" height="30" filterUnits="userSpaceOnUse" color-interpolation-filters="sRGB">
<feFlood flood-opacity="0" result="BackgroundImageFix"/>
<feColorMatrix in="SourceAlpha" type="matrix" values="0 0 0 0 0 0 0 0 0 0 0 0 0 0 0 0 0 0 127 0" result="hardAlpha"/>
<feOffset dx="2" dy="2"/>
<feGaussianBlur stdDeviation="1.5"/>
<feComposite in2="hardAlpha" operator="out"/>
<feColorMatrix type="matrix" values="0 0 0 0 0 0 0 0 0 0 0 0 0 0 0 0 0 0 0.15 0"/>
<feBlend mode="normal" in2="BackgroundImageFix" result="effect1_dropShadow_32_1257"/>
<feBlend mode="normal" in="SourceGraphic" in2="effect1_dropShadow_32_1257" result="shape"/>
</filter>
<clipPath id="clip0_32_1257">
<rect width="35.407" height="35" fill="white" transform="translate(7 7.86804)"/>
</clipPath>
</defs>
</svg>
