<svg width="59" height="61" viewBox="0 0 59 61" fill="none" xmlns="http://www.w3.org/2000/svg">
<path fill-rule="evenodd" clip-rule="evenodd" d="M30.2589 25.7544L31.1295 25.5662C28.0539 23.0202 24.1622 21.6708 20.1707 21.7662C10.3589 21.7662 3.99419 28.678 3.38831 37.9133C3.34917 38.3886 3.42372 38.8665 3.60579 39.3073C3.78785 39.7482 4.07221 40.1394 4.43537 40.4486C8.39419 43.9133 14.6765 46.0368 20.1707 46.0368C22.9139 46.0141 25.6361 45.5555 28.2354 44.678C27.6783 42.451 27.4095 40.1617 27.4354 37.8662V29.3015C27.4303 28.4767 27.7076 27.6751 28.2213 27.0298C28.7349 26.3845 29.454 25.9344 30.2589 25.7544Z" fill="#A6FB00"/>
<path fill-rule="evenodd" clip-rule="evenodd" d="M53.8293 27.2897L42.6528 24.8426C42.3623 24.7779 42.061 24.7779 41.7705 24.8426L30.5881 27.2897C30.1285 27.3883 29.7168 27.6421 29.4222 28.0084C29.1276 28.3748 28.9681 28.8313 28.9705 29.3014V37.8661C28.9705 49.6308 35.1411 53.7485 41.4175 56.3132C41.6663 56.421 41.9346 56.4766 42.2058 56.4766C42.4769 56.4766 42.7452 56.421 42.994 56.3132C49.2705 53.7191 55.4411 49.6132 55.4411 37.8661V29.3014C55.4437 28.8322 55.285 28.3762 54.9916 28.01C54.6982 27.6437 54.2879 27.3894 53.8293 27.2897ZM52.6528 37.8779C52.6528 42.0955 51.8764 45.2191 50.2058 47.7014C48.5352 50.1838 46.0117 51.972 42.5058 53.5073C42.4072 53.5494 42.3012 53.5711 42.194 53.5711C42.0869 53.5711 41.9808 53.5494 41.8822 53.5073C38.394 51.9602 35.8822 50.172 34.1999 47.7073C32.5175 45.2426 31.7646 42.0838 31.7646 37.8661V30.5132C31.7628 30.3376 31.8197 30.1664 31.9262 30.0268C32.0328 29.8872 32.183 29.7872 32.3528 29.7426L42.0058 27.6308C42.1199 27.6042 42.2387 27.6042 42.3528 27.6308L51.994 29.7426C52.1768 29.7745 52.3426 29.8698 52.462 30.0118C52.5814 30.1539 52.6469 30.3335 52.647 30.5191L52.6528 37.8779Z" fill="#A6FB00"/>
<path fill-rule="evenodd" clip-rule="evenodd" d="M33.3293 31.1486V37.8662C33.3293 41.7604 34.0176 44.6133 35.4999 46.8192C36.9823 49.0251 39.1411 50.531 42.2117 51.9133C45.2823 50.531 47.5058 48.9721 48.9235 46.8192C50.3411 44.6662 51.0941 41.7604 51.0941 37.8662V31.1486L42.2117 29.2015L33.3293 31.1486ZM49.4117 36.8957C49.5298 37.0674 49.5751 37.279 49.5376 37.484C49.5001 37.6891 49.3829 37.8709 49.2117 37.9898L39.9352 44.4604C39.7746 44.572 39.5781 44.6193 39.3843 44.5932C39.1905 44.5671 39.0135 44.4693 38.8882 44.3192L35.1176 39.8662C34.9843 39.7067 34.9194 39.501 34.937 39.2939C34.9546 39.0868 35.0534 38.895 35.2117 38.7604C35.29 38.6929 35.381 38.6417 35.4794 38.6099C35.5777 38.578 35.6814 38.5661 35.7844 38.5749C35.8874 38.5836 35.9877 38.6129 36.0792 38.6609C36.1708 38.7089 36.2518 38.7747 36.3176 38.8545L39.6235 42.7604L48.2823 36.6957C48.3688 36.6324 48.4672 36.5873 48.5716 36.563C48.6759 36.5388 48.7842 36.5359 48.8897 36.5546C48.9952 36.5733 49.0959 36.6131 49.1856 36.6717C49.2753 36.7304 49.3522 36.8065 49.4117 36.8957Z" fill="#A6FB00"/>
<path d="M22.0202 18.3611C26.3488 17.3395 29.0296 13.0023 28.0079 8.67368C26.9863 4.3451 22.6491 1.66429 18.3205 2.68593C13.9919 3.70756 11.3111 8.04478 12.3328 12.3734C13.3544 16.702 17.6916 19.3828 22.0202 18.3611Z" fill="#A6FB00"/>
</svg>
