<svg width="31" height="31" viewBox="0 0 31 31" fill="none" xmlns="http://www.w3.org/2000/svg">
<path d="M11.5625 15.8682L13.375 14.0557C13.625 13.8057 13.745 13.514 13.735 13.1807C13.725 12.8473 13.605 12.5557 13.375 12.3057C13.125 12.0557 12.8283 11.9257 12.485 11.9157C12.1417 11.9057 11.8446 12.0252 11.5938 12.2744L8.875 14.9932C8.625 15.2432 8.5 15.5348 8.5 15.8682C8.5 16.2015 8.625 16.4932 8.875 16.7432L11.5938 19.4619C11.8438 19.7119 12.1408 19.8319 12.485 19.8219C12.8292 19.8119 13.1258 19.6815 13.375 19.4307C13.6042 19.1807 13.7242 18.889 13.735 18.5557C13.7458 18.2223 13.6258 17.9307 13.375 17.6807L11.5625 15.8682ZM19.4375 15.8682L17.625 17.6807C17.375 17.9307 17.255 18.2223 17.265 18.5557C17.275 18.889 17.395 19.1807 17.625 19.4307C17.875 19.6807 18.1721 19.8107 18.5163 19.8207C18.8604 19.8307 19.1571 19.7111 19.4062 19.4619L22.125 16.7432C22.375 16.4932 22.5 16.2015 22.5 15.8682C22.5 15.5348 22.375 15.2432 22.125 14.9932L19.4062 12.2744C19.1562 12.0244 18.8596 11.9044 18.5163 11.9144C18.1729 11.9244 17.8758 12.0548 17.625 12.3057C17.3958 12.5557 17.2762 12.8473 17.2663 13.1807C17.2563 13.514 17.3758 13.8057 17.625 14.0557L19.4375 15.8682ZM6.75 27.1182C6.0625 27.1182 5.47417 26.8736 4.985 26.3844C4.49583 25.8952 4.25083 25.3065 4.25 24.6182V7.11816C4.25 6.43066 4.495 5.84233 4.985 5.35316C5.475 4.864 6.06333 4.619 6.75 4.61816H12C12.2708 3.86816 12.7242 3.264 13.36 2.80566C13.9958 2.34733 14.7092 2.11816 15.5 2.11816C16.2917 2.11816 17.0054 2.34733 17.6413 2.80566C18.2771 3.264 18.73 3.86816 19 4.61816H24.25C24.9375 4.61816 25.5263 4.86316 26.0163 5.35316C26.5063 5.84316 26.7508 6.4315 26.75 7.11816V24.6182C26.75 25.3057 26.5054 25.8944 26.0163 26.3844C25.5271 26.8744 24.9383 27.119 24.25 27.1182H6.75ZM15.5 6.18066C15.7708 6.18066 15.995 6.09191 16.1725 5.91441C16.35 5.73691 16.4383 5.51316 16.4375 5.24316C16.4375 4.97233 16.3487 4.74858 16.1712 4.57191C15.9937 4.39525 15.77 4.3065 15.5 4.30566C15.2292 4.30566 15.0054 4.39441 14.8288 4.57191C14.6521 4.74941 14.5633 4.97316 14.5625 5.24316C14.5625 5.514 14.6513 5.73816 14.8288 5.91566C15.0063 6.09316 15.23 6.1815 15.5 6.18066Z" fill="#C3C3CA"/>
</svg>
