<svg width="100" height="110" viewBox="0 0 100 110" fill="none" xmlns="http://www.w3.org/2000/svg">
<path d="M37.549 96.5622C38.0582 95.1313 37.3111 93.5585 35.8802 93.0493C34.4493 92.5401 32.8766 93.2872 32.3674 94.7181C31.8581 96.1489 32.6053 97.7217 34.0361 98.2309C35.467 98.7402 37.0398 97.993 37.549 96.5622Z" fill="#EAEAED"/>
<path d="M22.7287 96.5543C23.2379 95.1235 22.4908 93.5507 21.0599 93.0415C19.629 92.5323 18.0563 93.2794 17.547 94.7103C17.0378 96.1411 17.7849 97.7139 19.2158 98.2231C20.6467 98.7324 22.2194 97.9852 22.7287 96.5543Z" fill="#EAEAED"/>
<path d="M52.592 96.5633C53.1012 95.1325 52.354 93.5597 50.9232 93.0505C49.4923 92.5413 47.9195 93.2884 47.4103 94.7193C46.9011 96.1501 47.6482 97.7229 49.0791 98.2321C50.51 98.7414 52.0827 97.9942 52.592 96.5633Z" fill="#EAEAED"/>
<path d="M67.4123 96.5612C67.9215 95.1303 67.1744 93.5576 65.7435 93.0483C64.3126 92.5391 62.7399 93.2862 62.2306 94.7171C61.7214 96.148 62.4685 97.7207 63.8994 98.23C65.3303 98.7392 66.903 97.9921 67.4123 96.5612Z" fill="#EAEAED"/>
<path d="M82.4552 96.5524C82.9645 95.1215 82.2173 93.5488 80.7865 93.0395C79.3556 92.5303 77.7828 93.2774 77.2736 94.7083C76.7644 96.1392 77.5115 97.7119 78.9424 98.2212C80.3733 98.7304 81.946 97.9833 82.4552 96.5524Z" fill="#EAEAED"/>
<path d="M50.0013 1.73029C41.6509 1.73029 33.4881 4.20645 26.5451 8.84564C19.6021 13.4848 14.1906 20.0787 10.9951 27.7934C7.79954 35.5081 6.96345 43.9971 8.59251 52.187C10.2216 60.3769 14.2426 67.8998 20.1472 73.8043C26.0518 79.7089 33.5747 83.73 41.7646 85.359C49.9544 86.9881 58.4435 86.152 66.1582 82.9565C73.8729 79.7609 80.4667 74.3495 85.1059 67.4065C89.7451 60.4634 92.2213 52.3006 92.2213 43.9503C92.208 32.7569 87.7556 22.0258 79.8407 14.1109C71.9258 6.19593 61.1946 1.74352 50.0013 1.73029ZM27.7913 73.7903C31.6139 71.1405 35.8818 69.1996 40.3913 68.0603C41.0623 67.8924 41.6588 67.5069 42.0875 66.9642C42.5163 66.4214 42.7532 65.7519 42.7613 65.0603V58.3503C42.7613 57.525 42.4947 56.7218 42.0013 56.0603C40.344 53.6588 39.3128 50.8814 39.0013 47.9803C38.9665 47.6334 38.8596 47.2976 38.6874 46.9945C38.5152 46.6914 38.2815 46.4277 38.0013 46.2203C37.1425 45.6234 36.4405 44.8281 35.9548 43.9019C35.4691 42.9758 35.214 41.9461 35.2113 40.9003C35.2091 40.7545 35.2373 40.6098 35.2941 40.4755C35.351 40.3412 35.4351 40.2203 35.5413 40.1203C35.6474 40.0181 35.7728 39.9381 35.9101 39.8849C36.0475 39.8316 36.194 39.8063 36.3413 39.8103C37.0153 39.83 37.6697 39.5819 38.1613 39.1203C38.4035 38.8907 38.5973 38.6149 38.7313 38.3092C38.8653 38.0035 38.9367 37.674 38.9413 37.3403L39.0013 31.0603C38.9928 29.6922 39.2439 28.3348 39.7413 27.0603C41.2613 23.3303 45.0913 19.3103 49.9213 19.3103H50.8013V21.1603C50.7993 21.7728 51.0222 22.3647 51.4278 22.8236C51.8333 23.2826 52.3932 23.5768 53.0013 23.6503C54.5102 23.8776 55.9554 24.4164 57.2448 25.2325C58.5343 26.0485 59.6399 27.1239 60.4913 28.3903C61.2215 29.4111 61.6132 30.6352 61.6113 31.8903V37.3303C61.6113 37.9933 61.8747 38.6292 62.3435 39.0981C62.8123 39.5669 63.4482 39.8303 64.1113 39.8303C64.4047 39.8329 64.6851 39.9515 64.8913 40.1603C64.9909 40.26 65.0696 40.3786 65.1228 40.5091C65.176 40.6396 65.2027 40.7794 65.2013 40.9203C65.1979 41.9454 64.9525 42.9552 64.4851 43.8675C64.0176 44.7798 63.3413 45.5688 62.5113 46.1703C62.2334 46.3755 62.0011 46.6361 61.829 46.9355C61.6569 47.235 61.5487 47.5669 61.5113 47.9103C61.211 50.898 60.1431 53.7572 58.4113 56.2103C57.9042 56.878 57.627 57.6919 57.6213 58.5303V65.1403C57.6292 65.8275 57.8625 66.4931 58.2852 67.035C58.7079 67.577 59.2967 67.9652 59.9613 68.1403C64.3347 69.2903 68.4736 71.1956 72.1913 73.7703C65.7749 78.5593 57.9828 81.1467 49.9763 81.1467C41.9698 81.1467 34.1776 78.5593 27.7613 73.7703L27.7913 73.7903ZM76.1213 70.4303L76.0013 70.3703C71.9468 67.3969 67.4105 65.144 62.5913 63.7103V58.9103C64.5343 56.1002 65.8038 52.8803 66.3013 49.5003C67.5148 48.4217 68.4868 47.0989 69.1537 45.6186C69.8206 44.1383 70.1674 42.5339 70.1713 40.9103C70.1759 40.1111 70.0208 39.3191 69.7152 38.5807C69.4095 37.8423 68.9594 37.1724 68.3913 36.6103C67.8681 36.0881 67.2549 35.6646 66.5813 35.3603V31.8903C66.5902 29.5771 65.8616 27.3213 64.5013 25.4503C62.3913 22.4048 59.3209 20.1548 55.7813 19.0603V16.8303C55.7813 16.1672 55.5179 15.5314 55.049 15.0625C54.5802 14.5937 53.9443 14.3303 53.2813 14.3303H49.9013C42.7213 14.3303 37.2913 19.7903 35.0913 25.1903C34.365 27.0409 33.9951 29.0122 34.0013 31.0003V35.3003C33.2615 35.5774 32.5823 35.995 32.0013 36.5303C31.4089 37.0949 30.9384 37.7748 30.6185 38.528C30.2986 39.2812 30.1362 40.092 30.1413 40.9103C30.141 42.566 30.4982 44.2023 31.1885 45.7073C31.8789 47.2123 32.8861 48.5504 34.1413 49.6303C34.6274 52.893 35.8444 56.0038 37.7013 58.7303V63.6003C32.773 65.0363 28.1357 67.3279 24.0013 70.3703L23.9313 70.4303C18.6686 65.2481 15.0667 58.6173 13.584 51.3819C12.1013 44.1464 12.8047 36.6334 15.6049 29.7989C18.405 22.9644 23.1752 17.1176 29.3084 13.0024C35.4416 8.88723 42.6604 6.68982 50.0463 6.68982C57.4321 6.68982 64.651 8.88723 70.7842 13.0024C76.9173 17.1176 81.6875 22.9644 84.4877 29.7989C87.2878 36.6334 87.9913 44.1464 86.5085 51.3819C85.0258 58.6173 81.4239 65.2481 76.1613 70.4303H76.1213Z" fill="#EAEAED"/>
</svg>
