<svg width="16" height="17" viewBox="0 0 16 17" fill="none" xmlns="http://www.w3.org/2000/svg">
<path d="M8.66671 4.20166C10.14 4.20166 11.3334 5.39499 11.3334 6.86833C11.3334 7.86833 10.8 8.71499 10 9.17499V8.36166C10.4067 7.99499 10.6667 7.46166 10.6667 6.86833C10.6667 5.76166 9.77337 4.86833 8.66671 4.86833C7.56004 4.86833 6.66671 5.76166 6.66671 6.86833C6.66671 7.46166 6.92671 7.99499 7.33337 8.36166V9.17499C6.53337 8.71499 6.00004 7.86833 6.00004 6.86833C6.00004 5.39499 7.19337 4.20166 8.66671 4.20166ZM13.3334 14.535C13.3134 15.0817 12.88 15.515 12.3334 15.535H8.66671C8.41337 15.535 8.17337 15.435 8.00004 15.2483L5.33337 12.4483L5.82671 11.935C5.95337 11.795 6.13337 11.7217 6.33337 11.7217H6.46671L8.00004 12.8683V6.86833C8.00004 6.50166 8.30004 6.20166 8.66671 6.20166C9.03337 6.20166 9.33337 6.50166 9.33337 6.86833V9.84833L10.14 9.93499L12.7667 11.395C13.12 11.555 13.3334 11.9083 13.3334 12.295V14.535ZM13.3334 2.20166H2.66671C1.93337 2.20166 1.33337 2.80166 1.33337 3.53499V8.86833C1.33337 9.22195 1.47385 9.56109 1.7239 9.81114C1.97395 10.0612 2.31309 10.2017 2.66671 10.2017H5.33337V8.86833H2.66671V3.53499H13.3334V8.86833H12V10.2017H13.3334V10.175L13.36 10.2017C14.0867 10.2017 14.6667 9.59499 14.6667 8.86833V3.53499C14.6667 3.18137 14.5262 2.84223 14.2762 2.59218C14.0261 2.34214 13.687 2.20166 13.3334 2.20166Z" fill="url(#paint0_linear_95_86)"/>
<defs>
<linearGradient id="paint0_linear_95_86" x1="1.2754" y1="2.80772" x2="16.1495" y2="4.87716" gradientUnits="userSpaceOnUse">
<stop stop-color="#FFD800"/>
<stop offset="1" stop-color="#A6FB00"/>
</linearGradient>
</defs>
</svg>
