<svg width="30" height="31" viewBox="0 0 30 31" fill="none" xmlns="http://www.w3.org/2000/svg">
<rect x="0.5" y="1.36816" width="29" height="29" rx="14.5" fill="#A6FB00"/>
<rect x="0.5" y="1.36816" width="29" height="29" rx="14.5" stroke="#A6FB00"/>
<path d="M22.5 11.5053C21.9479 11.7626 21.3528 11.9317 20.7361 12.0126C21.3671 11.6229 21.8547 11.0053 22.0841 10.2626C21.489 10.6303 20.8294 10.8876 20.1338 11.0347C19.5674 10.4023 18.7715 10.0347 17.8681 10.0347C16.1831 10.0347 14.8064 11.4464 14.8064 13.1891C14.8064 13.4391 14.8351 13.6817 14.8853 13.9097C12.3327 13.7773 10.0598 12.52 8.54685 10.6156C8.28155 11.0788 8.13098 11.6229 8.13098 12.1964C8.13098 13.292 8.66874 14.2626 9.50048 14.8141C8.9914 14.8141 8.51816 14.667 8.10229 14.4464V14.4685C8.10229 15.9979 9.16348 17.2773 10.5688 17.5641C10.1176 17.6907 9.64395 17.7083 9.18499 17.6156C9.37974 18.2424 9.76114 18.7908 10.2756 19.1839C10.79 19.5769 11.4116 19.7947 12.0531 19.8067C10.9658 20.6894 9.61807 21.1665 8.23136 21.1597C7.98757 21.1597 7.74379 21.145 7.5 21.1156C8.86233 22.0126 10.4828 22.5347 12.218 22.5347C17.8681 22.5347 20.9728 17.7258 20.9728 13.5567C20.9728 13.417 20.9728 13.2847 20.9656 13.145C21.5679 12.7038 22.0841 12.145 22.5 11.5053Z" fill="#121213"/>
</svg>
