<svg width="16" height="17" viewBox="0 0 16 17" fill="none" xmlns="http://www.w3.org/2000/svg">
<g clip-path="url(#clip0_95_79)">
<mask id="mask0_95_79" style="mask-type:luminance" maskUnits="userSpaceOnUse" x="0" y="1" width="16" height="16">
<path d="M8 2.20166L9.751 3.47899L11.9187 3.47499L12.5843 5.53766L14.3403 6.80833L13.6667 8.86833L14.3403 10.9283L12.5843 12.199L11.9187 14.2617L9.751 14.2577L8 15.535L6.249 14.2577L4.08133 14.2617L3.41567 12.199L1.65967 10.9283L2.33333 8.86833L1.65967 6.80833L3.41567 5.53766L4.08133 3.47499L6.249 3.47899L8 2.20166Z" fill="white" stroke="white" stroke-width="1.33333" stroke-linecap="round" stroke-linejoin="round"/>
<path d="M5.66663 8.86833L7.33329 10.535L10.6666 7.20166" stroke="black" stroke-width="1.33333" stroke-linecap="round" stroke-linejoin="round"/>
</mask>
<g mask="url(#mask0_95_79)">
<path d="M0 1H16V17H0V1Z" fill="url(#paint0_linear_95_79)"/>
</g>
</g>
<defs>
<linearGradient id="paint0_linear_95_79" x1="-0.069565" y1="1.72727" x2="17.7794" y2="4.21061" gradientUnits="userSpaceOnUse">
<stop stop-color="#FFD800"/>
<stop offset="1" stop-color="#A6FB00"/>
</linearGradient>
<clipPath id="clip0_95_79">
<rect width="16" height="16" fill="white" transform="translate(0 0.868164)"/>
</clipPath>
</defs>
</svg>
