<svg width="31" height="31" viewBox="0 0 31 31" fill="none" xmlns="http://www.w3.org/2000/svg">
<path d="M13.5361 19.9417L13.5297 19.9267C13.4003 19.8962 13.2717 19.8626 13.144 19.826L13.1343 19.8228C11.9119 19.4719 10.7831 18.853 9.83005 18.011C8.78154 17.086 7.97521 15.9186 7.48138 14.6105C6.98755 13.3025 6.8212 11.8935 6.99685 10.5064C7.17249 9.11926 7.6848 7.79619 8.48909 6.6525C9.29338 5.50881 10.3652 4.57924 11.6112 3.94484C12.8572 3.31043 14.2394 2.99046 15.6374 3.01281C17.0354 3.03517 18.4067 3.39918 19.6318 4.0731C20.8568 4.74702 21.8984 5.71039 22.6657 6.87921C23.433 8.04803 23.9028 9.38681 24.034 10.7788C24.0758 11.2213 23.7126 11.5824 23.2679 11.5824C22.8243 11.5824 22.4697 11.2213 22.4183 10.7799C22.2766 9.56199 21.816 8.40307 21.0828 7.42028C20.3497 6.43749 19.3701 5.66567 18.2431 5.18284C17.116 4.70001 15.8815 4.52328 14.6643 4.67053C13.447 4.81778 12.2902 5.28377 11.3108 6.02141C10.3314 6.75905 9.56411 7.74219 9.08647 8.87145C8.60884 10.0007 8.4378 11.236 8.59065 12.4526C8.74349 13.6691 9.21481 14.8238 9.95695 15.7998C10.6991 16.7758 11.6858 17.5385 12.8172 18.011L12.8601 18.0292C13.0743 18.117 13.2951 18.1942 13.5201 18.2617C13.7097 17.8034 14.0524 17.4252 14.4898 17.1913C14.9271 16.9575 15.432 16.8826 15.9184 16.9795C16.4048 17.0763 16.8425 17.3388 17.157 17.7223C17.4715 18.1058 17.6432 18.5865 17.6429 19.0824C17.6434 19.5749 17.4742 20.0525 17.1639 20.4348C16.8535 20.8172 16.4209 21.081 15.9389 21.1819C15.4569 21.2828 14.9548 21.2145 14.5172 20.9886C14.0796 20.7627 13.7331 20.393 13.5361 19.9417ZM12.4797 21.3045C10.5767 20.7118 8.88929 19.5742 7.62612 18.0324C6.84367 18.124 6.12213 18.4998 5.59851 19.0884C5.07489 19.677 4.78567 20.4375 4.78577 21.2253V21.9913C4.78577 25.9749 9.29648 28.7253 15.5001 28.7253C21.7036 28.7253 26.2143 25.8238 26.2143 21.9913V21.2253C26.2143 20.3728 25.8757 19.5552 25.2729 18.9524C24.6701 18.3496 23.8525 18.011 23.0001 18.011H19.0947C19.3474 18.8574 19.2932 19.7659 18.9416 20.5763C18.59 21.3868 17.9636 22.047 17.1728 22.4408C16.382 22.8345 15.4776 22.9364 14.6191 22.7285C13.7605 22.5207 13.0028 22.0164 12.4797 21.3045ZM20.8572 11.5824C20.8572 9.96239 20.1393 8.51061 19.0026 7.52811C18.4322 7.03607 17.7644 6.66985 17.0429 6.45336C16.3214 6.23686 15.5624 6.17497 14.8153 6.2717C14.0683 6.36844 13.3501 6.62163 12.7075 7.01476C12.0649 7.40788 11.5125 7.9321 11.0863 8.55319C10.66 9.17429 10.3696 9.87829 10.2338 10.6192C10.0981 11.3602 10.1202 12.1214 10.2986 12.8533C10.477 13.5851 10.8077 14.2711 11.2692 14.8665C11.7307 15.4619 12.3126 15.9532 12.9768 16.3085C13.6664 15.6792 14.5666 15.331 15.5001 15.3324C16.4338 15.3312 17.3343 15.6793 18.0243 16.3085C18.8803 15.8512 19.596 15.17 20.095 14.3376C20.5939 13.5052 20.8574 12.5529 20.8572 11.5824Z" fill="#C3C3CA"/>
</svg>
