<svg width="156" height="34" viewBox="0 0 156 34" fill="none" xmlns="http://www.w3.org/2000/svg">
<path d="M0.109985 22.3639L11.2155 17.4211L17.6076 21.1282L18.899 33.2901L11.0218 33.225L12.184 24.7703L10.8281 23.9898L4.17771 29.1928L0.109985 22.3639Z" fill="#19D079"/>
<path d="M18.3182 20.6074L28.1324 27.8264L32.0064 20.8675L24.1293 17.6807V16.1198L32.0064 12.868L28.1324 5.97412L18.3182 13.1932V20.6074Z" fill="#C0FF5C"/>
<path d="M17.6076 12.6081L18.899 0.446289L11.0218 0.576361L12.184 9.03113L10.8281 9.81157L4.11314 4.60864L0.109985 11.3724L11.2155 16.3152L17.6076 12.6081Z" fill="#EAEAED"/>
<path d="M58.2863 15.4105V26.8044H62.5255V12.2839H56.3517V15.4105H58.2863Z" fill="#EAEAED"/>
<path d="M58.1536 10.2437C58.5423 10.6499 59.1342 10.853 59.9291 10.853C60.724 10.853 61.3069 10.6499 61.6777 10.2437C62.0664 9.81954 62.2605 9.28959 62.2605 8.65382C62.2605 8.00012 62.0664 7.47017 61.6777 7.06396C61.3069 6.64004 60.724 6.42798 59.9291 6.42798C59.1342 6.42798 58.5423 6.64004 58.1536 7.06396C57.7828 7.47017 57.5972 8.00012 57.5972 8.65382C57.5972 9.28959 57.7828 9.81954 58.1536 10.2437Z" fill="#EAEAED"/>
<path d="M43.5275 26.4863C44.7286 27.034 46.2037 27.3079 47.9523 27.3079C49.595 27.3079 51.0082 27.0517 52.1919 26.5395C53.3755 26.0272 54.2852 25.3116 54.921 24.3932C55.5747 23.4568 55.9015 22.3705 55.9015 21.1339C55.9015 19.9328 55.5926 18.917 54.9743 18.0867C54.3736 17.2389 53.5347 16.5764 52.4569 16.0996C51.3795 15.6048 50.1339 15.2957 48.7207 15.1722L47.2371 15.0397C46.3539 14.9689 45.7177 14.7305 45.329 14.3241C44.9407 13.9179 44.7461 13.4409 44.7461 12.8934C44.7461 12.4693 44.8524 12.0808 45.064 11.7275C45.2761 11.3565 45.5939 11.0651 46.0181 10.853C46.4597 10.6411 46.9986 10.5351 47.6344 10.5351C48.3056 10.5351 48.862 10.6586 49.3036 10.9061C49.4009 10.9584 49.4931 11.0143 49.5801 11.0736L49.601 11.0883C49.6334 11.1107 49.6654 11.134 49.6962 11.1574C49.9645 11.3625 50.1783 11.6055 50.337 11.8864C50.5666 12.2751 50.6818 12.7078 50.6818 13.1849H54.921C54.921 11.9129 54.6296 10.8088 54.0467 9.87266C53.4638 8.91879 52.625 8.18574 51.5297 7.67328C50.4518 7.14333 49.1534 6.87835 47.6344 6.87835C46.1858 6.87835 44.9317 7.12583 43.8718 7.62037C42.8119 8.09741 41.9816 8.7863 41.3812 9.68705C40.7979 10.588 40.5065 11.6569 40.5065 12.8934C40.5065 14.6068 41.0808 15.9846 42.2291 17.027C43.3773 18.0692 44.9142 18.6698 46.8395 18.8287L48.297 18.9612C49.4803 19.0672 50.337 19.3057 50.867 19.6765C51.397 20.0298 51.6619 20.5156 51.6619 21.1339C51.6619 21.4181 51.6154 21.6846 51.5224 21.9335C51.4533 22.1183 51.3585 22.2934 51.2382 22.4588C50.9553 22.8298 50.5402 23.1212 49.9927 23.3333C49.4453 23.5451 48.7651 23.6512 47.9523 23.6512C47.0515 23.6512 46.3185 23.5276 45.7531 23.2802C45.1877 23.0152 44.764 22.6709 44.4811 22.2469C44.2162 21.8228 44.0839 21.3637 44.0839 20.8689H39.8707C39.8707 22.1232 40.1797 23.236 40.7979 24.2076C41.4162 25.1617 42.3263 25.9212 43.5275 26.4863Z" fill="#EAEAED"/>
<path d="M71.9848 26.9898C70.5187 26.9898 69.3351 26.8132 68.4343 26.4599C67.5331 26.0889 66.8709 25.4796 66.4468 24.6317C66.0406 23.766 65.8375 22.6002 65.8375 21.1339V15.384H63.6383V12.2839H65.8375V8.36239H69.7857V12.2839H74.0253V15.384H69.7857V21.2931C69.7857 21.982 69.9623 22.5119 70.3156 22.8827C70.6864 23.236 71.2074 23.4127 71.879 23.4127H74.0253V26.9898H71.9848Z" fill="#EAEAED"/>
<path fill-rule="evenodd" clip-rule="evenodd" d="M79.1298 26.6719C80.0834 27.0959 81.1787 27.3079 82.4153 27.3079C83.6339 27.3079 84.7118 27.0959 85.6479 26.6719C86.5841 26.248 87.3615 25.6562 87.9798 24.8967C88.5981 24.137 89.0132 23.2714 89.2249 22.2998H85.33C85.1534 22.7415 84.8176 23.1125 84.323 23.4127C83.8285 23.713 83.1923 23.8632 82.4153 23.8632C81.934 23.8632 81.5035 23.8063 81.1246 23.6924C80.8361 23.6057 80.5775 23.486 80.3484 23.3333C79.8185 22.98 79.4297 22.4852 79.1827 21.8495C79.114 21.6683 79.0551 21.4789 79.0056 21.2815C78.9553 21.0816 78.9147 20.8736 78.884 20.6571H89.4899V19.2262C89.4899 17.9013 89.2074 16.6824 88.642 15.5696C88.0766 14.4389 87.2553 13.5292 86.1779 12.8403C85.118 12.1337 83.8106 11.7804 82.2561 11.7804C81.0725 11.7804 80.0126 11.9925 79.0764 12.4164C78.1582 12.8226 77.3897 13.379 76.7715 14.0856C76.1532 14.7922 75.6761 15.5961 75.3403 16.4971C75.0224 17.3801 74.8637 18.3075 74.8637 19.2791V19.809C74.8637 20.7454 75.0224 21.6639 75.3403 22.5648C75.6761 23.4481 76.1532 24.2517 76.7715 24.9761C77.4072 25.6827 78.1932 26.248 79.1298 26.6719ZM78.957 18.037C78.9689 17.9809 78.9813 17.9256 78.9949 17.8712C79.0316 17.7214 79.0739 17.5779 79.1221 17.4407C79.1494 17.3626 79.1784 17.2864 79.2091 17.2124C79.4741 16.5587 79.8628 16.0642 80.3749 15.7286C80.5664 15.6031 80.7738 15.5012 80.997 15.4226C81.3716 15.291 81.7915 15.2251 82.2561 15.2251C82.9807 15.2251 83.581 15.393 84.0581 15.7286C84.5526 16.0465 84.9238 16.5145 85.1709 17.1328C85.1909 17.1827 85.2101 17.2335 85.2285 17.2849C85.2575 17.3669 85.2848 17.4509 85.31 17.5371C85.3475 17.6653 85.3804 17.798 85.409 17.9352C85.4299 18.0363 85.4482 18.1398 85.464 18.2458H78.9164C78.9288 18.175 78.9425 18.1055 78.957 18.037Z" fill="#EAEAED"/>
<path d="M91.2393 26.8044V12.2839H94.6046V15.9411C94.6503 15.7237 94.7023 15.515 94.7608 15.3149C94.8103 15.1464 94.864 14.9838 94.9225 14.8276C95.2937 13.8383 95.8501 13.0965 96.5917 12.6018C97.3337 12.0895 98.2434 11.8335 99.3213 11.8335H99.5064C100.602 11.8335 101.511 12.0895 102.236 12.6018C102.978 13.0965 103.534 13.8383 103.905 14.8276L103.934 14.9023L103.959 14.9706C103.976 14.9223 103.994 14.8748 104.011 14.8276C104.4 13.8383 104.965 13.0965 105.707 12.6018C106.449 12.0895 107.359 11.8335 108.436 11.8335H108.622C109.717 11.8335 110.635 12.0895 111.377 12.6018C112.137 13.0965 112.711 13.8383 113.1 14.8276C113.488 15.8169 113.683 17.0535 113.683 18.5373V26.8044H109.443V18.2988C109.443 17.5038 109.231 16.8591 108.807 16.3646C108.401 15.8698 107.818 15.6225 107.058 15.6225C106.299 15.6225 105.698 15.8788 105.257 16.391C104.815 16.8856 104.594 17.548 104.594 18.3783V26.8044H100.328V18.2988C100.328 17.5038 100.116 16.8591 99.6921 16.3646C99.2858 15.8698 98.7115 15.6225 97.9699 15.6225C97.1925 15.6225 96.5832 15.8788 96.1415 16.391C95.6999 16.8856 95.4789 17.548 95.4789 18.3783V26.8044H91.2393Z" fill="#EAEAED"/>
<path fill-rule="evenodd" clip-rule="evenodd" d="M125.008 24.0066V26.8044H128.373V17.9013C128.373 16.5587 128.108 15.4636 127.578 14.6156C127.048 13.75 126.271 13.1053 125.246 12.6814C124.239 12.2574 122.994 12.0454 121.51 12.0454C121.188 12.0454 120.853 12.0488 120.503 12.0558C120.296 12.0601 120.084 12.0654 119.867 12.0718C119.284 12.0895 118.719 12.116 118.171 12.1514L117.753 12.1796C117.538 12.1945 117.336 12.2092 117.146 12.2242C117.004 12.2353 116.869 12.2463 116.741 12.2574V15.8346C117.288 15.7992 117.897 15.7638 118.569 15.7286C118.757 15.7188 118.943 15.7096 119.127 15.7011C119.394 15.6887 119.657 15.678 119.918 15.6686C120.123 15.6612 120.327 15.6545 120.53 15.649C121.165 15.6313 121.678 15.6225 122.066 15.6225C122.843 15.6225 123.409 15.8079 123.762 16.179C124.115 16.55 124.292 17.1064 124.292 17.8484V17.9013H121.669C120.379 17.9013 119.24 18.0692 118.251 18.4048C117.262 18.7227 116.493 19.2262 115.946 19.9151C115.398 20.5865 115.124 21.452 115.124 22.5119C115.124 23.4835 115.345 24.3226 115.786 25.0292C116.228 25.7181 116.837 26.248 117.615 26.6188C118.41 26.9898 119.328 27.1754 120.37 27.1754C121.377 27.1754 122.225 26.9898 122.914 26.6188C123.621 26.248 124.168 25.7181 124.557 25.0292C124.625 24.9131 124.689 24.7926 124.749 24.6676C124.833 24.4905 124.908 24.3044 124.974 24.1094L125.008 24.0066ZM124.292 21.4256V20.2596H121.642C120.9 20.2596 120.326 20.445 119.92 20.816C119.532 21.1693 119.337 21.6551 119.337 22.2734C119.337 22.5644 119.386 22.8289 119.482 23.0672C119.58 23.3062 119.726 23.5185 119.92 23.7043C120.326 24.0576 120.9 24.2343 121.642 24.2343C121.784 24.2343 121.92 24.2272 122.052 24.2133C122.16 24.202 122.264 24.186 122.365 24.1653C122.56 24.1259 122.743 24.0693 122.914 23.9957C123.303 23.8191 123.621 23.5276 123.868 23.1212C124.115 22.715 124.257 22.1496 124.292 21.4256Z" fill="#EAEAED"/>
<path d="M130.91 26.8044V12.2839H134.275V17.0767C134.436 15.7085 134.842 14.6053 135.494 13.7677C136.377 12.6549 137.649 12.0985 139.31 12.0985H139.866V15.755H138.806C137.64 15.755 136.739 16.0729 136.103 16.7089C135.467 17.3272 135.149 18.2281 135.149 19.4116V26.8044H130.91Z" fill="#EAEAED"/>
<path d="M145.242 20.0211H146.646L151.23 26.8044H156L150.188 18.4737L154.967 12.2839H150.515L145.242 19.1882V7.46143H141.003V26.8044H145.242V20.0211Z" fill="#EAEAED"/>
</svg>
